<?xml version="1.0" encoding="utf-8"?>
<!-- Generator: Adobe Illustrator 16.0.4, SVG Export Plug-In . SVG Version: 6.00 Build 0)  -->
<!DOCTYPE svg PUBLIC "-//W3C//DTD SVG 1.1//EN" "http://www.w3.org/Graphics/SVG/1.1/DTD/svg11.dtd">
<svg version="1.1" id="Ebene_1" xmlns:sketch="http://www.bohemiancoding.com/sketch/ns"
	 xmlns="http://www.w3.org/2000/svg" xmlns:xlink="http://www.w3.org/1999/xlink" x="0px" y="0px" width="77px" height="73px"
	 viewBox="0 0 77 73" enable-background="new 0 0 77 73" xml:space="preserve">
<title>Arrow</title>
<desc>Created with Sketch.</desc>
<path id="Fill-1" sketch:type="MSShapeGroup" fill="#ffffff" d="M35.75,19.536c1.202-1.361,2.297-2.673,3.489-3.934
	c1.724-1.82,3.509-3.609,5.287-5.399c0.391-0.394,0.607-0.813,0.83-1.275c0.59-1.231,1.258-2.468,2.299-3.378
	c1.304-1.14,2.738-2.134,4.266-2.956c0.139-0.075,0.292-0.152,0.451-0.131c1.268,0.162-0.537,1.839-0.749,2.108
	c-0.849,1.075-1.378,2.511-2.103,3.679c-1.175,1.893-2.238,3.84-3.646,5.633c-2.032,2.59-4.31,5.072-6.526,7.578
	c-0.389,0.439-0.925,0.85-1.513,1.135c-1.249,0.607-1.853,0.359-2.927-0.256c-0.398-0.23-0.663-0.613-0.92-0.956
	c-0.552-0.736-0.994-1.523-1.599-2.231c-1.853-2.171-3.154-4.534-4.412-6.917c-0.863-1.636-1.793-3.253-2.661-4.888
	c-0.275-0.517-0.42-1.072-0.671-1.597C24.383,5.2,24.042,4.67,23.78,4.119c-0.399-0.845-0.77-1.698-1.134-2.552
	c-0.179-0.417-0.316-0.842-0.513-1.376c-0.002-0.01,1.873,0.371,2.014,0.423c0.709,0.262,1.4,0.588,1.967,1.097
	C27.06,2.564,28,4.004,28.738,5.066c0.909,1.306,1.716,2.665,2.364,4.054c0.445,0.956,0.547,2.002,0.792,3.009
	c0.231,0.948,0.367,1.915,0.706,2.839c0.189,0.514,0.739,0.948,1.074,1.438c0.641,0.94,1.244,1.896,1.864,2.843
	C35.59,19.328,35.65,19.404,35.75,19.536"/>
<g id="Group-5">
	<g id="Clip-4">
	</g>
	<defs>
		<filter id="Adobe_OpacityMaskFilter" filterUnits="userSpaceOnUse" x="0" y="19.075" width="76.326" height="53.925">
			<feColorMatrix  type="matrix" values="1 0 0 0 0  0 1 0 0 0  0 0 1 0 0  0 0 0 1 0"/>
		</filter>
	</defs>
	<mask maskUnits="userSpaceOnUse" x="0" y="19.075" width="76.326" height="53.925" id="mask-2">
		<g filter="url(#Adobe_OpacityMaskFilter)">
			<path id="path-1" fill="#FFFFFF" d="M0,0.19h76.326V73H0"/>
		</g>
	</mask>
	<path id="Fill-3" sketch:type="MSShapeGroup" mask="url(#mask-2)" fill="#ffffff" d="M75.445,19.929
		c-0.145,0.15-0.3,0.293-0.429,0.449c-1.411,1.699-2.836,3.392-4.221,5.103c-3.265,4.034-6.444,8.106-9.776,12.107
		c-3.465,4.163-7.201,8.201-10.567,12.409c-2.675,3.347-4.903,6.895-7.458,10.3c-2.085,2.78-4.359,5.479-6.555,8.214
		c-0.055,0.066-0.168,0.107-0.338,0.213c-0.159-0.357-0.283-0.646-0.418-0.935c-0.694-1.481-1.289-2.995-2.106-4.438
		c-1.678-2.956-3.393-5.904-5.244-8.803c-2.223-3.478-4.5-6.941-6.943-10.334c-3.199-4.442-6.563-8.817-9.892-13.208
		c-2.828-3.729-5.7-7.438-8.577-11.164c-1.16-1.496-3.671-0.679-2.706,1.346c0.594,1.248,1.702,2.23,2.135,3.543
		c0.21,0.638,0.248,1.318,0.383,1.976c0.321,1.563,1.176,2.93,2.002,4.271c0.762,1.24,1.326,2.669,2.271,3.768
		c2.348,2.73,4.267,5.942,6.35,8.884c2.858,4.039,5.665,8.102,8.376,12.197c2.795,4.223,5.446,8.501,8.165,12.752
		c0.107,0.17,0.25,0.449,0.402,0.457c1.044,0.065,1.127,0.728,1.479,1.238c0.123,0.179,0.329,0.34,0.541,0.47
		c0.904,0.557,1.816,1.107,2.745,1.641c0.344,0.197,0.715,0.403,1.118,0.504c1.595,0.401,3.571-0.325,4.546-1.596
		c1.408-1.839,2.838-3.669,4.284-5.49c2.064-2.599,4.351-5.134,5.45-8.076c1.279-3.427,3.385-6.534,6.014-9.443
		c4.52-5.003,8.481-10.238,12.039-15.66c2.426-3.697,4.982-7.348,7.523-11.002C76.554,20.883,76.389,20.375,75.445,19.929"/>
</g>
</svg>
