<svg width="1500" height="95" viewBox="0 0 1500 95" version="1.1" xmlns="http://www.w3.org/2000/svg"><title>Fill 1</title><g id="Page-1" stroke="none" stroke-width="1" fill="none" fill-rule="evenodd"><path d="M1339.293.04H0V87.64c0 .22.057.44.167.63l2.22 3.855c.354.615.944 1.057 1.626 1.248l.032.01 3.105-1.267 1.297-2.253c.482-.837 1.688-.837 2.17 0l2.04 3.543c.318-.065.658-.102 1.022-.102.184 0 .365.01.54.028 1.047.105 2.042-.485 2.57-1.4l.086-.15c.516-.895 1.336-1.61 2.337-1.852.213-.05.417-.112.614-.183l.322.117 2.596 4.512c.48.837 1.688.837 2.17 0l2.497-4.337c.495.125 1.023.212 1.606.212.297 0 .562-.05.837-.084l2.123 3.69c.485-.167 1.01-.283 1.615-.283.444 0 .845.062 1.224.157l2.225-3.867c.385-.67 1.218-.778 1.79-.377.404-.11.835-.187 1.317-.187 2.185 0 3.576 1.225 4.2 2.792l.008-.002c.315 0 .604.04.887.09l1.33-2.316c.483-.837 1.688-.837 2.17 0l.255.442c.903 1.568 2.572 2.532 4.377 2.53h.03c.334 0 .64.038.938.09l1.762-3.062c.483-.837 1.687-.837 2.17 0l2.228 3.872c.093-.003.174-.026.27-.026h.027c1.622.003 3.12-.86 3.93-2.27l.907-1.576c.484-.837 1.688-.837 2.17 0l2.328 4.043c.173-.016.333-.05.516-.05h.02c1.362.002 2.618-.723 3.298-1.904l1.2-2.09c.484-.837 1.69-.837 2.172 0l2.595 4.512c.484.837 1.69.837 2.172 0l2.063-3.585c.426.087.88.135 1.364.135h.018c1.194 0 2.296.635 2.892 1.672l1.024 1.778c.675-.43 1.5-.706 2.505-.706.023 0 .043.007.066.007l2.194-3.813c.483-.837 1.688-.837 2.17 0l1.195 2.076c.57.99 1.64 1.586 2.776 1.51.12-.006.24-.01.365-.01.327 0 .626.04.917.09l1.82-3.16c.562.166 1.16.285 1.84.285.362 0 .69-.05 1.018-.1l1.762 3.06c.13-.008.245-.036.38-.036.32 0 .62.028.902.08.935.173 1.873-.234 2.35-1.06l1.573-2.734c.48-.837 1.686-.837 2.17 0l2.596 4.512c.482.837 1.686.837 2.17 0l2.596-4.512.074-.025c.684.318 1.483.5 2.382.526l1.894 3.292c.432-.126.892-.216 1.412-.216.58 0 1.09.11 1.558.264l2.212-3.84c.48-.837 1.686-.837 2.17 0l.736 1.28c.578 1.003 1.674 1.655 2.818 1.52.192-.022.392-.034.598-.034.55 0 1.03.1 1.48.238l1.73-3.004c.482-.837 1.688-.837 2.17 0l2.18 3.788c.253-.037.506-.078.784-.078h.024c1.383.004 2.662-.736 3.355-1.94l1.02-1.77c.48-.837 1.688-.837 2.17 0l2.596 4.512c.482.837 1.688.837 2.17 0l1.985-3.45c.42.088.87.136 1.35.136.057 0 .116-.002.175-.004 1.153-.034 2.238.513 2.815 1.516l.745 1.292c.492-.173 1.03-.292 1.646-.292.43 0 .822.06 1.192.146l1.01-1.755.094.163c.355.615.945 1.057 1.627 1.248l.032.01 3.105-1.267 1.297-2.253c.482-.837 1.688-.837 2.17 0l2.04 3.543c.318-.065.658-.102 1.022-.102.184 0 .365.01.54.028 1.047.105 2.044-.485 2.57-1.4l.086-.15c.516-.895 1.336-1.61 2.337-1.852.213-.05.417-.112.614-.183l.322.117 2.596 4.512c.48.837 1.688.837 2.17 0l2.497-4.337c.495.125 1.023.212 1.606.212.297 0 .562-.05.837-.084l2.123 3.69c.485-.167 1.01-.283 1.615-.283.444 0 .845.062 1.224.157l2.225-3.867c.385-.67 1.218-.778 1.79-.377.404-.11.835-.187 1.317-.187 2.185 0 3.576 1.225 4.2 2.792l.008-.002c.315 0 .604.04.887.09l1.33-2.316c.483-.837 1.688-.837 2.17 0l.255.442c.903 1.568 2.572 2.532 4.377 2.53h.03c.334 0 .64.038.938.09l1.762-3.062c.483-.837 1.687-.837 2.17 0l2.228 3.872c.093-.003.174-.026.27-.026h.027c1.622.003 3.12-.86 3.93-2.27l.907-1.576c.484-.837 1.688-.837 2.17 0l2.328 4.043c.173-.016.333-.05.516-.05h.02c1.362.002 2.618-.723 3.298-1.904l1.2-2.09c.484-.837 1.69-.837 2.172 0l2.595 4.512c.484.837 1.69.837 2.172 0l2.063-3.585c.426.087.88.135 1.364.135h.018c1.194 0 2.296.635 2.892 1.672l1.024 1.778c.675-.43 1.5-.706 2.505-.706.023 0 .043.007.066.007l2.194-3.813c.483-.837 1.688-.837 2.17 0l1.195 2.076c.57.99 1.64 1.586 2.776 1.51.12-.006.24-.01.365-.01.327 0 .626.04.917.09l1.82-3.16c.562.166 1.16.285 1.84.285.362 0 .69-.05 1.018-.1l1.762 3.06c.13-.008.245-.036.38-.036.32 0 .62.028.902.08.935.173 1.873-.234 2.35-1.06l1.573-2.734c.48-.837 1.686-.837 2.17 0l2.596 4.512c.482.837 1.686.837 2.17 0l2.596-4.512.074-.025c.684.318 1.483.5 2.382.526l1.894 3.292c.432-.126.892-.216 1.412-.216.58 0 1.09.11 1.558.264l2.212-3.84c.48-.837 1.686-.837 2.17 0l.736 1.28c.578 1.003 1.674 1.655 2.818 1.52.192-.022.392-.034.598-.034.55 0 1.03.1 1.48.238l1.73-3.004c.482-.837 1.688-.837 2.17 0l2.18 3.788c.253-.037.506-.078.784-.078h.024c1.383.004 2.662-.736 3.355-1.94l1.02-1.77c.48-.837 1.688-.837 2.17 0l2.596 4.512c.482.837 1.688.837 2.17 0l1.985-3.45c.42.088.87.136 1.35.136.057 0 .116-.002.175-.004 1.153-.034 2.238.513 2.815 1.516l.745 1.292c.492-.173 1.03-.292 1.646-.292.43 0 .822.06 1.192.146l1.01-1.755.094.163c.355.615.945 1.057 1.627 1.248l.032.01 3.105-1.267 1.297-2.253c.482-.837 1.688-.837 2.17 0l2.04 3.543c.318-.065.658-.102 1.022-.102.184 0 .363.01.54.028 1.045.105 2.042-.485 2.57-1.4l.086-.15c.516-.895 1.336-1.61 2.337-1.852.213-.05.417-.112.614-.183l.322.117 2.596 4.512c.48.837 1.688.837 2.17 0l2.497-4.337c.495.125 1.023.212 1.606.212.297 0 .562-.05.837-.084l2.123 3.69c.485-.167 1.01-.283 1.615-.283.444 0 .845.062 1.224.157l2.225-3.867c.385-.67 1.218-.778 1.79-.377.404-.11.835-.187 1.317-.187 2.185 0 3.576 1.225 4.2 2.792l.008-.002c.315 0 .602.04.885.09l1.332-2.316c.483-.837 1.688-.837 2.17 0l.255.442c.903 1.568 2.572 2.532 4.377 2.53h.03c.334 0 .64.038.938.09l1.762-3.062c.483-.837 1.687-.837 2.17 0l2.228 3.872c.093-.003.174-.026.27-.026h.027c1.622.003 3.12-.86 3.93-2.27l.907-1.576c.484-.837 1.688-.837 2.17 0l2.328 4.043c.173-.016.333-.05.516-.05h.02c1.362.002 2.618-.723 3.298-1.904l1.2-2.09c.484-.837 1.69-.837 2.172 0l2.595 4.512c.484.837 1.69.837 2.172 0l2.063-3.585c.426.087.88.135 1.364.135h.018c1.194 0 2.296.635 2.892 1.672l1.024 1.778c.675-.43 1.5-.706 2.505-.706.023 0 .043.007.066.007l2.194-3.813c.483-.837 1.688-.837 2.17 0l1.195 2.076c.57.99 1.64 1.586 2.776 1.51.12-.006.24-.01.365-.01.327 0 .626.04.917.09l1.82-3.16c.562.166 1.16.285 1.84.285.362 0 .69-.05 1.018-.1l1.762 3.06c.13-.008.245-.036.38-.036.32 0 .62.028.902.08.935.173 1.873-.234 2.35-1.06l1.573-2.734c.48-.837 1.686-.837 2.17 0l2.596 4.512c.482.837 1.686.837 2.17 0l2.596-4.512.074-.025c.684.318 1.483.5 2.382.526l1.894 3.292c.432-.126.892-.216 1.412-.216.58 0 1.09.11 1.558.264l2.212-3.84c.48-.837 1.686-.837 2.17 0l.736 1.28c.578 1.003 1.674 1.655 2.818 1.52.192-.022.392-.034.598-.034.55 0 1.03.1 1.48.238l1.73-3.004c.482-.837 1.688-.837 2.17 0l2.18 3.788c.253-.037.506-.078.784-.078h.024c1.383.004 2.662-.736 3.355-1.94l1.02-1.77c.48-.837 1.688-.837 2.17 0l2.596 4.512c.482.837 1.688.837 2.17 0l1.985-3.45c.42.088.87.136 1.35.136.057 0 .116-.002.175-.004 1.153-.034 2.238.513 2.815 1.516l.745 1.292c.492-.173 1.03-.292 1.646-.292.43 0 .822.06 1.192.146l1.51-2.624.594 1.03c.355.616.945 1.058 1.627 1.25l.032.007 3.105-1.267 1.297-2.253c.482-.837 1.688-.837 2.17 0l2.04 3.543c.318-.065.658-.102 1.022-.102.184 0 .365.01.54.028 1.047.105 2.044-.485 2.57-1.4l.086-.15c.516-.895 1.336-1.61 2.337-1.852.213-.05.417-.112.614-.183l.322.117 2.596 4.512c.48.837 1.688.837 2.17 0l2.497-4.337c.495.125 1.023.212 1.606.212.297 0 .562-.05.837-.084l2.123 3.69c.485-.167 1.01-.283 1.615-.283.444 0 .845.062 1.224.157l2.225-3.867c.385-.67 1.218-.778 1.79-.377.404-.11.835-.187 1.317-.187 2.187 0 3.576 1.225 4.2 2.792l.008-.002c.315 0 .604.04.887.09l1.33-2.316c.483-.837 1.688-.837 2.17 0l.255.442c.903 1.568 2.572 2.532 4.377 2.53h.03c.334 0 .64.038.938.09l1.762-3.062c.483-.837 1.687-.837 2.17 0l2.228 3.872c.093-.003.174-.026.27-.026h.027c1.622.003 3.12-.86 3.93-2.27l.907-1.576c.484-.837 1.688-.837 2.17 0l2.328 4.043c.173-.016.333-.05.516-.05h.02c1.362.002 2.618-.723 3.298-1.904l1.2-2.09c.484-.837 1.69-.837 2.172 0l2.595 4.512c.484.837 1.69.837 2.172 0l2.063-3.585c.426.087.88.135 1.364.135h.018c1.194 0 2.296.635 2.892 1.672l1.024 1.778c.675-.43 1.5-.706 2.505-.706.023 0 .043.007.066.007l2.194-3.813c.483-.837 1.688-.837 2.17 0l1.195 2.076c.57.99 1.64 1.586 2.776 1.51.12-.006.24-.01.365-.01.327 0 .626.04.917.09l1.82-3.16c.562.166 1.16.285 1.84.285.362 0 .69-.05 1.018-.1l1.762 3.06c.13-.008.245-.036.38-.036.32 0 .62.028.902.08.935.173 1.873-.234 2.35-1.06l1.573-2.734c.48-.837 1.686-.837 2.17 0l2.596 4.512c.482.837 1.686.837 2.17 0l2.596-4.512.074-.025c.684.318 1.483.5 2.382.526l1.894 3.292c.432-.126.892-.216 1.412-.216.58 0 1.09.11 1.558.264l2.212-3.84c.48-.837 1.686-.837 2.17 0l.736 1.28c.578 1.003 1.674 1.655 2.818 1.52.192-.022.392-.034.598-.034.55 0 1.03.1 1.48.238l1.73-3.004c.482-.837 1.688-.837 2.17 0l2.18 3.788c.253-.037.506-.078.784-.078h.024c1.383.004 2.662-.736 3.355-1.94l1.02-1.77c.48-.837 1.688-.837 2.17 0l2.596 4.512c.482.837 1.688.837 2.17 0l1.985-3.45c.42.088.87.136 1.35.136.057 0 .116-.002.175-.004 1.153-.034 2.238.513 2.815 1.516l.745 1.292c.492-.173 1.03-.292 1.646-.292.43 0 .822.06 1.192.146l.574-.998c.323.307.72.53 1.157.653l.032.01 3.105-1.267 1.297-2.253c.482-.837 1.688-.837 2.17 0l2.04 3.543c.318-.065.658-.102 1.022-.102.184 0 .363.01.54.028 1.045.105 2.042-.485 2.57-1.4l.086-.15c.516-.895 1.336-1.61 2.337-1.852.213-.05.417-.112.614-.183l.322.117 2.596 4.512c.48.837 1.688.837 2.17 0l2.497-4.337c.495.125 1.023.212 1.606.212.297 0 .562-.05.837-.084l2.123 3.69c.485-.167 1.01-.283 1.615-.283.444 0 .845.062 1.224.157l2.225-3.867c.385-.67 1.218-.778 1.79-.377.404-.11.835-.187 1.317-.187 2.185 0 3.576 1.225 4.2 2.792l.008-.002c.315 0 .602.04.885.09l1.332-2.316c.483-.837 1.688-.837 2.17 0l.255.442c.903 1.568 2.572 2.532 4.377 2.53h.03c.334 0 .64.038.938.09l1.762-3.062c.483-.837 1.687-.837 2.17 0l2.228 3.872c.093-.003.174-.026.27-.026h.027c1.622.003 3.12-.86 3.93-2.27l.907-1.576c.484-.837 1.688-.837 2.17 0l2.328 4.043c.173-.016.333-.05.516-.05h.02c1.362.002 2.618-.723 3.298-1.904l1.2-2.09c.484-.837 1.69-.837 2.172 0l2.595 4.512c.484.837 1.69.837 2.172 0l2.063-3.585c.426.087.88.135 1.364.135h.018c1.194 0 2.296.635 2.892 1.672l1.024 1.778c.675-.43 1.5-.706 2.505-.706.023 0 .043.007.066.007l2.194-3.813c.483-.837 1.688-.837 2.17 0l1.195 2.076c.57.99 1.64 1.586 2.776 1.51.12-.006.24-.01.365-.01.327 0 .626.04.917.09l1.82-3.16c.562.166 1.16.285 1.84.285.362 0 .69-.05 1.018-.1l1.762 3.06c.13-.008.245-.036.38-.036.32 0 .62.028.902.08.935.173 1.873-.234 2.35-1.06l1.573-2.734c.48-.837 1.686-.837 2.17 0l2.596 4.512c.482.837 1.686.837 2.17 0l2.596-4.512.074-.025c.684.318 1.483.5 2.382.526l1.894 3.292c.432-.126.892-.216 1.412-.216.58 0 1.09.11 1.558.264l2.212-3.84c.48-.837 1.686-.837 2.17 0l.736 1.28c.578 1.003 1.674 1.655 2.818 1.52.192-.022.392-.034.598-.034.55 0 1.03.1 1.48.238l1.73-3.004c.482-.837 1.688-.837 2.17 0l2.18 3.788c.253-.037.506-.078.784-.078h.024c1.383.004 2.662-.736 3.355-1.94l1.02-1.77c.48-.837 1.688-.837 2.17 0l2.596 4.512c.482.837 1.688.837 2.17 0l1.985-3.45c.42.088.87.136 1.35.136.057 0 .116-.002.175-.004 1.153-.034 2.238.513 2.815 1.516l.745 1.292c.492-.173 1.03-.292 1.646-.292.43 0 .822.06 1.192.146l1.01-1.755.094.163c.355.615.945 1.057 1.627 1.248l.032.01 3.105-1.267 1.297-2.253c.482-.837 1.688-.837 2.17 0l2.04 3.543c.318-.065.658-.102 1.022-.102.184 0 .365.01.54.028 1.047.105 2.044-.485 2.57-1.4l.086-.15c.516-.895 1.336-1.61 2.337-1.852.213-.05.417-.112.614-.183l.322.117 2.596 4.512c.48.837 1.688.837 2.17 0l2.497-4.337c.495.125 1.023.212 1.606.212.297 0 .562-.05.837-.084l2.123 3.69c.485-.167 1.01-.283 1.615-.283.444 0 .845.062 1.224.157l2.225-3.867c.385-.67 1.218-.778 1.79-.377.404-.11.835-.187 1.317-.187 2.187 0 3.576 1.225 4.2 2.792l.008-.002c.315 0 .604.04.887.09l1.33-2.316c.483-.837 1.688-.837 2.17 0l.255.442c.903 1.568 2.572 2.532 4.377 2.53h.03c.334 0 .64.038.938.09l1.762-3.062c.483-.837 1.687-.837 2.17 0l2.228 3.872c.093-.003.174-.026.27-.026h.027c1.622.003 3.12-.86 3.93-2.27l.907-1.576c.484-.837 1.688-.837 2.17 0l2.328 4.043c.173-.016.333-.05.516-.05h.02c1.362.002 2.618-.723 3.298-1.904l1.2-2.09c.484-.837 1.69-.837 2.172 0l2.595 4.512c.484.837 1.69.837 2.172 0l2.063-3.585c.426.087.88.135 1.364.135h.018c1.194 0 2.297.635 2.892 1.672l1.024 1.778c.675-.43 1.5-.706 2.505-.706.023 0 .043.007.066.007l2.194-3.813c.483-.837 1.688-.837 2.17 0l1.196 2.076c.57.99 1.638 1.586 2.775 1.51.12-.006.24-.01.365-.01.327 0 .626.04.917.09l1.82-3.16c.562.166 1.16.285 1.84.285.362 0 .69-.05 1.018-.1l1.762 3.06c.13-.008.245-.036.38-.036.32 0 .62.028.904.08.933.173 1.87-.234 2.347-1.06l1.574-2.734c.48-.837 1.686-.837 2.17 0l2.596 4.512c.482.837 1.686.837 2.17 0l2.596-4.512.074-.025c.684.318 1.483.5 2.382.526l1.894 3.292c.432-.126.892-.216 1.412-.216.58 0 1.09.11 1.558.264l2.212-3.84c.48-.837 1.686-.837 2.17 0l.736 1.28c.578 1.003 1.674 1.655 2.818 1.52.192-.022.392-.034.598-.034.55 0 1.03.1 1.48.238l1.73-3.004c.482-.837 1.688-.837 2.17 0l2.18 3.788c.253-.037.506-.078.784-.078h.024c1.383.004 2.662-.736 3.355-1.94l1.02-1.77c.48-.837 1.688-.837 2.17 0l2.596 4.512c.482.837 1.688.837 2.17 0l1.985-3.45c.42.088.87.136 1.35.136.057 0 .116-.002.175-.004 1.153-.034 2.238.513 2.815 1.516l.745 1.292c.492-.173 1.03-.292 1.646-.292.43 0 .822.06 1.192.146l1.01-1.755.094.163c.355.615.945 1.057 1.627 1.248l.032.01 3.105-1.267 1.297-2.253c.482-.837 1.688-.837 2.17 0l2.04 3.543c.318-.065.658-.102 1.022-.102.184 0 .365.01.54.028 1.045.105 2.044-.485 2.57-1.4l.086-.15c.516-.895 1.336-1.61 2.337-1.852.213-.05.417-.112.614-.183l.322.117 2.596 4.512c.48.837 1.688.837 2.17 0l2.497-4.337c.495.125 1.023.212 1.606.212.297 0 .562-.05.837-.084l2.123 3.69c.485-.167 1.01-.283 1.615-.283.444 0 .845.062 1.224.157l2.225-3.867c.385-.67 1.218-.778 1.79-.377.404-.11.835-.187 1.317-.187 2.187 0 3.576 1.225 4.2 2.792l.008-.002c.315 0 .604.04.887.09l1.33-2.316c.483-.837 1.688-.837 2.17 0l.255.442c.903 1.568 2.572 2.532 4.377 2.53h.03c.334 0 .64.038.938.09l1.762-3.062c.483-.837 1.687-.837 2.17 0l2.228 3.872c.093-.003.174-.026.27-.026h.027c1.622.003 3.12-.86 3.93-2.27l.907-1.576c.484-.837 1.688-.837 2.17 0l2.328 4.043c.173-.016.333-.05.516-.05h.02c1.362.002 2.618-.723 3.298-1.904l1.2-2.09c.484-.837 1.69-.837 2.172 0l2.595 4.512c.484.837 1.69.837 2.172 0l2.063-3.585c.426.087.88.135 1.364.135h.018c1.194 0 2.297.635 2.892 1.672l1.024 1.778c.675-.43 1.5-.706 2.505-.706.023 0 .043.007.066.007l2.194-3.813c.483-.837 1.688-.837 2.17 0l1.196 2.076c.57.99 1.638 1.586 2.775 1.51.12-.006.24-.01.365-.01.327 0 .626.04.917.09l1.82-3.16c.562.166 1.16.285 1.84.285.362 0 .69-.05 1.018-.1l1.762 3.06c.13-.008.245-.036.38-.036.32 0 .62.028.904.08.933.173 1.87-.234 2.347-1.06l1.574-2.734c.48-.837 1.686-.837 2.17 0l2.596 4.512c.482.837 1.686.837 2.17 0l2.596-4.512.074-.025c.684.318 1.483.5 2.382.526l1.894 3.292c.432-.126.892-.216 1.412-.216.58 0 1.09.11 1.558.264l2.212-3.84c.48-.837 1.686-.837 2.17 0l.736 1.28c.578 1.003 1.674 1.655 2.818 1.52.192-.022.392-.034.598-.034.55 0 1.03.1 1.48.238l1.73-3.004c.482-.837 1.688-.837 2.17 0l2.18 3.788c.253-.037.506-.078.784-.078h.024c1.383.004 2.662-.736 3.355-1.94l1.02-1.77c.48-.837 1.688-.837 2.17 0l2.596 4.512c.482.837 1.688.837 2.17 0l1.985-3.45c.42.088.87.136 1.35.136.057 0 .116-.002.175-.004 1.153-.034 2.238.513 2.815 1.516l.745 1.292c.492-.173 1.03-.292 1.646-.292.43 0 .822.06 1.192.146l1.51-2.624.594 1.03c.355.616.945 1.058 1.627 1.25l.032.007 3.105-1.267 1.297-2.253c.482-.837 1.688-.837 2.17 0l2.04 3.543c.318-.065.658-.102 1.022-.102.184 0 .363.01.54.028 1.045.105 2.042-.485 2.57-1.4l.086-.15c.516-.895 1.336-1.61 2.337-1.852.213-.05.417-.112.614-.183l.322.117 2.596 4.512c.48.837 1.688.837 2.17 0l2.497-4.337c.495.125 1.023.212 1.606.212.297 0 .562-.05.837-.084l2.123 3.69c.485-.167 1.01-.283 1.615-.283.444 0 .845.062 1.224.157l2.225-3.867c.385-.67 1.217-.778 1.79-.377.404-.11.835-.187 1.317-.187 2.185 0 3.576 1.225 4.2 2.792l.008-.002c.315 0 .602.04.887.09l1.33-2.316c.483-.837 1.688-.837 2.17 0l.255.442c.903 1.568 2.572 2.532 4.377 2.53h.03c.334 0 .64.038.938.09l1.762-3.062c.483-.837 1.687-.837 2.17 0l2.228 3.872c.093-.003.174-.026.27-.026h.027c1.622.003 3.12-.86 3.93-2.27l.907-1.576c.484-.837 1.688-.837 2.17 0l2.328 4.043c.173-.016.333-.05.516-.05h.02c1.362.002 2.618-.723 3.298-1.904l1.2-2.09c.484-.837 1.69-.837 2.172 0l2.595 4.512c.484.837 1.69.837 2.172 0l2.063-3.585c.426.087.88.135 1.364.135h.018c1.194 0 2.296.635 2.892 1.672l1.024 1.778c.675-.43 1.5-.706 2.505-.706.023 0 .043.007.066.007l2.194-3.813c.483-.837 1.688-.837 2.17 0l1.195 2.076c.57.99 1.64 1.586 2.776 1.51.12-.006.24-.01.365-.01.327 0 .626.04.917.09l1.82-3.16c.562.166 1.16.285 1.84.285.362 0 .69-.05 1.018-.1l1.762 3.06c.13-.008.245-.036.38-.036.32 0 .62.028.902.08.935.173 1.873-.234 2.35-1.06l1.573-2.734c.48-.837 1.686-.837 2.17 0l2.596 4.512c.482.837 1.686.837 2.17 0l2.596-4.512.074-.025c.684.318 1.483.5 2.382.526l1.894 3.292c.432-.126.892-.216 1.412-.216.58 0 1.09.11 1.558.264l2.212-3.84c.48-.837 1.686-.837 2.17 0l.736 1.28c.578 1.003 1.674 1.655 2.818 1.52.192-.022.392-.034.598-.034.55 0 1.03.1 1.48.238l1.73-3.004c.482-.837 1.688-.837 2.17 0l2.18 3.788c.253-.037.506-.078.784-.078h.024c1.383.004 2.662-.736 3.355-1.94l1.02-1.77c.48-.837 1.688-.837 2.17 0l2.596 4.512c.482.837 1.688.837 2.17 0l1.985-3.45c.42.088.87.136 1.35.136.057 0 .116-.002.175-.004 1.153-.034 2.238.513 2.815 1.516l.745 1.292c.492-.173 1.03-.292 1.646-.292.43 0 .822.06 1.192.146l1.01-1.755.094.163c.355.615.945 1.057 1.627 1.248l.032.01 3.105-1.267 1.297-2.253c.482-.837 1.688-.837 2.17 0l2.04 3.543c.318-.065.658-.102 1.022-.102.184 0 .365.01.54.028 1.047.105 2.044-.485 2.57-1.4l.086-.15c.516-.895 1.336-1.61 2.337-1.852.213-.05.417-.112.614-.183l.322.117 2.596 4.512c.48.837 1.688.837 2.17 0l2.497-4.337c.495.125 1.023.212 1.606.212.297 0 .562-.05.837-.084l2.123 3.69c.485-.167 1.01-.283 1.615-.283.444 0 .845.062 1.224.157l2.225-3.867c.385-.67 1.218-.778 1.79-.377.404-.11.835-.187 1.317-.187 2.187 0 3.576 1.225 4.2 2.792l.008-.002c.315 0 .604.04.887.09l1.33-2.316c.483-.837 1.688-.837 2.17 0l.255.442c.903 1.568 2.572 2.532 4.377 2.53h.03c.334 0 .64.038.938.09l1.762-3.062c.483-.837 1.687-.837 2.17 0l2.228 3.872c.093-.003.174-.026.27-.026h.027c1.622.003 3.12-.86 3.93-2.27l.907-1.576c.484-.837 1.688-.837 2.17 0l2.328 4.043c.173-.016.333-.05.516-.05h.02c1.362.002 2.618-.723 3.298-1.904l1.2-2.09c.484-.837 1.69-.837 2.172 0l2.595 4.512c.484.837 1.69.837 2.172 0l2.063-3.585c.426.087.88.135 1.364.135h.018c1.194 0 2.297.635 2.892 1.672l1.024 1.778c.675-.43 1.5-.706 2.505-.706.023 0 .043.007.066.007l2.194-3.813c.483-.837 1.688-.837 2.17 0l1.196 2.076c.57.99 1.638 1.586 2.775 1.51.12-.006.24-.01.365-.01.327 0 .626.04.917.09l1.82-3.16c.562.166 1.16.285 1.84.285.362 0 .69-.05 1.018-.1l1.762 3.06c.13-.008.245-.036.38-.036.32 0 .62.028.904.08.933.173 1.87-.234 2.347-1.06l1.574-2.734c.48-.837 1.686-.837 2.17 0l2.596 4.512c.482.837 1.686.837 2.17 0l2.596-4.512.074-.025c.684.318 1.483.5 2.382.526l1.894 3.292c.432-.126.892-.216 1.412-.216.58 0 1.09.11 1.558.264l2.212-3.84c.48-.837 1.686-.837 2.17 0l.736 1.28c.578 1.003 1.674 1.655 2.818 1.52.192-.022.392-.034.598-.034.55 0 1.03.1 1.48.238l1.73-3.004c.482-.837 1.688-.837 2.17 0l2.18 3.788c.253-.037.506-.078.784-.078h.024c1.383.004 2.662-.736 3.355-1.94l1.02-1.77c.48-.837 1.688-.837 2.17 0l2.596 4.512c.482.837 1.688.837 2.17 0l1.985-3.45c.42.088.87.136 1.35.136.057 0 .116-.002.175-.004 1.153-.034 2.238.513 2.815 1.516l.745 1.292c.492-.173 1.03-.292 1.646-.292.43 0 .822.06 1.192.146l3.137-5.45c.11-.19.166-.407.166-.628V.04h-169.293z" id="Fill-1" fill="#FFF"/></g></svg>