<?xml version="1.0" encoding="utf-8"?>
<!-- Generator: Adobe Illustrator 19.2.1, SVG Export Plug-In . SVG Version: 6.00 Build 0)  -->
<svg version="1.1" id="Layer_1" xmlns="http://www.w3.org/2000/svg" xmlns:xlink="http://www.w3.org/1999/xlink" x="0px" y="0px"
	 viewBox="0 0 340.2 340.2" style="enable-background:new 0 0 340.2 340.2;" xml:space="preserve">
<style type="text/css">
	.st0{fill:none;stroke:#1E3954;stroke-miterlimit:10;}
	.st1{fill-rule:evenodd;clip-rule:evenodd;fill:#010101;}
	.st2{fill-rule:evenodd;clip-rule:evenodd;fill:#1E3954;}
	.st3{fill:#1E3954;}
</style>
<g>
	<g>
		<path class="st0" d="M52.7,204.6"/>
	</g>
	<g>
		<path class="st1" d="M218.2,282.3c0,0-0.1,0.1-0.2,0.1c0-0.1-0.1-0.2-0.1-0.2c0-0.1,0.1-0.2,0.2-0.2
			C218,282,218.1,282.1,218.2,282.3z"/>
	</g>
	<path class="st2" d="M253.2,147.7c0-1.7,0-3.4,0-5.2c-2.8,0.1-5.5,0.2-8.3,0.2c-0.7,1.4-2,2.5-3.6,2.7c0.1,0.7,0.1,1.4,0,2.2
		c0,0.1,0,0.2,0,0.4c0.1,0.1,0.2,0.4,0.2,0.9c0,0,0,0.1,0,0.1c0.2,0.3,0.1,0.7,0.1,1.1c0,0.2,0.1,1.3,0.1,1.7c0,0.6,0.1,1.1,0.1,1.7
		c0,0.1,0,0.3,0,0.4c0.2-0.1,0.3,0,0.3,0.2c0-0.2,0.1-0.2,0.1-0.3c0.7-0.1,1.4-0.3,2.1-0.5c1-0.3,1.9-0.3,2.9,0c0,0,0,0,0.1,0
		c0.5-0.1,1.1-0.2,1.6-0.2c0.1-0.1,0.3-0.3,0.4-0.4c0.5-0.7,1-0.5,1.6-0.4c0.2,0,1.6-0.4,2.2-0.5
		C253.2,149.9,253.2,148.5,253.2,147.7z"/>
	<path class="st2" d="M240.4,151.6c0-0.3,0.2-1.5,0.2-1.8c0-0.5-0.1-1-0.1-1.5c0-0.6,0.1-1.3,0.2-1.9c0-0.3,0-0.6,0-0.8c0,0,0,0,0,0
		h-8.3c-1.7,0-3.2-0.9-4-2.3c-2.8,0.1-5.6,0.2-8.4,0.2c-8.8,0.2-17.5,0.2-26.2,0.2c-5.4,0-26.8-0.6-32.1-0.5c-9,0-17.7,0.3-26.8,0.2
		c-5.3-0.1-10.7-0.2-16-0.3c-2.8,0-5.5,0.1-8.3,0.1c-0.8,1.4-2.3,2.4-4.1,2.4h-8.3c-1.7,0-3.1-0.9-4-2.2c-2.3,0.1-4.6,0.1-6.9,0.2
		c-0.1,0-0.3,0-0.5,0v11.6c0.3,0.1,0.7,0.2,1,0.4c0.4,0.3,0.9,0.2,1.3-0.6c0.4-0.7,0.7-0.4,1.1-0.4c0.1,0,1.2-0.4,1.6-0.4
		c0.5-0.1,1.1-0.2,1.6-0.4c0.4-0.1,0.8-0.1,1.2-0.5c0.1-0.2,0.3,0.1,0.5,0.1c0.2,0,0.3,0,0.5,0.4c0.1,0.2,0.2,0.4,0.2,0.5
		c0.2,0.2,0.3-0.1,0.5,0c0.1,0.1,0.1,0.3,0.2,0.6c0-1.2,0-2.5,0.1-3.7c0.2-6.1,1-4.3,1,0.8c0,1.7,0,3.3,0,5c1.2,0,2.4,0.1,3.1,0.2
		c1.3,0.2,2.6,0.4,4,0.8c1.4,0.5,2.9,1.3,4,2.7c0.8,1,1.3,2.2,1.6,3.4c0.2,1.2,0.3,2.4,0.2,3.7c-0.1,1-0.7,1.9-1.1,2.7
		c-0.5,0.9-1.2,1.7-2.1,2.1c-0.4,0.1-0.8,0.2-1.2,0.3c-0.7,0.3-1.2,1-1.9,1.3c-0.3,0.1-0.6,0.1-0.8-0.1c0,0.1-0.1,0.2-0.1,0.3
		c0,0.3-0.4,0.4-0.5,0.6c-0.2,0.2-0.4,0.5-0.9,0.5c-0.1,0-0.1,0-0.2,0c0,0.1,0.1,0.1,0.1,0.2c0.5,0.8,1.1,1.5,1.9,2.1
		c0.8,0.5,1.7,1,2.6,1.1c0.5,0.1,0.9,0.1,1.4,0.2c0.4,0,0.7,0,1.1,0c5.3,0,10.7-0.1,16-0.1c4.1,0,10.6-0.1,17.6-0.2
		c1.3-0.2,2.5-0.3,3.8-0.5c2.9-0.3,5.8-0.7,8.7-1c2.2-0.2,4.4-0.2,6.6-0.2c1.4,0,6.7,0.6,8,0.5c2.2,0,4.4-0.3,6.7-0.2
		c2.8,0.1,5.7,0.5,8.6,0.7c2.7,0.2,5.5,0.2,8.2,0.4c0.1,0,0.2,0,0.2,0c4.8,0,9.5-0.2,13.9-0.5c6-0.4,12.1-0.6,18.5-0.7
		c1.6,0,3.2,0,4.8-0.1c0.4,0,0.8,0,1.1,0c0.1-0.1,0.3-0.2,0.4-0.3c0.7-0.6,1.3-1.1,1.8-1.6c0.1-0.2,0.5-0.5,0.8-0.8
		c0.3-0.3,0.5-0.8,0.4-1c0-0.7-0.5-1.3-0.9-2.2c-0.1-0.3-0.3-0.7-0.4-1c-0.3-0.2-0.5-0.4-0.8-0.6c-0.8-0.8-1.6-1.6-2.2-2.7
		c-0.6-1-1.1-2.3-1.2-3.7c-0.1-1.1,0.2-2.4,0.9-3.6c0.8-1.2,1.9-1.9,2.8-2.3c0.3-0.1,0.8-0.3,1.4-0.4c0.6-0.1,1.1-0.2,1.7-0.3
		c1.2-0.2,2.4-0.2,2.8-0.3c0.3,0,0.5-0.1,0.8-0.2c0,0,0,0,0,0c0.1-0.1,0.3-0.4,0.4-0.6c0.1-0.2,0.1-0.3,0.1-0.4c0-0.1,0-0.2,0-0.2
		c0,0,0,0,0-0.1c0.1-0.1,0.1-0.1,0.1-0.2c-0.1-0.6-0.2-1.3-0.3-1.9C240.4,152.5,240.4,152,240.4,151.6z M116.8,170.7
		c0,0-0.1,0.1-0.1,0.1c-0.1,0.1-0.6,0.4-1,0.4c-0.2,0-0.3,0-0.4-0.2c-0.3-0.3-0.6-0.7-0.8-1l-0.2-0.3c-0.1-0.2-0.1-0.4,0-0.6
		c0.1-0.1,0.2-0.3,0.2-0.4c0.2-0.4,0.4-0.7,0.8-0.5c0.6,0.2,1.1,0.4,1.6,0.8c0.3,0.2,0.5,0.5,0.5,0.8
		C117.3,170.2,117,170.5,116.8,170.7z M117.4,165.1c0,0.1,0,0.2,0,0.2c0,0.3-0.1,0.6-0.3,0.9c0,0.1-0.1,0.2-0.1,0.3
		c-0.1,0.2-0.2,0.3-0.4,0.3c0,0-0.1,0-0.1,0c-0.1,0-0.3-0.1-0.4-0.2l-1.5-1.6c-0.1-0.1-0.1-0.3-0.1-0.4c0-0.1,0.1-0.3,0.3-0.3
		c0.2-0.1,0.3-0.2,0.4-0.3c0.3-0.2,0.5-0.3,0.8-0.4c0.4,0,0.8,0.1,1,0.3C117.5,164.3,117.4,164.8,117.4,165.1z M120.9,168.6
		l-0.4,0.2c-0.1,0-0.2,0.1-0.3,0.1c-0.1,0-0.3,0-0.3-0.1l-0.3-0.3c-0.1-0.1-0.2-0.3-0.1-0.4c0-0.2,0.1-0.3,0.3-0.4l0.1-0.1
		c0.1-0.1,0.3-0.2,0.5-0.2c0.3-0.1,0.6,0.2,0.7,0.3c0.1,0.1,0.2,0.3,0.2,0.4C121.2,168.4,121.1,168.5,120.9,168.6z M130.7,168.2
		c-0.1,0.1-0.3,0.2-0.4,0.2c0,0,0,0-0.1,0c-0.2,0-0.3-0.1-0.4-0.2l-0.1-0.1c-0.1-0.1-0.2-0.3-0.2-0.5c-0.1-0.3,0.2-0.6,0.3-0.7
		c0.1-0.1,0.3-0.2,0.5-0.2c0.2,0,0.3,0.1,0.4,0.2l0.1,0.1c0.1,0.1,0.2,0.3,0.2,0.5C131.1,167.9,130.8,168.1,130.7,168.2z
		 M135.2,167.5c-0.1,0.1-0.3,0.2-0.4,0.2c0,0,0,0-0.1,0c-0.2,0-0.3-0.1-0.4-0.2l-0.3-0.5c-0.1-0.2-0.1-0.4,0.1-0.6l0.3-0.3
		c0.1-0.1,0.3-0.2,0.4-0.1c0.2,0,0.3,0.1,0.4,0.3l0.1,0.1c0.1,0.1,0.2,0.3,0.2,0.5C135.6,167.1,135.3,167.4,135.2,167.5z
		 M137.6,168.7l-0.1,0.1c-0.1,0.1-0.3,0.2-0.5,0.2c0,0-0.1,0-0.1,0c-0.3,0-0.4-0.2-0.5-0.3c-0.1-0.1-0.2-0.3-0.2-0.4
		c0-0.2,0.1-0.3,0.2-0.4l0.5-0.3c0.2-0.1,0.4-0.1,0.6,0.1l0.3,0.3c0.1,0.1,0.2,0.3,0.1,0.4C137.9,168.5,137.8,168.7,137.6,168.7z
		 M138.5,164.7l-0.3,0.5c-0.1,0.1-0.2,0.2-0.4,0.3c0,0,0,0-0.1,0c-0.1,0-0.3-0.1-0.4-0.1c-0.2-0.2-0.4-0.4-0.4-0.7
		c0-0.2,0.1-0.3,0.2-0.5l0.1-0.1c0.1-0.1,0.2-0.2,0.4-0.3c0.2,0,0.3,0,0.4,0.1l0.3,0.3C138.6,164.2,138.6,164.5,138.5,164.7z
		 M140.5,167.3l-0.1,0.1c-0.1,0.1-0.2,0.2-0.4,0.3c0,0-0.1,0-0.1,0c-0.1,0-0.3-0.1-0.4-0.1l-0.3-0.3c-0.2-0.2-0.2-0.4-0.1-0.6
		l0.3-0.5c0.1-0.1,0.2-0.2,0.4-0.2c0.1,0,0.3,0,0.4,0.1c0.2,0.2,0.4,0.4,0.4,0.7C140.7,167,140.6,167.1,140.5,167.3z M144.2,168.2
		c-0.1,0.1-0.3,0.2-0.4,0.2c0,0,0,0-0.1,0c-0.2,0-0.3-0.1-0.4-0.2l-0.3-0.5c-0.1-0.2-0.1-0.4,0.1-0.6l0.2-0.2
		c0.1-0.1,0.3-0.2,0.5-0.2c0.2,0,0.3,0.1,0.4,0.2l0.1,0.1c0.1,0.1,0.2,0.3,0.2,0.5C144.6,167.9,144.3,168.1,144.2,168.2z
		 M146.7,168.6l-0.3,0.3c-0.1,0.1-0.2,0.1-0.4,0.1c-0.1,0-0.2,0-0.2-0.1l-0.5-0.3c-0.1-0.1-0.2-0.2-0.3-0.4s0-0.3,0.1-0.4
		c0.2-0.2,0.4-0.4,0.7-0.4c0.2,0,0.4,0.1,0.5,0.2l0.1,0.1c0.1,0.1,0.2,0.2,0.3,0.4C146.9,168.4,146.8,168.5,146.7,168.6z
		 M151.9,164.7l-0.3,0.5c-0.1,0.1-0.2,0.2-0.4,0.3c0,0,0,0-0.1,0c-0.1,0-0.3-0.1-0.4-0.1c-0.2-0.2-0.4-0.4-0.4-0.7
		c0-0.2,0.1-0.3,0.2-0.5l0.1-0.1c0.1-0.1,0.2-0.2,0.4-0.3c0.2,0,0.3,0,0.4,0.1l0.3,0.3C152,164.2,152,164.5,151.9,164.7z M153.8,155
		c-4.3,0.1-8.7,0.2-13,0.4c-3.2,0.1-6.5,0.1-9.6,0.5c-1.3,0.2-2.6-0.1-3.9-0.1c-1.4,0-2.8,0-4.1-0.5c-0.6-0.2-1.1-0.4-1.7-0.6
		c-1.2-0.3-2.4,0.1-3.6-0.1c-2-0.2-1.4-2.2,0.3-2.3c4.1-0.3,8.2-0.7,12.4-1c4.8-0.3,9.7-0.7,14.5-1c3.7-0.2,7.3-0.2,11-0.2
		c2.3,0,11.2,0.6,13.4,0.5c3.8,0,7.4-0.3,11.2-0.2c4.7,0.1,9.6,0.5,14.3,0.7c4.6,0.2,9.1,0.2,13.7,0.4c1.9,0.1,3.9,0.1,5.8,0.2
		c0.2,0,0.4,0,0.5,0.1c0.2,0.8-0.1,1.1-0.9,1.1c-3.9,0.1-7.8,0.3-11.7,0.5c-5.7,0.3-11.5,0.3-17.4-0.1c-3.4-0.3-6.7-0.1-9.8,0.7
		c-2.7,0.7-5.7,0.5-8.6,0.4C165.4,154.5,156.9,155,153.8,155z M162.2,166.6c-0.1,0.1-0.2,0.1-0.4,0.2c0,0,0,0,0,0
		c0,0.1-0.1,0.3-0.2,0.4l-0.4,0.4c-0.1,0.1-0.2,0.1-0.3,0.1c-0.1,0-0.3,0-0.3-0.1l-0.1-0.1c-0.1-0.1-0.4-0.4-0.2-0.8
		c0.1-0.2,0.2-0.3,0.3-0.4l0.1-0.1c0.1-0.1,0.2-0.1,0.3-0.2c0-0.1,0.1-0.2,0.2-0.3l0.4-0.3c0.1-0.1,0.3-0.1,0.5-0.1
		c0.2,0,0.3,0.2,0.3,0.3l0,0.1C162.4,165.9,162.5,166.3,162.2,166.6z M217.6,168.6c-2.2,0.3-4.4,0.7-6.6,1c-2.6,0.3-5.2,0.7-7.8,1
		c-2,0.2-3.9,0.2-5.9,0.2c-1.2,0-6-0.6-7.2-0.5c-2,0-4,0.3-6,0.2c-2.5-0.1-5.1-0.5-7.7-0.7c-2.5-0.2-4.9-0.2-7.3-0.4
		c-1-0.1-2.1-0.1-3.1-0.2c-0.1,0-0.2,0-0.3-0.1c-0.1-0.8,0-1.1,0.5-1.1c2.1-0.1,4.2-0.3,6.3-0.5c3.1-0.3,6.1-0.3,9.3,0.1
		c1.8,0.3,3.6,0.1,5.3-0.7c1.4-0.7,3-0.5,4.6-0.4c0.6,0,5.2-0.4,6.8-0.5c2.3-0.1,4.6-0.2,7-0.4c1.7-0.1,3.5-0.1,5.1-0.5
		c0.7-0.2,1.4,0.1,2.1,0.1c0.7,0,1.5,0,2.2,0.5c0.3,0.2,0.6,0.4,0.9,0.6c0.6,0.3,1.3-0.1,2,0.1C218.8,166.5,218.5,168.4,217.6,168.6
		z"/>
	<g>
		<path class="st3" d="M284.8,152.5C284.7,152.5,284.7,152.5,284.8,152.5c0,0.1-0.1,0.1-0.1,0.2c0,0.2,0,0.3-0.1,0.5
			c0,0.2-0.1,0.4,0,0.6c0,0.1,0.2,0.2,0.3,0.3c0,0.1,0.2,0.4,0.2,0.5c0.1,0.1,0.2,0.2,0.4,0.2c0.2,0,0.4,0,0.6,0
			c0.2,0,0.3-0.1,0.5-0.2c0.1,0,0.1-0.6,0-0.7c0,0-0.1,0-0.1,0c0,0,0-0.1,0-0.2c0-0.1,0-0.1,0-0.1c0,0,0-0.1,0,0
			c-0.1,0.1-0.1,0-0.2,0.1c-0.1,0-0.2,0-0.3,0c-0.1,0-0.3-0.1-0.3-0.1c0-0.1,0-0.1-0.2-0.1c-0.2,0.1-0.3,0-0.3-0.1
			c0.1-0.2,0-0.3-0.1-0.4c-0.1-0.1-0.1-0.2-0.1-0.3C285.1,152.5,285,152.5,284.8,152.5z"/>
	</g>
	<g>
		<path class="st3" d="M74.9,138.7c-1.2,0-2.4,0.1-3.6,0.2c-1.6,0.1-3.2,0.3-4.8,0.4c-1.3,0.1-2.7,0.3-4.1,0.4
			c-0.5,0.1-0.7,0.6-0.1,0.7c0.4,0,0.8-0.1,1.2,0c0.2,0,0.4,0.1,0.5,0.1c0.4,0.1,0.9,0.1,1.4,0.1c0.4,0,0.9,0,1.3,0
			c1-0.1,2.1-0.2,3.2-0.2c1.4-0.1,2.9-0.2,4.3-0.3c1,0,3.8-0.3,4.2-0.3c1,0,2,0,2.8-0.2c1-0.3,2.1-0.3,3.2-0.3c2,0.1,3.9,0,5.7-0.2
			c0.9-0.1,1.8-0.1,2.7-0.2c0.3,0,0.7,0,1,0c0,0,0,0,0,0c0,0,0.1,0,0.1,0c0.3,0,0.3-0.1,0.3-0.3c-0.1,0-0.1,0-0.2,0c0,0,0,0,0,0
			c0.8-1.4,2.3-2.4,4.1-2.4h8.3c1.7,0,3.2,1,4.1,2.4c3.3-0.1,6.5-0.2,9.8-0.2c8.8-0.2,17.5-0.2,26.2-0.2c5.4,0,26.8,0.6,32.1,0.5
			c9,0,17.7-0.3,26.8-0.2c5.3,0.1,10.7,0.2,16,0.3c2.3,0,4.6-0.1,6.9-0.1c0.8-1.4,2.3-2.4,4.1-2.4h8.3c0.1,0,0.3,0,0.4,0
			c-0.1-6.1-0.2-12.3-0.3-18.4c0-0.1,0-0.1,0-0.2c-0.2-1.2-0.2-2.6-0.2-3.9c0-0.5-0.2-4.4-0.2-5.8c-0.1-2-0.1-3.9-0.2-5.9
			c-0.1-1.4,0-2.9-0.2-4.4c0-0.6,0-1.2,0-1.8c0-0.6,0-1.3,0.1-1.9c0.1-0.3,0.1-0.5,0.2-0.8c0.1-0.5,0-1.1,0-1.7c0-0.1,0-0.2,0.1-0.3
			c-0.1-4-0.1-8-0.2-12C240,70.8,240,62.4,240,54c0-0.6,0.1-1.9-0.1-1.8c0,0-0.1-0.1-0.2-0.1c0,0-0.1,0-0.1,0c0,0-0.1,0-0.2,0
			l-0.2,0c-0.6,0-1.3-0.1-2-0.1c-2.7-0.2-5.9-0.4-9.2-0.5c-0.4,0-0.9,0-1.3-0.1c-1.9,0.1-3.8,0.2-5.7,0.3c-6.5,0.3-13,0.7-19.5,1
			c-4.9,0.2-9.8,0.2-14.7,0.2c-3,0-15.1-0.5-18-0.5c-5,0-10,0.3-15,0.2c-6.4-0.1-12.8-0.5-19.2-0.7c-6.1-0.2-12.3-0.2-18.4-0.4
			c-2.6-0.1-5.2-0.1-7.8-0.2c-0.2,0-0.5,0-0.7-0.1c-0.1-0.3-0.1-0.5,0-0.7c-0.3-0.3,0.4-0.4,2.1-0.4c9,0.1,18.1,0.1,27-0.1
			c13.1-0.2,26.4-0.5,40.1-0.4c7.9,0,15.5-0.1,22.7-0.4c6.1-0.3,13-0.1,19.8,0.2c1.3,0,6.9,0.2,13,0.4c1.5,0.1,3.1,0.1,4.6,0.2
			c0.8,0,1.5,0.1,2.3,0.1l0.6,0c0.3,0,0.5,0.1,0.8,0.2c0.5,0.2,0.9,0.6,1.2,1.1c0.3,0.5,0.3,1.1,0.3,1.4c0,0.3,0,0.7,0,1
			c0,0.7,0,1.3,0,1.9c0,1.2,0,2.3,0,3.2c0.1,10,0.2,20,0.3,30c0.1,7.3,0.1,14.9,0.3,22.1c0.1,2.9,0,6,0,8.9c0,3.2,0,6.5-0.2,9.5
			c-0.1,1.3-0.2,2.5-0.2,3.8c0,1,0,2,0,3c1,0.3,1.9,1,2.5,1.9c0.2,0,0.3,0,0.5,0c1.1,0,2.2,0,3.2-0.1c1.2,0,2.3-0.1,3.4-0.1
			c0,0,0,0,0.1,0c0.3,0,0.6-0.1,0.8,0c0.1,0,0.3,0.1,0.4,0.2c0.3,0.1,0.6,0.1,0.9,0.1c0.3,0,0.6,0.1,0.9,0c0.7-0.1,1.5-0.1,2.2-0.1
			c1-0.1,2-0.1,3-0.1c0.7,0,2.6-0.1,2.9-0.1c0.7,0,1.3,0.1,2-0.1c0.7-0.2,1.5-0.3,2.2-0.2c1.3,0.1,2.7,0.1,4,0
			c0.9-0.1,1.8-0.1,2.7-0.1c0.2,0,0.2-0.1,0.2-0.3c0,0-0.1,0-0.1,0c-0.4,0-0.9,0-1.3-0.1c-1,0-2.1-0.1-3.1-0.1
			c-1.1-0.1-2.2-0.2-3.3-0.2c-0.9,0-1.7,0.1-2.5,0.1c-0.5,0-2.5-0.2-3.1-0.2c-0.8,0-1.7,0-2.5,0.1c-1.1,0.1-2.2,0.2-3.3,0.3
			c-0.5,0-1,0.1-1.5,0.1c0.1-12.6,0.1-25.1-0.5-36.5c-0.8-16.9-1-35-0.7-53.8c0-2,0.1-4,0.1-6.1c0-2.1-0.5-4.2-1.3-6
			c-1.7-3.8-5.1-6.8-9.1-8c-0.5-0.1-1-0.3-1.5-0.4c-0.5-0.1-1-0.2-1.5-0.2c-1.1-0.1-2.1-0.1-3-0.1c-2,0-4,0-6,0c-4,0-7.9,0-11.9,0
			c-15.6,0-31,0.1-46.4,0.2c-2,0.1-4,0.1-6,0.4c-0.9,0.2-1.8-0.1-2.7-0.1c-0.8,0-1.5,0-2.3-0.3c-17.9,0.1-35.9,0.3-54,0.4h-5.1
			c-8,0-14.4,6.4-14.4,14.4v64.3c0,0.5,0.1,1.1,0.1,1.6c0.1,1.9,0.1,4,0.5,5.9c0.2,0.8-0.1,1.6-0.1,2.4c0,0.8,0,1.7-0.5,2.5
			c0,0,0,0,0,0v20.6c-1.3,0-2.6-0.1-3.9,0c-1.2,0-2.5,0.1-3.7,0.2C78.6,138.8,75.7,138.7,74.9,138.7z M167.9,38.6
			c0.2-0.8,1-1.3,1.8-1.1c0.8,0.2,1.3,1,1.1,1.8c-0.2,0.8-1,1.3-1.8,1.1S167.7,39.4,167.9,38.6z M95.9,54.4c0-0.6,0-1.3,0.1-1.9
			c0-0.5,0.1-1.6,0.7-2.3c0.6-0.6,1.3-0.8,1.9-0.9c1.3-0.2,2.4-0.1,3.6,0c1.7,0.2,1.2,1-0.3,1c-0.9,0-1.9-0.1-2.7,0.1
			c-0.9,0.2-1.4,0.6-1.4,1.4c0,1.9,0,3.7,0,5.6c0.1,4.4,0.1,8.8,0.2,13.2c0,3.4,0,6.7,0.1,10c0,0.4,0,1,0,1.8
			c0.1,1.4,0.1,2.7,0.2,4.1c0.1,2.7,0.2,5.4,0.3,8.1c0.1,2.1,0.1,4.1,0.1,6.1c0,1.3-0.2,6.3-0.2,7.5c0,2.1,0.1,4.2,0.1,6.3
			c0,2.7-0.1,5.4-0.2,8c-0.1,2.6-0.1,5.1-0.1,7.7c0,0.1,0,0.3,0,0.4c0,1.2,0,2.3,0,3.5c0,0.2,0,0.3,0,0.5c-0.3,0.2-0.5-0.1-0.5-0.8
			c-0.1-3.6-0.2-7.2-0.4-10.7c-0.2-5.2-0.3-10.5-0.2-15.9c0.1-3.1-0.1-6.2-0.5-9c-0.3-2.4-0.3-5.2-0.3-7.8c0-1.1-0.3-8.8-0.3-11.7
			c0-4-0.1-7.9-0.1-11.9c0-2.9,0.1-5.9,0-8.8C95.8,56.8,95.9,55.6,95.9,54.4z"/>
		<path class="st3" d="M230.6,140.8c0.1-0.1,0.2-0.2,0.2-0.3c0-0.1,0.1-0.2,0.1-0.3c0-0.3,0.2-0.5,0.4-0.7c0.3-0.3,0.6-0.4,1.1-0.4
			c0.3,0,1.4-0.1,1.5-0.1c0.3,0,0.7,0.1,1-0.1c0.4-0.2,0.8-0.3,1.2-0.2c0.7,0.1,1.4,0.1,2.1,0c0.5-0.1,0.9-0.1,1.4-0.1
			c0.1,0,0.1-0.1,0.1-0.3c0,0,0,0-0.1,0c-0.2,0-0.5,0-0.7-0.1c-0.5,0-1.1-0.1-1.6-0.1c-0.6-0.1-1.1-0.2-1.7-0.2
			c-0.4,0-0.9,0.1-1.3,0.1c-0.3,0-1.3-0.2-1.6-0.2c-0.4,0-1,0-1.6,0.3c-0.7,0.4-1.1,1-1.3,1.7c-0.2,0.6-0.1,1.2,0.1,1.7
			c0.1,0.2,0.6,0.1,0.6-0.1c0-0.1-0.1-0.2,0-0.3C230.5,140.9,230.5,140.9,230.6,140.8z"/>
		<path class="st3" d="M104.1,137.3c-0.1,0-0.1-0.1-0.2-0.1c-0.2-0.1-0.3-0.1-0.5-0.1c-0.1,0-0.3-0.1-0.4,0
			c-0.3,0.1-0.7,0.1-1.1,0.1c-0.5,0.1-1,0.1-1.5,0.1c-0.4,0-1.4,0.2-1.5,0.3c-0.3,0-0.7,0.1-1,0.3c-0.3,0.3-0.6,0.5-1,0.6
			c-0.7,0.2-1.2,0.7-1.5,1.4c-0.2,0.4-0.3,0.9-0.3,1.3c0,0.1,0.1,0.1,0.3,0.1c0,0,0,0,0-0.1c0-0.2,0.1-0.4,0.2-0.6
			c0.2-0.4,0.5-0.8,0.8-1.1c0.4-0.3,0.9-0.5,1.3-0.6c0.4-0.1,0.7-0.3,1.1-0.4c0.2-0.1,1.2,0,1.4,0c0.4,0,0.8,0,1.2-0.1
			c0.6-0.1,1.1-0.2,1.7-0.3c0.5-0.1,1-0.2,1.4-0.4c0.2-0.1,0.1-0.6-0.1-0.6C104.4,137.2,104.3,137.3,104.1,137.3z"/>
		<path class="st3" d="M73.7,259c-2,0-3.8,0.8-5.1,2.2c-0.2,0.3-0.4,0.7-0.5,0.9c-0.3,0.5-0.5,1-0.7,1.6c-0.1,0.4-0.2,0.8-0.2,1.3
			c0,0.2-0.1,0.3-0.1,0.5c0,0.2,0,0.4-0.2,0.5c-0.1,0.1-0.1,0.1-0.2,0.2c-0.1,0.2,0,0.3,0,0.5c0,0.1-0.1,0.1-0.1,0.1
			c0.3,3.6,3.4,6.5,7.1,6.5c3.9,0,7.1-3.2,7.1-7.1S77.6,259,73.7,259z"/>
		<path class="st3" d="M92.9,259c-0.3,0.1-0.6,0.2-0.9,0.3c-0.7,0.3-1.4,0.5-2.1,0.7c-0.4,0.1-0.8,0.4-1,0.8
			c-0.2,0.3-0.5,0.5-0.8,0.7c-0.1,0.1-0.8,0.9-1.1,1.1c-0.4,0.4-0.7,0.8-0.9,1.3c-0.1,0.1-0.1,0.2-0.2,0.3c-0.2,0.6-0.3,1.2-0.3,1.9
			c0,3.9,3.2,7.1,7.1,7.1s7.1-3.2,7.1-7.1C99.9,262.2,96.8,259,92.9,259z"/>
		<path class="st3" d="M143,266.1c0,2.3,1.1,4.3,2.7,5.6c0,0,0,0,0,0c0.1,0,0.1,0.1,0.2,0.1c1.2,0.9,2.6,1.4,4.2,1.4
			c0.1,0,0.2,0,0.3,0c0-0.1,0.1-0.2,0.2-0.2c0.7-0.1,1.3-0.3,1.8-0.6c0.7-0.3,1.3-0.8,1.8-1.2c0.4-0.4,0.8-0.7,1.1-1.2
			c0.1-0.1,0.4-0.4,0.6-0.8c0.2-0.3,0.4-0.7,0.5-0.9c0.2-0.5,0.3-1.1,0.4-1.6c0.1-0.6,0.3-1.3,0.3-2c-0.6-3.3-3.5-5.8-7-5.8
			C146.2,259,143,262.1,143,266.1z"/>
		<path class="st3" d="M186.2,248.7c0-3.3-2.3-6.1-5.4-6.9c-0.3,0-0.7,0.1-1,0.1c-1,0-1.9,0-2.8,0c0,0,0,0-0.1,0
			c-0.5,0.1-0.9,0.3-1.3,0.6c0,0,0,0-0.1,0.1c-0.3,0.3-0.6,0.4-0.9,0.6c-1.6,1.3-2.7,3.3-2.7,5.6c0,3.9,3.2,7.1,7.1,7.1
			S186.2,252.7,186.2,248.7z"/>
		<path class="st3" d="M224.5,248.7c0-3.9-3.2-7.1-7.1-7.1c-0.5,0-1.1,0.1-1.6,0.2c-0.2,0.1-0.3,0.2-0.5,0.4
			c-0.3,0.3-0.8,0.5-1.2,0.7c-0.2,0.1-1.2,0.9-1.5,1.3c-0.4,0.5-0.8,1.1-1,1.7c-0.2,0.5-0.4,0.9-0.5,1.4c0,0.2-0.1,0.4-0.2,0.6
			c-0.1,0.2-0.1,0.4-0.3,0.6c-0.1,0.1-0.2,0.1-0.2,0.2c-0.1,0.1-0.1,0.3-0.1,0.4c0.2,3.8,3.3,6.7,7.1,6.7
			C221.3,255.9,224.5,252.7,224.5,248.7z"/>
		<path class="st3" d="M256,242c-0.2,0-1.4,0.1-1.8,0.2c-0.6,0.1-1.2,0.2-1.8,0.4c-0.2,0.1-0.4,0.1-0.6,0.2
			c-1.9,1.3-3.2,3.5-3.2,5.9c0,3.9,3.2,7.1,7.1,7.1c3.9,0,7.1-3.2,7.1-7.1c0-3.2-2.1-5.9-4.9-6.8c-0.2,0-0.5,0-0.7,0.1
			C256.8,242.1,256.4,242,256,242z"/>
		<path class="st3" d="M277,255.5c0-0.2,0.1-0.3,0.1-0.3c0.4-0.1,0.8-0.4,1.2-0.7c0.4-0.3,0.7-0.8,1-1.2c0.3-0.3,0.5-0.7,0.7-1
			c0.2-0.2,0.8-1,0.9-1.2c0.2-0.4,0.3-0.8,0.5-1.2c0.1-0.3,0.3-0.5,0.4-0.8c0-0.1,0-0.3,0-0.4c0-3.9-3.2-7.1-7.1-7.1
			s-7.1,3.2-7.1,7.1c0,3.9,3.2,7.1,7.1,7.1C275.6,255.9,276.3,255.7,277,255.5z"/>
		<path class="st3" d="M267.7,278.4c-0.7-0.1-1.4-0.2-2.1-0.4c-0.5-0.1-0.9,0-1.3,0.2c-0.3,0.2-0.7,0.2-1.1,0.3
			c-0.2,0-1.2,0.4-1.6,0.6c-0.5,0.2-1,0.5-1.5,0.9c-0.3,0.2-0.7,0.5-0.9,0.8c-0.1,0.1-0.2,0.2-0.3,0.3c-0.7,1.1-1.1,2.4-1.1,3.9
			c0,3.9,3.2,7.1,7.1,7.1s7.1-3.2,7.1-7.1C272.1,282,270.3,279.5,267.7,278.4z"/>
		<path class="st3" d="M212.2,261.6c-0.4-0.2-0.7-0.5-1-0.9c-0.1-0.1-1.2-0.9-1.6-1.1c-0.5-0.3-1.1-0.5-1.7-0.7c-0.1,0-0.3,0-0.4,0
			c-3.9,0-7.1,3.2-7.1,7.1s3.2,7.1,7.1,7.1s7.1-3.2,7.1-7.1c0-0.5,0-0.9-0.1-1.3c-0.4-0.7-0.8-1.4-1.2-2.1
			C213.1,262.1,212.7,261.8,212.2,261.6z"/>
		<path class="st3" d="M190.1,224.3c0,0.1-0.1,0.1-0.1,0.1c-0.5-0.1-1.1-0.1-1.6-0.1c-0.8,0.1-1.5,0.2-2.3,0.4
			c-0.5,0.1-0.9,0.3-1.1,0.7c-0.2,0.3-0.6,0.5-0.9,0.7c-0.1,0.1-0.9,0.9-1.2,1.2c-0.4,0.4-0.7,0.9-1,1.4c-0.1,0.2-0.2,0.4-0.4,0.6
			c-0.2,0.6-0.3,1.3-0.3,2c0,3.9,3.2,7.1,7.1,7.1c3.9,0,7.1-3.2,7.1-7.1C195.6,227.8,193.2,225,190.1,224.3z"/>
		<path class="st3" d="M188.4,273.2c3.9,0,7.1-3.2,7.1-7.1s-3.2-7.1-7.1-7.1c-1.1,0-2.1,0.2-3,0.7c-0.2,0.3-0.5,0.4-0.8,0.6
			c-0.1,0.1-0.9,0.9-1.1,1.3c-0.3,0.5-0.6,1-0.9,1.5c-0.2,0.4-0.4,0.8-0.5,1.2c0,0.2-0.2,0.3-0.2,0.5c-0.1,0.2-0.2,0.3-0.3,0.5
			c-0.1,0-0.2,0.1-0.2,0.1c0,0,0,0.1-0.1,0.1c0,0.3,0,0.5,0,0.8C181.3,270,184.5,273.2,188.4,273.2z"/>
		<path class="st3" d="M169.3,273.2c1.2,0,2.3-0.3,3.2-0.8c0.1-0.1,0.2-0.2,0.3-0.3c0.4-0.5,0.7-1,1.1-1.4c0.3-0.4,0.6-0.7,0.9-1
			c0.2-0.2,0.9-0.9,0.9-1.1c0.1-0.4,0.2-0.8,0.2-1.2c0.1-0.5,0.2-1.1,0.2-1.7c0-0.6-0.1-1.1-0.2-1.6c0-0.2-0.1-0.4-0.2-0.6
			c0,0,0,0,0-0.1c0.1,0,0.1-0.1,0.2-0.1c-1.1-2.5-3.6-4.3-6.5-4.3c-3.9,0-7.1,3.2-7.1,7.1S165.3,273.2,169.3,273.2z"/>
		<path class="st3" d="M124.3,268.4c1,2.8,3.6,4.8,6.7,4.8c3.5,0,6.5-2.6,7-6c0-0.5,0-0.9-0.1-1.3c-0.1-0.4-0.2-0.8-0.4-1.2
			c-0.1-0.3-0.6-1.4-0.8-1.7c-0.3-0.4-0.6-0.8-0.9-1.3c-0.4-0.5-0.7-1.1-1.1-1.6c-0.1-0.2-0.3-0.3-0.5-0.5c-1-0.5-2-0.8-3.2-0.8
			c-2.9,0-5.4,1.7-6.5,4.2c-0.1,0.3-0.2,0.6-0.3,0.9c0,0,0,0,0,0c-0.1,0.3-0.1,0.5-0.2,0.8c0,0.2,0,0.5,0.1,0.7c0.1,0.4,0,0.8,0,1.3
			C124.1,267,124.2,267.9,124.3,268.4z"/>
		<path class="st3" d="M169.3,238.3c3.9,0,7.1-3.2,7.1-7.1c0-1.3-0.4-2.6-1-3.6c0,0,0,0,0,0c-0.4-0.3-0.9-0.5-1.3-0.7
			c-0.5-0.3-1-0.6-1.5-0.9c-0.4-0.2-0.7-0.4-1-0.6c-0.1-0.1-0.3-0.2-0.6-0.3c-0.3-0.1-0.6-0.2-0.7-0.2c-0.4-0.1-0.8,0-1.3-0.1
			c-0.5-0.1-1.1-0.2-1.6-0.3c-0.2,0-0.3,0-0.5,0c-2.8,1-4.8,3.6-4.8,6.7c0,0.7,0.1,1.4,0.3,2c0,0,0,0,0,0c0.2,0.6,0.6,1.1,0.9,1.6
			c0.3,0.3,0.6,0.7,1,0.9c0.2,0.1,0.2,0.3,0.4,0.4c0.1,0.1,0.3,0.2,0.4,0.4c0,0.1,0.1,0.2,0.1,0.3c0.1,0.2,0.3,0.2,0.4,0.3
			c0.1,0.1,0.1,0.2,0,0.3C166.8,238,168,238.3,169.3,238.3z"/>
		<path class="st3" d="M147.5,224.6c-0.2,0.1-0.9,0.6-1.1,0.8c-0.4,0.3-0.8,0.6-1.1,0.9c-0.2,0.3-0.5,0.5-0.7,0.8
			c-0.1,0.1-0.2,0.2-0.3,0.3c-0.1,0.1-0.2,0.2-0.4,0.3c0,0,0,0,0,0c-0.6,1-0.9,2.3-0.9,3.5c0,3.6,2.7,6.6,6.2,7.1
			c0.1,0,0.1,0,0.2-0.1c0.4-0.2,0.7-0.1,1.1-0.1c0.2,0,1.2-0.2,1.6-0.2c0.2,0,0.5-0.1,0.7-0.1c2.6-1.1,4.4-3.6,4.4-6.6
			c0-3.9-3.2-7.1-7.1-7.1C149.2,224.1,148.3,224.3,147.5,224.6z"/>
		<path class="st3" d="M114.6,224.6c-0.3,0-0.8-0.1-1-0.1c-0.4-0.1-0.8-0.1-1.3,0c-0.3,0-0.6,0-0.9,0.1c-0.1,0-0.3,0-0.4,0
			c-0.1,0-0.3,0-0.4-0.1c0,0-0.1-0.1-0.1-0.1c-3.2,0.7-5.7,3.5-5.7,7c0,3.9,3.2,7.1,7.1,7.1s7.1-3.2,7.1-7.1
			C119,228.2,117.2,225.7,114.6,224.6z"/>
		<path class="st3" d="M87.2,235.4c0.2,0.1,0.3,0.3,0.5,0.5c0.2,0.2,0.4,0.3,0.5,0.5c0,0.1,0.1,0.2,0.1,0.3c1.2,1,2.8,1.6,4.5,1.6
			c2.7,0,5-1.4,6.2-3.6c0-0.1,0-0.1,0.1-0.2c0.1-0.2,0.4-1,0.5-1.2c0.1-0.4,0-0.7,0.1-1.1c0.1-0.5,0.2-0.9,0.2-1.4
			c0-0.5,0-0.9-0.1-1.4c0,0,0,0,0-0.1c-0.8-3.1-3.6-5.4-6.9-5.4c-2.2,0-4.1,1-5.4,2.5c0,0,0,0,0,0.1c-0.4,0.5-0.6,1.1-0.6,1.7
			c0,0.5-0.2,1-0.4,1.5c-0.1,0.2-0.4,1.7-0.4,2.3c-0.1,0.5,0,1,0.1,1.5c0.2,0.5,0.4,1,0.7,1.4C86.9,235.2,87,235.3,87.2,235.4z"/>
		<path class="st3" d="M90.4,248.7c0-0.3,0-0.6-0.1-0.9c0-0.2-0.1-0.3-0.1-0.5c-0.2-0.5-0.4-1-0.6-1.4c-0.2-0.3-0.3-0.7-0.5-1
			c0-0.1-0.2-0.4-0.3-0.7c-1.3-1.6-3.3-2.6-5.5-2.6c-2.7,0-5.1,1.5-6.3,3.7c0,0.1-0.1,0.1-0.1,0.2c-0.2,0.7-0.3,1.3-0.5,2
			c-0.1,0.4-0.1,0.8,0.2,1.2c0.2,0.3,0.2,0.6,0.2,1c0,0.1,0.3,1.1,0.5,1.4c0.2,0.5,0.4,0.9,0.7,1.4c0.2,0.3,0.3,0.7,0.6,1
			c0.1,0.1,0.1,0.3,0.2,0.4c0.1,0.1,0.2,0.3,0.1,0.5c0,0,0,0,0,0c1.2,0.9,2.7,1.5,4.4,1.5C87.2,255.9,90.4,252.7,90.4,248.7z"/>
		<path class="st3" d="M102.1,255.7c0.5,0,1-0.1,1.5-0.1c0.3,0,0.7-0.1,1.1-0.1c2.8-0.9,4.9-3.6,4.9-6.8c0-2.2-1-4.2-2.6-5.5
			c-0.5-0.2-1.1-0.4-1.6-0.5c-0.5-0.1-1-0.3-1.5-0.3c-0.3-0.1-1.5-0.4-1.9-0.3c-0.5,0-1,0.1-1.6,0.2c-0.5,0.1-1,0.1-1.5,0.3
			c-0.6,0.3-1.1,0.7-1.6,1.2c-0.2,0.2-0.4,0.4-0.5,0.5c-0.4,0.5-0.7,1-0.9,1.6c-0.2,0.4-0.4,0.8-0.4,1.3c0,0.2-0.1,0.3-0.2,0.5
			c-0.1,0.4-0.1,0.8-0.1,1.2c0,2.4,1.2,4.5,2.9,5.8c0.3,0.1,0.5,0.2,0.8,0.3c0.5,0.2,0.9,0.3,1.4,0.5
			C100.7,255.3,101.8,255.7,102.1,255.7z"/>
		<path class="st3" d="M121.3,242c-0.4,0.1-0.8,0.2-1.2,0.3c-0.3,0.1-1.3,0.3-1.5,0.4c-0.4,0.2-0.7,0.5-1.1,0.7
			c-0.5,0.3-1,0.5-1.4,0.8c-1,1.2-1.6,2.8-1.6,4.5c0,3.9,3.2,7.1,7.1,7.1c2.8,0,5.3-1.7,6.4-4.1c0-0.1,0-0.2,0-0.3
			c0-0.4,0.1-0.7,0.3-1.1c0.1-0.1,0.2-1.2,0.3-1.6c0-0.2,0.1-0.4,0.1-0.6c-0.2-3.3-2.7-5.9-5.8-6.5
			C122.4,241.8,121.8,241.9,121.3,242z"/>
		<path class="st3" d="M195.5,242.1C195.4,242.2,195.4,242.2,195.5,242.1c-0.2,0.4-0.5,0.4-0.8,0.6c-0.1,0-0.7,0.6-1,0.8
			c-0.3,0.3-0.6,0.6-0.9,0.9c-0.2,0.2-0.4,0.5-0.6,0.8c-0.1,0.1-0.2,0.2-0.3,0.3c-0.1,0.1-0.1,0.1-0.2,0.1c-0.5,0.9-0.7,2-0.7,3.1
			c0,3.6,2.7,6.6,6.2,7.1c0,0,0,0,0,0c0.6-0.2,1.2-0.4,1.8-0.7c0.7-0.3,1.4-0.6,2-0.9c0.5-0.3,0.9-0.5,1.3-0.8
			c0.1-0.1,0.5-0.3,0.8-0.5c0.3-0.2,0.6-0.5,0.7-0.7c0.3-0.4,0.5-0.9,0.7-1.4c0.3-0.6,0.6-1.3,0.7-2c0-0.1,0.1-0.3,0.1-0.4
			c-0.2-3.8-3.3-6.7-7.1-6.7C197.2,241.6,196.3,241.8,195.5,242.1z"/>
		<path class="st3" d="M236.3,241.6c-0.2,0-0.3,0-0.5,0c-0.3,0.1-0.7,0.2-0.9,0.3c-0.4,0.1-0.8,0.3-1.2,0.5
			c-0.3,0.2-0.6,0.3-0.9,0.5c-0.1,0.1-0.3,0.1-0.4,0.1c-0.1,0-0.2,0.1-0.4,0c-1.7,1.3-2.8,3.3-2.8,5.6c0,3.9,3.2,7.1,7.1,7.1
			c0.3,0,0.5,0,0.8,0c0.7-0.4,1.3-0.8,1.9-1.2c0.5-0.3,1-0.7,1.5-1c0.1-0.1,0.5-0.3,0.9-0.6c0.3-0.3,0.6-0.6,0.7-0.7
			c0.3-0.5,0.5-1,0.8-1.5c0.2-0.3,0.3-0.7,0.5-1.1c0-0.3,0.1-0.7,0.1-1c0-3.9-3.1-7-6.9-7.1C236.6,241.6,236.5,241.6,236.3,241.6z"
			/>
		<path class="st3" d="M267.8,259.6c-0.3-0.1-0.6-0.2-1-0.3c-0.3-0.1-0.6-0.2-0.9-0.2c-0.1,0-0.2,0.1-0.4,0.1
			c-0.3,0.2-0.6,0.1-0.9,0.1c-0.1,0-1,0.2-1.3,0.3c-0.4,0.1-0.8,0.3-1.3,0.5c-0.3,0.1-0.6,0.2-0.9,0.5c-0.1,0.1-0.3,0.1-0.4,0.1
			c-0.1,0.1-0.3,0.1-0.5,0.1c0,0,0,0-0.1,0c-1.6,1.3-2.6,3.3-2.6,5.5c0,3.9,3.2,7.1,7.1,7.1c1.9,0,3.6-0.8,4.9-2
			c0.1-0.2,0.3-0.4,0.4-0.6c0.3-0.4,0.5-0.8,0.8-1.3c0.2-0.3,0.8-1.3,0.8-1.6c0-0.1,0.1-0.3,0.1-0.4c0.1-0.4,0.1-0.8,0.1-1.2
			C272.1,263.2,270.3,260.7,267.8,259.6z"/>
		<path class="st3" d="M250.9,280c-1.1-1.1-2.5-1.9-4.1-2.1c-0.2,0-0.3,0-0.5,0c-0.6,0.1-1.1,0.1-1.7,0.1c-0.3,0-0.7,0.1-0.9,0.4
			c-0.2,0.3-0.5,0.3-0.7,0.4c-0.1,0-0.8,0.5-1,0.6c-0.3,0.2-0.6,0.5-0.9,0.8c-0.2,0.2-0.4,0.4-0.6,0.7c-0.1,0.1-0.2,0.1-0.3,0.2
			c-0.1,0.1-0.2,0.2-0.3,0.2c-0.1,0-0.2,0-0.2,0c-0.1,0-0.1,0.2-0.2,0.3c0,0,0,0-0.1,0c-0.5,1-0.8,2.2-0.8,3.4
			c0,3.9,3.2,7.1,7.1,7.1c1.5,0,2.9-0.5,4.1-1.3c0.3-0.4,0.7-0.7,0.9-1.1c0.5-0.7,0.8-1.5,1-2.2c0.2-0.6,0.3-1.2,0.4-1.7
			c0-0.2,0.1-0.6,0.2-1.1c0-0.5,0-0.9,0-1.1c-0.1-0.6-0.3-1.2-0.6-1.8C251.5,281.2,251.3,280.6,250.9,280z"/>
		<path class="st3" d="M228.4,259.2c-0.2,0-0.5-0.1-0.7-0.1c-0.3,0-0.7-0.1-1-0.1c-0.4,0-0.7,0-1,0.1c0,0,0,0-0.1,0
			c-0.3,0.2-0.7,0.2-1.1,0.3c-0.2,0-1.2,0.5-1.5,0.8c-0.5,0.3-0.9,0.7-1.3,1.1c-0.3,0.3-0.6,0.6-0.7,1c0,0.2-0.2,0.3-0.3,0.4
			c-0.1,0.2-0.2,0.3-0.4,0.4c-0.1,0-0.2,0.1-0.2,0.1c-0.4,0.9-0.6,1.8-0.6,2.8c0,3.9,3.2,7.1,7.1,7.1c1.2,0,2.4-0.3,3.4-0.8
			c0.1-0.1,0.2-0.2,0.4-0.2c0.1-0.1,0.3-0.2,0.4-0.3c0.2-0.1,0.4-0.3,0.5-0.4c1.5-1.3,2.5-3.2,2.5-5.4
			C233.8,262.7,231.5,259.9,228.4,259.2z"/>
		<path class="st3" d="M112.4,259.1c-0.6,0.1-1.2,0.3-1.8,0.5c-0.4,0.2-0.9,0.3-1.3,0.5c-0.3,0.1-1.3,0.5-1.5,0.7
			c-0.4,0.3-0.7,0.6-1,0.9c-0.4,0.4-0.9,0.8-1.3,1.2c-0.5,0.9-0.7,2-0.7,3.1c0,3.9,3.2,7.1,7.1,7.1c1.5,0,3-0.5,4.1-1.3
			c0,0,0.1-0.1,0.1-0.1c0.4-0.3,0.8-0.7,1.2-1.1c0,0,0-0.1,0.1-0.1c0.3-0.3,0.4-0.7,0.5-1.1c0.1-0.3,0.2-0.6,0.2-1
			c0-0.1,0.1-0.3,0.1-0.4c0-0.1,0.1-0.3,0.2-0.4c0.1,0,0.2-0.1,0.2-0.1c0.1-0.1,0.1-0.3,0.1-0.4c0-0.1,0.1-0.1,0.2-0.1
			c0-0.3,0.1-0.7,0.1-1c0-3.6-2.7-6.6-6.2-7.1C112.7,259,112.5,259.1,112.4,259.1z"/>
		<path class="st3" d="M64.1,255.9c1.3,0,2.5-0.4,3.6-1c0.4-0.3,0.8-0.7,1.1-1.1c0.3-0.3,0.5-0.6,0.7-0.9c0.2-0.2,0.7-0.9,0.8-1.2
			c0.1-0.4,0.2-0.8,0.3-1.2c0.1-0.5,0.3-1,0.4-1.6c0.1-0.5,0.1-1.1,0.1-1.6c0,0,0-0.1,0-0.1c-0.7-3.1-3.4-5.5-6.7-5.6
			c-0.2,0-0.5,0.1-0.7,0.1c-0.8,0.2-1.5,0.3-2.3,0.4c-0.1,0-0.2,0.1-0.3,0.1c0,0,0,0-0.1,0c-0.3,0.1-0.5,0.4-0.7,0.7
			c-0.2,0.4-0.5,0.5-0.8,0.8c-0.1,0.1-0.8,1-1,1.3c-0.3,0.5-0.6,1-0.8,1.5c-0.1,0.4-0.3,0.8-0.4,1.2c0,0.2-0.1,0.3-0.2,0.5
			c0,0.1-0.1,0.2-0.2,0.3c0,0,0,0,0,0.1C57,252.7,60.2,255.9,64.1,255.9z"/>
		<path class="st3" d="M73.9,238.3c0.2-0.1,0.4-0.1,0.6-0.2c0.4-0.1,0.8-0.3,1.2-0.5c0.3-0.2,0.6-0.3,0.9-0.4
			c0.2-0.1,0.9-0.3,1.1-0.5c0.3-0.2,0.5-0.5,0.7-0.7c0.3-0.3,0.7-0.5,1-0.9c0.3-0.3,0.5-0.7,0.7-1c0.1-0.2,0.2-0.3,0.2-0.5
			c0,0,0,0,0,0c0,0,0.1,0,0.1,0c0.3-0.8,0.5-1.6,0.5-2.5c0-3.5-2.5-6.4-5.8-7c-0.5,0.1-1,0.1-1.5,0c-0.3,0-0.6,0-0.8,0.3
			c-0.2,0.2-0.4,0.2-0.7,0.3c-0.1,0-0.8,0.3-1,0.4c-0.3,0.1-0.7,0.3-1,0.5c-0.2,0.2-0.5,0.3-0.6,0.5c-0.1,0.1-0.2,0.1-0.3,0.1
			c-0.1,0.1-0.2,0.1-0.4,0.1c-0.1,0-0.1-0.1-0.2-0.1c-0.1,0-0.2,0.1-0.3,0.2c0,0,0,0-0.1,0c-1.1,1.3-1.8,2.9-1.8,4.7
			c0,3.9,3.2,7.1,7.1,7.1C73.7,238.3,73.8,238.3,73.9,238.3z"/>
		<path class="st3" d="M75.3,278c-0.6,0.1-1.1,0.2-1.6,0.4c-0.5,0.1-0.9,0.2-1.3,0.4c-0.3,0.1-1.4,0.3-1.6,0.5
			c-0.4,0.2-0.8,0.5-1.1,0.8c-0.5,0.3-1,0.6-1.4,1c-0.4,0.4-0.8,0.9-1.1,1.3c-0.1,0.1-0.1,0.2-0.2,0.3c-0.3,0.7-0.4,1.5-0.4,2.3
			c0,2.7,1.5,5,3.7,6.2c0.7,0.1,1.3,0.2,2,0.3c0.5,0.1,1.1,0.1,1.6-0.1c0.4-0.2,0.9-0.1,1.3-0.1c0.2,0,1.5-0.2,1.9-0.4
			c0.3-0.1,0.6-0.2,0.9-0.2c1.7-1.3,2.8-3.4,2.8-5.7C80.8,281.6,78.4,278.7,75.3,278z"/>
		<path class="st3" d="M95,278.2c-0.5,0-0.9,0.1-1.3,0.1c-0.4,0.1-0.9,0.1-1.3,0.2c-0.3,0-1.4,0.1-1.6,0.3c-0.4,0.2-0.8,0.4-1.2,0.6
			c-0.5,0.2-1.1,0.5-1.6,0.8c-0.5,0.3-0.9,0.7-1.2,1c-0.7,1.1-1.1,2.4-1.1,3.7c0,3.9,3.2,7.1,7.1,7.1c0.2,0,0.5,0,0.7,0
			c0.3-0.2,0.7-0.3,1-0.4c0.2,0,1.2-0.6,1.6-0.7c0.5-0.3,1-0.6,1.5-0.9c0.2-0.2,0.5-0.3,0.7-0.5c1-1.2,1.7-2.8,1.7-4.6
			C99.9,281.8,97.9,279.1,95,278.2z"/>
		<path class="st3" d="M207.8,224.1c-0.1,0-0.1,0-0.2,0c-0.7,0.2-1.4,0.4-2,0.6c-0.5,0.2-1,0.4-1.4,0.6c-0.1,0.1-0.5,0.2-0.8,0.4
			c-0.3,0.2-0.7,0.4-0.8,0.5c-0.4,0.4-0.7,0.8-1,1.2c-0.2,0.2-0.4,0.5-0.6,0.8c-0.4,0.9-0.6,1.9-0.6,2.9c0,3.9,3.2,7.1,7.1,7.1
			c1.1,0,2.1-0.3,3.1-0.7c0.1,0,0.1-0.1,0.2-0.1c0.5-0.4,1.1-0.9,1.5-1.4c0.3-0.4,0.7-0.7,1-1.2c0.1-0.2,0.3-0.3,0.4-0.4
			c0.1-0.1,0.2-0.2,0.3-0.3c0.4-0.9,0.7-1.9,0.7-3C214.7,227.4,211.6,224.2,207.8,224.1z"/>
		<path class="st3" d="M233.6,229.8c-0.3-0.6-0.6-1.1-1-1.6c-0.3-0.4-0.6-0.7-0.9-1.1c-0.2-0.2-1-1.1-1.2-1.3
			c-0.4-0.3-0.9-0.5-1.3-0.7c-0.6-0.3-1.1-0.6-1.8-0.9c-0.3-0.1-0.5-0.2-0.8-0.2c-3.9,0.1-7,3.2-7,7.1c0,0.1,0,0.2,0,0.3
			c0.1,0.1,0.1,0.2,0.2,0.3c0.2,0.2,0.3,0.5,0.3,0.7c0,0.1,0.4,0.8,0.6,1c0.2,0.4,0.4,0.7,0.7,1c0.2,0.2,0.3,0.5,0.6,0.7
			c0.1,0.1,0.1,0.2,0.2,0.3c0.1,0.1,0.1,0.2,0.1,0.4c0,0.1-0.1,0.2-0.1,0.2c0,0.1,0.1,0.2,0.2,0.3c0,0.1,0,0.1-0.1,0.2
			c1.2,1,2.8,1.6,4.5,1.6c3.9,0,7.1-3.2,7.1-7.1c0-0.4,0-0.7-0.1-1.1C233.7,230,233.6,229.9,233.6,229.8z"/>
		<path class="st3" d="M267.2,224.4C267.2,224.4,267.2,224.4,267.2,224.4c-0.9,0-1.6,0-2.5-0.1c-0.5,0-1,0.1-1.3,0.5
			c-0.3,0.3-0.7,0.4-1.1,0.5c-0.2,0-1.1,0.7-1.4,1c-0.4,0.4-0.8,0.8-1.2,1.3c-0.2,0.3-0.5,0.7-0.6,1.1c0,0.2-0.2,0.3-0.3,0.4
			c-0.1,0.2-0.2,0.3-0.3,0.4c-0.1,0-0.2,0.1-0.2,0.1c-0.1,0.1-0.1,0.3-0.2,0.5c-0.1,0.1-0.2,0.1-0.3,0.1c0,0.3-0.1,0.6-0.1,0.9
			c0,3.9,3.2,7.1,7.1,7.1c1.4,0,2.6-0.4,3.7-1.1c0.1-0.1,0.2-0.2,0.4-0.4c0.3-0.3,0.5-0.5,0.8-0.8c0.2-0.2,0.9-0.8,1-1
			c0.2-0.3,0.4-0.6,0.6-0.9c0.4-0.9,0.7-1.9,0.7-3C272.1,228.1,270,225.4,267.2,224.4z"/>
		<path class="st3" d="M250.1,225.5c-0.2-0.1-0.5-0.3-0.7-0.4c-0.5-0.3-1-0.4-1.5-0.3c-0.4,0.1-0.8,0-1.3-0.1c-0.2,0-1.4,0-1.9,0.1
			c-0.6,0-1.3,0.2-1.9,0.3c-0.4,0.1-0.9,0.2-1.3,0.3c-1.7,1.3-2.9,3.4-2.9,5.7c0,3.9,3.2,7.1,7.1,7.1c0.4,0,0.8,0,1.2-0.1
			c0.3-0.2,0.5-0.4,0.7-0.6c0.3-0.2,0.5-0.4,0.8-0.6c0.2-0.1,0.9-0.4,1.1-0.5c0.3-0.2,0.5-0.5,0.7-0.7c0.3-0.3,0.7-0.5,1-0.8
			c0.3-0.3,0.5-0.6,0.7-1c0.1-0.1,0.2-0.3,0.3-0.4c0,0,0,0,0,0c0.1,0,0.1,0,0.2,0.1c0.3-0.8,0.5-1.6,0.5-2.5
			C252.9,228.9,251.8,226.9,250.1,225.5z"/>
		<path class="st3" d="M252.8,265.9c0-0.3-0.1-1.4-0.2-1.7c-0.1-0.5-0.4-0.9-0.6-1.3c-0.1-0.3-0.3-0.6-0.4-0.9
			c-1.3-1.8-3.4-3.1-5.9-3.1c-0.6,0-1.3,0.1-1.9,0.3c-0.1,0.1-0.3,0.2-0.5,0.2c-0.1,0-0.6,0.4-0.8,0.5c-0.3,0.2-0.6,0.4-0.8,0.6
			c-0.2,0.2-0.4,0.3-0.6,0.5c-0.1,0.1-0.2,0.1-0.3,0.2c-0.1,0.1-0.2,0.1-0.3,0.1c0,0-0.1,0-0.1,0c-0.8,0.9-1.4,2-1.7,3.2
			c0.1,0.4-0.1,0.8-0.2,1.1c0,0.2,0,0.3,0,0.5c0,3.9,3.2,7.1,7.1,7.1c3.6,0,6.6-2.7,7.1-6.2C252.8,266.6,252.8,266.3,252.8,265.9z"
			/>
		<path class="st3" d="M166.4,251.6c0.1-0.5,0.1-0.9,0.1-1.4c0-0.5-0.1-1.1-0.2-1.6c-0.1-0.4-0.1-0.8-0.2-1.1c0-0.2-0.1-1.2-0.2-1.4
			c-0.2-0.4-0.4-0.7-0.6-1c-0.2-0.4-0.4-0.9-0.7-1.3c-0.3-0.4-0.7-0.8-1-1.1c-0.1-0.1-0.3-0.2-0.4-0.3c-1-0.5-2.1-0.8-3.2-0.8
			c-1.2,0-2.4,0.3-3.4,0.9c0,0,0,0-0.1,0c-0.1,0.1-0.2,0.1-0.3,0.2c-0.2,0.1-0.7,0.7-0.9,0.9c-0.3,0.3-0.6,0.7-0.8,1.1
			c-0.2,0.3-0.4,0.6-0.5,0.9c0,0.1-0.2,0.2-0.2,0.3c-0.1,0.1-0.2,0.3-0.3,0.3c-0.1,0-0.1,0-0.2,0.1c-0.3,0.8-0.4,1.6-0.4,2.5
			c0,3.9,3.2,7.1,7.1,7.1C162.8,255.9,165.3,254.1,166.4,251.6z"/>
		<path class="st3" d="M133.6,248.7c0,0.6,0.1,1.2,0.2,1.7c0.1,0.3,0.3,0.8,0.4,1c0.2,0.5,0.5,0.9,0.8,1.3c0.2,0.3,0.5,0.6,0.8,0.8
			c0.1,0.1,0.2,0.2,0.3,0.3c0.1,0.1,0.2,0.2,0.3,0.4c0,0.1,0,0.1,0,0.2c1.2,0.9,2.7,1.4,4.3,1.4c1.9,0,3.6-0.7,4.9-1.9c0,0,0,0,0,0
			c0.4-0.5,0.7-1,1-1.6c0.2-0.4,0.4-0.8,0.6-1.2c0.1-0.1,0.2-0.4,0.3-0.8c0.1-0.3,0.2-0.7,0.2-0.8c0-0.5,0-0.9-0.1-1.4
			c0-0.6-0.1-1.2-0.2-1.8c0,0,0-0.1,0-0.1c0-0.1-0.1-0.1-0.1-0.2c-1.1-2.6-3.6-4.3-6.6-4.3C136.8,241.6,133.6,244.8,133.6,248.7z"/>
		<path class="st3" d="M134.5,224.9c-0.4-0.1-0.9-0.2-1.3-0.2c-0.6-0.1-1.1-0.1-1.7,0c-0.4,0-0.8,0-1.2,0c-0.2,0-1.2,0-1.5,0.1
			c-0.4,0.1-0.8,0.3-1.2,0.4c-0.3,0.1-0.5,0.2-0.8,0.2c-1.8,1.3-2.9,3.4-2.9,5.8c0,2.7,1.5,5.1,3.8,6.3c0,0,0.1,0,0.1,0
			c0.4,0,0.7,0.2,1.1,0.3c0.1,0.1,1.2,0.2,1.6,0.2c0.5,0,1.1,0,1.6-0.2c0.4-0.1,0.8-0.2,1.1-0.4c0.1-0.1,0.3-0.1,0.4-0.1
			c0.2-0.1,0.3-0.1,0.5-0.1c0.1,0,0.2,0.1,0.3,0c0.2,0,0.3-0.2,0.4-0.2c0.1,0,0.2,0,0.3,0.1c1.9-1.3,3.2-3.5,3.2-5.9
			C138.2,228.5,136.7,226.2,134.5,224.9z"/>
		<path class="st3" d="M231,290.6c1.7-1.3,2.8-3.4,2.8-5.7c0-2.2-1-4.2-2.6-5.5c-0.2-0.1-0.4-0.2-0.6-0.2c-0.3-0.1-0.6-0.3-0.9-0.4
			c-0.2-0.1-0.9-0.4-1.2-0.5c-0.4,0-0.7,0-1.1-0.1c-0.5,0-1-0.2-1.5-0.3c-0.5-0.1-0.9-0.1-1.4-0.2c-0.2,0-0.3,0-0.5-0.1h-21.7
			c-4,0.3-8,0.5-12,0.7c-4.2,0.2-8.3,0.2-12.4,0.2c-2.6,0-12.7-0.6-15.2-0.5c-4.2,0-8.4,0.3-12.7,0.2c-4.3-0.1-8.7-0.4-13.1-0.6
			h-24.4c-0.1,0-0.3,0.1-0.4,0.1c-0.5,0.1-1,0.2-1.3,0.6c-0.3,0.3-0.7,0.4-1.2,0.5c-0.2,0-1.3,0.6-1.7,0.8c-0.5,0.3-1,0.6-1.3,1.1
			c-0.3,0.3-0.5,0.7-0.7,1.1c-0.1,0.2-0.2,0.3-0.3,0.4c-0.1,0.2-0.2,0.3-0.4,0.5c-0.1,0-0.1,0.1-0.2,0.1c-0.2,0.7-0.3,1.3-0.3,2.1
			c0,3.9,3.2,7.1,7.1,7.1h43.2c1.3-0.2,2.5-0.3,3.8-0.6c3.3-0.7,7.1-0.5,10.8-0.4c1.5,0,12.1-0.3,16-0.3c5.4,0,10.9-0.1,16.3-0.3
			c4-0.1,8.1-0.1,12-0.5c1.6-0.2,3.2,0,4.8,0c1.7,0,3.5-0.1,5.2,0.3c0.7,0.2,1.4,0.4,2.1,0.5c1.5,0.2,3-0.2,4.5-0.1
			C230.7,290.6,230.8,290.6,231,290.6z"/>
		<path class="st3" d="M220.6,294c-5.5,0-10.9-0.1-16.4-0.1c-5.7-0.1-11.5-0.2-17.2-0.2c-4.5,0-8.9,0.1-13.4,0.1
			c-2.6,0-13.4-0.2-16.1-0.2c-4.4,0-8.7,0-13.2,0.1c-0.5,0-0.9,0-1.4,0c-0.6,0-1.2,0-1.9,0.1c-1.3,0.1-2.5,0.1-3.8,0
			c-0.9,0-1.7,0-2.6,0c-0.2,0-0.4,0.1-0.6,0.1c-0.7,0.2-1.4,0.1-2.2,0.1c-0.3,0-2.5,0.1-3.3,0.1c-1.1,0-2.2,0.1-3.3,0.1
			c-0.8,0-1.7,0-2.5,0.1c-0.3,0-0.7,0-1,0c-0.4,0-0.7,0-1.1-0.1c-0.1-0.1-0.3-0.1-0.4-0.2c-0.3-0.1-0.6,0-0.9,0c0,0,0,0,0,0
			c-2.4,0-4.9,0.1-7.3,0.1c-2,0-2.7,0.6-0.3,0.7c1.5,0,3-0.1,4.4,0c0.7,0,1.3,0.1,2,0.2c1.6,0.1,3.3,0.1,5,0.1c1.5,0,3.1,0.1,4.7,0
			c3.8-0.1,7.7-0.1,11.5-0.1c5.2-0.1,10.4-0.1,15.6-0.1c3.7,0,13.9-0.1,15.3-0.1c3.5,0,7.1,0.1,10.3-0.1c3.7-0.2,7.7-0.3,11.8-0.2
			c7.1,0.1,14,0.1,20.9,0c4.7-0.1,9.4-0.1,14.1-0.1c1,0,1.3-0.1,1.1-0.3c-0.2,0-0.4,0-0.7,0C225.3,294,222.9,294,220.6,294z"/>
		<path class="st3" d="M58.3,220.5c0.2-0.1,0.5-0.2,0.7-0.3c0.6-0.3,1.3-0.6,2-0.7c0.6-0.1,1.2-0.2,1.8-0.3c0.2,0,0.4-0.6,0.1-0.6
			c-0.2-0.1-0.4,0-0.6-0.1c-0.1,0-0.2-0.1-0.3-0.2c-0.2-0.1-0.5-0.1-0.7-0.1c-0.2,0-0.4,0-0.6,0c-0.5,0.2-1,0.3-1.5,0.4
			c-0.3,0.1-0.7,0.3-1,0.4c-0.3,0.2-0.6,0.3-0.9,0.5c-0.5,0.2-1.5,1.1-1.6,1.2c-0.4,0.3-0.8,0.5-0.9,1c-0.2,0.5-0.5,0.9-0.9,1.3
			c-0.6,0.7-1.1,1.5-1.3,2.3c-0.1,0.6-0.3,1.2-0.3,1.8c0,0.1,0.1,0.2,0.3,0.2c0,0,0-0.1,0-0.1c0.1-0.3,0.1-0.6,0.2-0.8
			c0.2-0.6,0.5-1.2,0.8-1.8c0.4-0.6,0.8-1.1,1.3-1.6c0.2-0.2,0.3-0.4,0.5-0.6c0.2-0.2,0.3-0.4,0.6-0.6c0.2-0.2,1.4-0.8,1.7-1
			C57.9,220.7,58.1,220.6,58.3,220.5z"/>
		<path class="st3" d="M102.1,172.3c0,0,0-0.1-0.1-0.2c0-0.1-0.1-0.1-0.1-0.1c0,0-0.1-0.1-0.1,0c-0.1,0.1-0.2,0.1-0.3,0.2
			c-0.1,0.1-0.2,0.1-0.4,0.1c-0.1,0-0.3,0.2-0.4,0.2c-0.1,0-0.2-0.1-0.2,0.1c-0.1,0.2-0.2,0.3-0.3,0.2c-0.2-0.1-0.4-0.1-0.5,0
			c-0.1,0.1-0.2,0.1-0.3,0.2c0,0,0,0.1,0,0.3c0,0,0,0,0,0c0.1,0,0.1,0,0.2,0c0.1,0,0.3,0,0.4,0.1c0.1,0,0.3,0.1,0.4,0.2
			c0.1,0,0.2-0.1,0.3-0.1c0.1,0,0.3,0.1,0.4,0.1c0.1,0,0.2,0,0.3-0.1c0.1-0.1,0.3-0.2,0.4-0.3c0.1-0.1,0.2-0.2,0.3-0.3
			c0,0,0-0.6,0-0.7C102.1,172.2,102.1,172.3,102.1,172.3z"/>
		<path class="st3" d="M55.7,140c0,0.5,0.2,1.7,0.2,1.9c0,0.4,0,0.9,0.2,1.3c0.3,0.4,0.4,0.9,0.3,1.4c0,0.9,0.1,1.7,0.3,2.6
			c0.2,0.6,0.3,1.1,0.5,1.7c0,0.1,0.1,0.1,0.3,0.1c0,0,0-0.1,0-0.1c0-0.3-0.1-0.6-0.1-0.8c-0.1-0.7-0.2-1.3-0.2-2c0-0.7,0-1.4,0-2.1
			c0-0.5-0.1-1.1-0.2-1.6c0-0.3,0.1-1.6,0.1-2c0-0.5,0-1.1,0-1.6c0-0.7-0.1-1.4-0.2-2.1c0-0.6-0.1-1.2-0.1-1.8
			c0-0.2-0.5-0.4-0.6-0.1c-0.1,0.2,0,0.4-0.1,0.5c0,0.1-0.1,0.2-0.2,0.2c-0.1,0.2-0.2,0.4-0.2,0.6c0,0.2-0.1,0.4-0.1,0.6
			c0.1,0.5,0,1,0,1.5C55.7,138.7,55.7,139.3,55.7,140z"/>
		<path class="st3" d="M29.6,134.1c0.3,0.1,0.7,0.1,1,0.1c0.3,0,0.6,0,0.9-0.1c0.7-0.2,1.5-0.2,2.3-0.3c1-0.1,2.1-0.3,3.1-0.4
			c0.7-0.1,2.7-0.4,3-0.4c0.7,0,1.4,0,2-0.3c0.7-0.3,1.5-0.4,2.3-0.4c1.4,0,2.8-0.1,4.1-0.3c0.9-0.1,1.8-0.2,2.8-0.4
			c0.2,0,0.2-0.1,0.2-0.3c0,0-0.1,0-0.1,0c-0.5,0-0.9,0-1.4,0c-1.1,0.1-2.2,0.1-3.3,0.2c-1.1,0-2.3,0-3.4,0.1
			c-0.9,0-1.8,0.2-2.7,0.3c-0.5,0-2.7,0.1-3.2,0.1c-0.9,0.1-1.7,0.2-2.6,0.3c-1.1,0.2-2.3,0.4-3.4,0.5c-1,0.2-1.9,0.3-2.9,0.5
			c-0.4,0.1-0.5,0.6,0,0.7c0.3,0,0.6-0.1,0.9,0C29.3,134,29.5,134.1,29.6,134.1z"/>
		<path class="st3" d="M29.2,138.1c0.3,0,0.6-0.1,0.9-0.1c0.1,0,0.3,0.1,0.4,0.1c0.3,0.1,0.6,0.1,1,0c0.3,0,0.6,0,0.9-0.1
			c0.7-0.2,1.5-0.2,2.2-0.3c1-0.1,2-0.2,3-0.3c0.7-0.1,2.7-0.3,3-0.3c0.7,0,1.4,0,2-0.2c0.7-0.3,1.5-0.4,2.3-0.3
			c1.4,0.1,2.7,0,4.1-0.2c0.9-0.1,1.8-0.2,2.7-0.2c0.2,0,0.2-0.1,0.2-0.3c0,0-0.1,0-0.1,0c-0.5,0-0.9,0-1.4,0c-1.1,0-2.1,0-3.2,0
			c-1.1,0-2.3-0.1-3.4,0c-0.9,0-1.7,0.2-2.6,0.2c-0.5,0-2.6,0-3.2,0c-0.9,0.1-1.7,0.1-2.6,0.3c-1.1,0.2-2.2,0.4-3.4,0.5
			c-0.9,0.2-1.9,0.3-2.9,0.5C28.8,137.5,28.7,138.1,29.2,138.1z"/>
		<path class="st3" d="M44.6,155c2.8-0.2,5.6-0.3,8.4-0.4c-0.3,0.4-0.3,0.7-0.3,1.1c0,0.4-0.2,0.8-0.1,1.2c0.3,0.8,0.3,1.5,0.4,2.3
			c0.5,0,0.9,0.1,1.2,0.1c1,0,2-0.1,3.1,0c0.1,0,0.3,0,0.4,0c-0.2-0.9-0.4-1.7-0.6-2.6c-0.3-1.3-0.6-2.6-1-3.9
			c0-0.2-0.3-0.3-0.6-0.4c0,0,0,0,0,0c0.1-0.2,0.2-0.3,0.2-0.5c0.1-0.2,0.1-0.5,0.1-0.8c0-0.2,0-0.4-0.1-0.6c0-0.1-0.5-0.2-0.6-0.2
			c0,0,0,0.1-0.1,0.1c0,0-0.1,0-0.2,0c-0.1,0-0.2,0.1-0.2,0.1c0,0-0.1,0.1-0.1,0.1c0.1,0.2,0,0.3,0,0.4c0,0.2-0.1,0.3-0.2,0.5
			c-0.1,0.1-0.2,0.5-0.2,0.5c-0.1,0.1-0.2,0.1-0.2,0.3c0,0,0,0,0,0c-0.1,0.1-0.3,0.1-0.3,0.3c0,0.1,0,0.1,0,0.2
			c-0.2,0.1-0.3,0.2-0.4,0.3c-1.1-0.1-2.3-0.1-3.4-0.2c-3.7-0.1-7.3-0.2-11-0.3c0.7-0.1,1.4-0.2,1.6-0.2c0.7,0,1.4,0,2-0.2
			c0.7-0.3,1.5-0.4,2.3-0.3c1.4,0,2.7,0,4.1-0.2c0.9-0.1,1.8-0.2,2.7-0.3c0.2,0,0.2-0.1,0.2-0.3c0,0-0.1,0-0.1,0c-0.5,0-0.9,0-1.4,0
			c-1.1,0-2.1,0.1-3.2,0.1c-1.1,0-2.3,0-3.4,0c-0.9,0-1.7,0.2-2.6,0.2c-0.5,0-2.6,0-3.1,0c-0.8,0-1.7,0.1-2.6,0.2
			c-1.1,0.1-2.2,0.2-3.4,0.3c-0.6,0-1.2,0.1-1.9,0.1c-0.1,0-0.3-0.1-0.4-0.1c-0.6-0.2-1.2-0.6-1.7-1c-0.8-0.7-1.4-1.6-1.6-2.6
			c-0.1-0.3-0.1-0.5-0.1-0.8l0-0.2l0-0.3l0-0.6c0-0.7,0-1.4,0-2.1c0,0,0-0.1,0.1-0.1c0.1,0,0.1-0.1,0.2-0.1c0.2-0.1,0.2-0.2,0.3-0.4
			c0-0.1,0.1-0.2,0.1-0.4c0-0.3,0.1-0.7,0.1-1c0.1-0.5,0.1-0.9,0.2-1.4c0.1-0.3,0-1.2,0-1.4c0-0.3,0.1-0.6-0.1-0.9
			c-0.2-0.3-0.3-0.7-0.2-1c0.1-0.6,0-1.2-0.3-1.8c0,0,0-0.1-0.1-0.1c0-0.3,0-0.6,0-0.9c0-0.3,0-0.4,0.1-0.5c0-0.1,0.1-0.3,0.1-0.4
			c0-0.2,0.1-0.4,0.1-0.6c0.3-0.9,0.8-1.7,1.6-2.3c0.4-0.3,0.8-0.5,1.2-0.7c0.2-0.1,0.5-0.2,0.7-0.2c0.1,0,0.2-0.1,0.4-0.1
			c0.1,0,0.2,0,0.4,0c4.1-0.2,8.2-0.6,12.4-1c3.5-0.3,7-0.6,10.5-1c0,0,0,0,0.1,0c0.1,0.1,0.1,0.3,0.1,0.4c0.1,0.1,0.2,0.2,0.3,0.3
			c0.1,0.1,0,0.4,0.1,0.5c0,0.1,0.1,0.2,0.2,0.4c0.1,0.2,0.2,0.3,0.3,0.5c0.1,0.2,0.2,0.3,0.2,0.5c0,0.1,0.6,0.2,0.6,0.2
			c0-0.1,0-0.1,0.1-0.2c0,0,0.1,0,0.2-0.1c0.1-0.1,0.1-0.1,0.2-0.2c0-0.1,0.1-0.1,0-0.2c-0.1-0.2-0.1-0.4-0.2-0.5c0,0,0-0.1,0-0.1
			c0.1,0,0.2,0,0.4,0c0-0.1,0.1-0.1,0.1-0.2c0.1-0.7,0.2-1.4,0.4-2.1c0.3-1.6,0.8-3.2,1.6-4.6c0.9-1.5,2.1-2.7,3.1-3.9
			c0.4-0.5,0.8-0.9,1.2-1.5c0.4-0.5,0.8-1,1.3-1.4c0.3-0.2,1.1-0.7,2-1.1c0.9-0.4,1.8-0.6,2.1-0.8c0.6-0.2,1.1-0.4,1.7-0.7
			c0.6-0.2,1.2-0.4,1.7-0.6c0.8-0.2,1.6-0.5,2.4-0.7l0.6-0.2l0.1,0l0,0l0.1,0l0,0l0,0c0.1,0,0.2,0,0.3-0.1l0.3-0.1l1.4-0.4
			c1.5-0.5,3.1-1,4.6-1.5c0.6-0.2,0.6-2.2-0.2-2.3c-0.5-0.1-0.9,0.3-1.4,0.1c-0.2-0.1-0.5-0.3-0.7-0.5c-0.6-0.4-1.1-0.3-1.6-0.3
			c-0.5,0-1-0.1-1.5,0.1c-0.3,0.1-0.6,0.2-0.9,0.3l-0.5,0.1l-0.1,0l0,0l0,0c-0.1,0,0.2,0,0.1,0l-0.1,0c-0.7,0.1-1.4,0.1-2.1,0.3
			c-0.9,0.3-1.9,0.4-2.7,0.7l-1.3,0.4l-1.3,0.5c-0.6,0.2-1.7,0.9-2.6,1.5c-0.9,0.7-1.7,1.3-1.9,1.4c-0.5,0.3-1.1,0.6-1.5,1.1
			c-0.4,0.4-0.8,0.9-1,1.5c-0.1,0.8-0.4,1.4-0.7,1.9c-0.3,0.6-0.7,1.1-1.2,1.6c-1.7,1.7-2.7,4-2.9,6.2c-0.1,0.8-0.1,1.5-0.2,2.3
			c0-0.5-0.3-0.9-1-1c-1-0.1-2.1,0.2-3.1-0.1c-0.5-0.1-0.9-0.4-1.4-0.6c-1.1-0.4-2.3-0.4-3.5-0.5c-1.1,0-2.2-0.2-3.3-0.1
			c-2.4,0.4-4.9,0.3-7.4,0.4c-0.2,0.1-0.3,0.2-0.5,0.4c-0.8,0.8-1.8,0.7-2.8,0.7c-0.2,0-1,0.2-1.7,0.5c-0.8,0.3-1.6,0.6-2,0.8
			c-1.1,0.5-2.1,1.3-2.9,2.2c-0.6,0.7-1.3,1.3-1.4,2.2c0,0.4-0.4,0.5-0.6,0.8c-0.2,0.3-0.3,0.6-0.9,0.8c-0.2,0.1-0.5,0.1-0.7,0.2
			c0,0,0,0.1-0.1,0.1c0,0.1,0,0.1,0,0.2l0,0.5l0,0.4c0,0.6,0.1,1.1,0.1,1.7c0.1,2.3,0.2,4.3,0.2,4.8c0,1.2-0.1,2.5-0.1,3.7
			c0,0.6,0,1.2,0.1,1.8c0.1,0.7,0.3,1.4,0.6,2c1.5,2.7,3.7,4.7,6.7,5.6c1.3,0.3,2.6,0.3,3.8,0.4c1.2,0.1,2.5,0.1,3.7,0.1
			C39.8,155.3,42.2,155.2,44.6,155z"/>
		<path class="st3" d="M244.6,169.4c2.1,0,4.3,0,6.4,0.1c2.2,0.1,4.5,0.2,6.7,0.2c1.8,0,3.5,0,5.2,0c1,0,5.2,0.3,6.3,0.3
			c1.7,0,3.4,0.1,5.1,0.1c2.2,0,4.5,0,6.8,0c1.9,0,3.9,0,5.8,0c0.8,0,1.1-0.5,0.2-0.6c-0.6-0.1-1.2,0-1.7-0.1
			c-0.3,0-0.5-0.1-0.8-0.2c-0.6-0.1-1.3-0.2-1.9-0.2c-0.6,0-1.2-0.1-1.8-0.1c-1.5,0.1-3,0-4.5,0c-2,0-4.1,0-6.1-0.1
			c-1.5,0-5.4,0-6,0c-1.4,0-2.8-0.1-4,0.1c-1.5,0.2-3,0.2-4.6,0.1c-2.8-0.1-5.5-0.2-8.2-0.1c-1.8,0.1-3.7,0.1-5.5,0.2
			c-0.4,0-0.5,0.1-0.4,0.3c0.1,0,0.2,0,0.3,0C242.7,169.3,243.7,169.3,244.6,169.4z"/>
		<path class="st3" d="M277.6,141.4c0,0.5,0.1,1.1,0.1,1.6c0,0.4,0.1,0.9,0.1,1.4c0,0.2,0.6,0.3,0.6,0.1c0.1-0.1,0-0.3,0.1-0.4
			c0-0.1,0.1-0.1,0.2-0.2c0.1-0.1,0.2-0.3,0.2-0.4c0-0.1,0.1-0.3,0.1-0.4c-0.1-0.4,0-0.7,0-1.1c0-0.5,0-1,0-1.5
			c0-0.3-0.1-1.3-0.1-1.4c0-0.3,0.1-0.7-0.1-1c-0.2-0.3-0.3-0.7-0.2-1.1c0.1-0.7,0.1-1.3,0-1.9c-0.1-0.4-0.1-0.9-0.2-1.3
			c0-0.1-0.1-0.1-0.3-0.1c0,0,0,0,0,0.1c0,0.2,0,0.4,0,0.6c0,0.5,0,1-0.1,1.5c0,0.5-0.2,1-0.2,1.6c0,0.4,0,0.8,0,1.2
			c0,0.2-0.2,1.2-0.2,1.5C277.6,140.6,277.6,141,277.6,141.4z"/>
		<path class="st3" d="M318.1,136.7c0-0.6,0-1.2-0.1-1.8c-0.1-0.7-0.3-1.4-0.6-2c-1.5-2.7-3.7-4.7-6.7-5.6c-1.3-0.3-2.6-0.3-3.8-0.4
			c-1.2-0.1-2.5-0.1-3.7-0.1c-2.5,0-4.9,0.1-7.3,0.2c-3.2,0.2-6.3,0.3-9.5,0.5c0-0.2,0-0.4,0-0.6c-0.1-1.9-0.6-3.8-1.2-5.7
			c-0.6-2-1.4-4-2.6-5.7c-1-1.3-2.4-2.3-3.7-3.3c-0.2-0.1-0.5-0.4-0.9-0.8c-0.4-0.3-0.9-0.7-1.4-1.1c-0.5-0.4-1-0.7-1.5-1
			c-0.5-0.3-0.8-0.5-1.1-0.6c-1.5-0.6-3.1-1-4.8-1.1c-0.5,0-1.1,0-1.6,0l-1.6,0.2c-1.1,0.1-1.9,0.3-2.9,0.5c-1.6,0.3-3.3,0.6-4.9,1
			c-0.7,0.1-0.9,2.1-0.1,2.3c0.5,0.1,1-0.2,1.4,0.1c0.2,0.1,0.4,0.4,0.7,0.6c0.5,0.4,1.1,0.4,1.6,0.5c0.5,0,1,0.2,1.5,0.1
			c0.6-0.2,1.3-0.3,1.9-0.3c0.6,0,1.1,0,1.7-0.1c0.8,0,1.5,0,2.3,0.1c0.8,0.1,1.5,0.2,2.3,0.5c0.3,0.1,0.7,0.2,1.1,0.3
			c0.4,0.1,0.9,0.3,1.4,0.5c0.9,0.4,1.7,0.7,1.9,0.9c0.4,0.3,0.8,0.7,1.2,1c0.4,0.3,0.9,0.6,1.5,0.7c0.7,0.1,1.3,0.4,1.8,0.8
			c0.5,0.4,0.9,1,1.2,1.6c0.9,2.1,1.8,4.1,2.7,6.1c0,0.1,0.1,0.2,0.1,0.2c0.1,0.5,0.1,1.1,0.2,1.6c0.1,0.5,0.2,0.9,0.2,1.4
			c0,0.3-0.1,1.5-0.1,1.7c0,0.5,0,0.9,0.1,1.4c0.1,0.6,0.1,1.3,0.2,1.9c0.1,0.5,0.1,1.1,0.2,1.7c0,0.2,0.6,0.3,0.6,0.1
			c0-0.2,0-0.3,0.1-0.5c0-0.1,0.1-0.1,0.2-0.2c0.1-0.2,0.1-0.4,0.2-0.5c0-0.2,0.1-0.3,0.1-0.5c-0.1-0.4-0.1-0.7-0.1-1.1
			c0,0,0.1,0,0.2,0c0.1,0,0.2-0.1,0.2-0.1c0-0.1,0.1-0.1,0.1-0.2c0-0.2,0.1-0.3,0.1-0.5c0.1-0.2,0.2-0.4,0.3-0.6
			c0-0.1,0.1-0.2,0.1-0.3c0.1-0.1,0.1-0.1,0.2-0.2c0.1-0.1,0.4-0.4,0.5-0.4c0.1,0,0.3,0,0.3-0.2c0.1-0.3,0.2-0.4,0.4-0.3
			c0.3,0.1,0.6,0,0.8-0.1c0.1-0.1,0.3-0.1,0.4-0.1c0.3,0,0.7,0,1,0c3.9,0.1,7.8,0.2,11.7,0.4c2,0.1,4.1,0.2,6.1,0.4
			c1.2,0.1,1.7,0.1,2.4,0.4c0.6,0.2,1.2,0.6,1.7,1c0.8,0.7,1.4,1.6,1.6,2.6c0.1,0.3,0.1,0.5,0.1,0.8l0,0.2l0,0.3l0,0.6
			c0,0.8,0,1.6,0.1,2.4c0,0.9-0.1,3.3-0.3,5.7c-0.1,1.2-0.1,2.4-0.2,3.4c0,0.3,0,0.4-0.1,0.5c0,0.1-0.1,0.3-0.1,0.4
			c0,0.2-0.1,0.4-0.1,0.6c-0.3,0.9-0.8,1.7-1.6,2.3c-0.4,0.3-0.8,0.5-1.2,0.7c-0.1,0-0.3,0.1-0.4,0.1c0-0.1-0.1-0.2-0.2-0.3
			c-0.3,0-0.5,0.1-0.8,0c-0.1,0-0.2-0.1-0.3-0.2c-0.3-0.1-0.6-0.1-0.9-0.1c-0.3,0-0.5-0.1-0.8,0c-0.6,0.1-1.3,0.1-2,0.1
			c-0.9,0.1-1.8,0.1-2.7,0.1c-0.6,0-2.4,0.1-2.6,0.2c-0.6,0-1.2-0.1-1.8,0.1c-0.6,0.2-1.3,0.3-2,0.2c-1.2-0.1-2.4-0.1-3.6,0
			c-0.8,0.1-1.6,0.1-2.4,0.2c-0.2,0-0.2,0.1-0.2,0.3c0,0,0.1,0,0.1,0c0.4,0,0.8,0,1.2,0.1c0.9,0,1.9,0.1,2.8,0.1c1,0,2,0.2,3,0.2
			c0.8,0,1.5-0.1,2.3-0.1c0,0,0.1,0,0.2,0c-0.9,0.1-1.8,0.2-2.7,0.2c-2.6,0.2-5.3,0.5-8,0.7c0,0-0.1-0.1-0.1-0.1
			c-0.2,0-0.3,0-0.4-0.1c-0.2,0-0.4-0.1-0.5-0.2c-0.1-0.1-0.5-0.1-0.5-0.2c-0.1-0.1-0.2-0.2-0.4-0.1c-0.1,0.1-0.2,0.1-0.3,0
			c0-0.1,0-0.1,0-0.1c0,0,0-0.1,0-0.1c-0.1,0-0.1,0-0.2-0.1c0,0,0,0,0,0c-0.1-0.2-0.3-0.3-0.5-0.4c-0.2-0.1-0.3-0.1-0.5-0.2
			c0,0-0.1,0-0.1,0.1c0,0,0,0-0.1,0c-0.1,0-0.2-0.1-0.3-0.1c0,0,0,0,0,0c0.1-0.4,0.2-0.9,0.1-1.3c-0.1-0.3-0.1-0.6-0.2-0.9
			c0-0.1-0.1-0.1-0.3,0c0,0,0,0,0,0c0,0.2,0,0.3,0,0.5c0,0.4,0,0.7-0.1,1.1c-0.1,0.4-0.2,0.7-0.3,1.1c0,0.1,0,0.3,0,0.4c0,0,0,0,0,0
			c0,0,0,0,0,0c0,0,0,0,0,0c0,0.1,0,0.3,0,0.4c0,0.2-0.3,0.8-0.4,1c-0.1,0.3-0.1,0.5-0.2,0.8c0,0.3-0.1,0.7-0.1,1.1
			c0,0.3-0.1,0.7-0.2,1c0,0.1,0.2,0.2,0.4,0.3c-0.1,0.8-0.1,1.6-0.2,2.4l-0.4,0c-4,0-7.9-0.1-11.9-0.1c-9-0.1-18.1-0.3-27.1-0.4
			c0,0,0.1,0,0.1,0c0.2,0,0.3-0.6,0-0.7c-0.2,0-0.3,0.1-0.5,0c-0.1,0-0.1-0.1-0.2-0.1c-0.2-0.1-0.4-0.1-0.5-0.1c-0.2,0-0.3,0-0.5,0
			c-0.4,0.1-0.8,0.2-1.2,0.2c-0.6,0.1-1.1,0.2-1.7,0.3c-0.4,0.1-1.5,0.5-1.6,0.5c-0.4,0.1-0.8,0.2-1,0.5c-0.3,0.4-0.7,0.6-1.1,0.7
			c-0.7,0.3-1.4,0.8-1.7,1.5c-0.2,0.5-0.3,1-0.2,1.5c0,0.1,0.1,0.1,0.3,0.1c0,0,0,0,0-0.1c0-0.2,0-0.4,0.1-0.6
			c0.2-0.5,0.5-0.9,0.9-1.2c0.4-0.3,1.3-0.6,0.3-0.1c0.4,0,0.9,0,1.3,0c0.7,0,1.5,0,2.2,0c0,0,0.1,0,0.1,0c0,0,0,0,0.1,0
			c0.1,0,0.1,0,0.2,0c0,0.1,0,0.1-0.1,0.2c0.8,0,1.7,0,2.5,0c4.3,0,8.6,0,12.8,0.1c1.4-0.3,2.8-0.6,4.2-0.9c1.2-0.2,2.4-0.2,3.5-0.2
			c0.7,0,3.6,0.6,4.3,0.5c1.2,0,2.4-0.3,3.6-0.2c1,0.1,1.9,0.3,2.9,0.4c-0.6,0.1-1.2,0.1-1.9,0.2c-0.4,0-0.5,0.1-0.4,0.4
			c0.1,0,0.2,0,0.2,0c0.9,0,1.8-0.1,2.7-0.1c0.6,0,1.1,0,1.7-0.1c2.2,0,4.4,0,6.6,0c0.3,0,0.7,0,1,0c1.2,0,2.4,0.1,3.5,0.1
			c1.7,0.1,3.4,0.1,5.1,0.2c0.5,0,1.8,0.1,3,0.4c1.2,0.2,2.4,0.6,2.8,0.8c0.5,0.2,1,0.4,1.4,0.7c0.4,0.5,0.8,1,1.1,1.6
			c0.3,0.7,0.5,1.5,0.6,2.3c0.1,0.8,0,1.7,0.1,2.5c0,3.4,0.1,6.8,0.1,10.2c0.1,6.8,0.1,13.6,0.2,20.4c0,2.7,0.4,3.7,1.1,3
			c0-0.6,0-1.3,0.1-1.9c0-3.1,0.1-6.2,0.1-9.3c0,0.3,0,0.6,0,0.9c0,0.4,0.6,0.5,0.6,0.1c0.1-0.3,0-0.6,0.1-0.8
			c0-0.1,0.1-0.2,0.2-0.4c0.2-0.3,0.2-0.6,0.2-0.9c0-0.3,0.1-0.6,0.1-0.9c0-0.7,0.1-1.5,0.2-2.2c0.1-1,0.3-2,0.4-3
			c0.1-0.7,0.3-2.7,0.4-3c0.1-0.7,0.2-1.4,0.1-2c-0.2-0.8-0.2-1.5-0.1-2.3c0.1-1.2,0-2.4-0.3-3.6c0-0.4,0-0.7-0.1-1.1
			c-0.1-0.6-0.1-1.2-0.2-1.8c-0.3-1.4-0.5-2.9-0.9-4.4c-0.3-1-0.8-2-1.5-2.9c0-0.1-0.1-0.1-0.1-0.2c-0.1-0.3-0.3-0.5-0.4-0.7
			c-1.3-2-3.5-3.4-5.9-3.8c-0.3-0.1-0.6-0.1-0.9-0.1l-0.4,0l-0.4,0l-1.5,0l-3,0l-3.2,0c0-0.4-0.1-0.8-0.2-1.2
			c-0.2-1.1-0.4-2.2-0.5-3.3c0-0.1-0.1-0.1-0.2-0.2c0-0.1,0.1-0.3,0.1-0.5c0-0.1,0.1-0.4,0.1-0.7c0.1,0,0.1,0.1,0.2,0.1
			c0.1,0,0.1,0,0.2,0c-0.7,0.6-0.7,1.8,0.6,1.9c1,0.1,2.1-0.2,3.1,0.1c0.5,0.1,0.9,0.4,1.4,0.6c1.1,0.4,2.3,0.4,3.5,0.5
			c1.1,0,2.2,0.2,3.3,0.1c1.7-0.3,3.5-0.3,5.3-0.4c1.9-0.7,3.8-1,5.9-1c1.2,0,2.3-0.4,3.2-1.4c0.8-0.9,1.7-0.9,2.5-1.1
			c0.2,0,0.8-0.4,1.1-0.9c0.3-0.4,0.5-1.1,0.6-1.5c0.2-0.6,0.3-1.4,0.5-2.1c0.2-0.7,0.3-1.5,0.4-2.2c0.2-1.1,0.6-2.2,0.5-3.3
			c0-0.5,0.3-0.8,0.5-1.3c0-0.1,0-0.1,0.1-0.2c0-0.7-0.1-1.3,0-1.5C318,139.1,318.1,137.9,318.1,136.7z M302.3,181.9
			C302.3,181.9,302.3,181.9,302.3,181.9c0,0.1,0,0.2,0,0.3C302.3,182.1,302.3,182,302.3,181.9z M302.2,191.4
			C302.2,191.4,302.2,191.4,302.2,191.4c0,0.2,0,0.4,0,0.6C302.2,191.8,302.2,191.6,302.2,191.4z"/>
		<path class="st3" d="M305.8,134.1c-0.9-0.1-1.7-0.1-2.6-0.2c-0.9-0.1-1.8-0.3-2.7-0.4c-0.7-0.1-1.4-0.1-2.1-0.1
			c-0.4,0-2.1-0.3-2.5-0.4c-0.7-0.1-1.4-0.1-2.1-0.1c-0.9,0-1.8,0-2.8,0c-0.8,0-1.6,0-2.4,0c-0.3,0-0.5,0.5-0.1,0.6
			c0.2,0.1,0.5,0,0.7,0.1c0.1,0,0.2,0.1,0.3,0.2c0.2,0.2,0.5,0.2,0.8,0.2c0.2,0,0.5,0.1,0.7,0.1c0.6,0,1.2,0.1,1.8,0.1
			c0.8,0,1.7,0.1,2.5,0.2c0.6,0,2.2,0.1,2.5,0.1c0.6,0.1,1.1,0.2,1.6,0c0.6-0.2,1.2-0.2,1.9-0.1c1.1,0.2,2.2,0.3,3.3,0.2
			c0.7,0,1.5,0,2.3,0c0.2,0,0.2-0.1,0.2-0.3c0,0-0.1,0-0.1,0C306.6,134.2,306.2,134.1,305.8,134.1z"/>
		<path class="st3" d="M301.6,136.9c-0.8-0.1-1.5,0-2.2-0.1c-0.4,0-2.2-0.3-2.7-0.3c-0.7,0-1.5-0.1-2.2-0.1c-1,0-1.9,0-2.9,0.1
			c-0.8,0-1.6,0.1-2.5,0.1c-0.3,0-0.5,0.6-0.1,0.6c0.2,0.1,0.5,0,0.7,0.1c0.1,0,0.2,0.1,0.3,0.2c0.3,0.1,0.5,0.2,0.8,0.2
			c0.3,0,0.5,0.1,0.8,0.1c0.6-0.1,1.3,0,1.9,0c0.9,0,1.7,0,2.6,0.1c0.6,0,2.3,0,2.5,0c0.6,0.1,1.2,0.2,1.7,0c0.6-0.2,1.3-0.2,2-0.1
			c1.2,0.2,2.3,0.3,3.5,0.3c0.8,0,1.6,0,2.3,0c0.2,0,0.2-0.1,0.2-0.3c0,0-0.1,0-0.1,0c-0.4,0-0.8-0.1-1.2-0.1
			c-0.9-0.1-1.8-0.2-2.7-0.3C303.5,137.2,302.5,137,301.6,136.9z"/>
		<path class="st3" d="M298.8,204.6c-0.9,0-1.8,0.1-2.7,0c-0.4,0-0.8-0.1-1.2-0.2c-1-0.1-2-0.1-3.1-0.1c-1,0-1.9-0.1-2.9,0
			c-2.3,0.1-4.8,0.1-7.1,0.1c-3.2,0.1-6.5,0.1-9.7,0.1c-2.3,0-8.6,0.1-9.5,0.1c-2.2,0-4.4-0.1-6.4,0.1c-2.3,0.2-4.7,0.3-7.3,0.2
			c-4.4-0.1-8.7-0.1-12.9,0c-2.9,0.1-5.8,0.1-8.7,0.1c-0.6,0-0.8,0.1-0.7,0.3c0.1,0,0.3,0,0.4,0c1.4,0,2.9,0,4.3,0.1
			c3.4,0,6.8,0.1,10.2,0.1c3.5,0.1,7.1,0.2,10.6,0.2c2.8,0,5.5-0.1,8.3-0.1c1.6,0,8.3,0.2,10,0.2c2.7,0,5.4,0,8.1-0.1
			c3.6-0.1,7.2-0.2,10.7-0.3c3-0.1,6.1-0.2,9.2-0.3C299.8,205.2,300.2,204.7,298.8,204.6z"/>
		<path class="st3" d="M54.1,171.6c1.2-0.1,2.4-0.1,3.6-0.2c1.6-0.1,3.2-0.2,4.8-0.2c1.2,0,4.3-0.2,4.7-0.2c1.1,0,2.2,0,3.2-0.2
			c1.1-0.2,2.4-0.3,3.6-0.3c2.2,0.1,4.3,0,6.5-0.1c1.4-0.1,2.9-0.2,4.3-0.2c0.3,0,0.4-0.1,0.3-0.3c-0.1,0-0.1,0-0.2,0
			c-0.7,0-1.4,0-2.2,0c-1.7,0-3.4,0-5.1,0c-1.8,0-3.6-0.1-5.3-0.1c-1.4,0-2.8,0.1-4.2,0.1c-0.8,0-4.1-0.1-5-0.1
			c-1.3,0-2.7,0.1-4.1,0.1c-1.8,0.1-3.6,0.2-5.4,0.4c-1,0.1-2,0.2-2.9,0.2c-0.9-0.3-2.4-0.4-2.6,0c-0.2,0.3,0.2,0.6-0.2,0.9
			c-0.2,0.1-0.6,0.2-0.9,0.3c-0.7,0.3-0.7,0.6-0.8,1c-0.1,0.3-0.4,0.6-0.3,1c0.4,0.9,0.2,1.8,0.2,2.6c0.1,1.2,0.1,2.4,0,3.5
			c-0.1,0.8,0.2,3.2,0.1,3.5c-0.2,0.8-0.6,1.5,0.2,2.4c1,1,1.1,1.9,0.6,2.8c-0.8,1.5-1,3.1-0.7,4.7c0.2,1.1,0.3,2.2,0.5,3.2
			c0,0.2,0.5,0.3,1.6,0.2c0,0,0.1-0.1,0.1-0.1c0.1-0.5,0.2-0.9,0.3-1.4c0.2-1.1,0.5-2.3,0.8-3.5c0.4-1.2,1.2-2.4,1.5-3.6
			c0.3-1,0-2,0.1-3c0.1-0.6,1.2-2.8,1.3-3.4c0.1-1,0.2-1.9,0.1-3c-0.1-1.3-0.5-2.7-0.8-4.1c-0.2-1-0.5-1.9-0.7-2.9c0.3,0,0.7,0,1,0
			C53.1,171.6,53.6,171.7,54.1,171.6z"/>
		<path class="st3" d="M227.7,184.3c-1.4-0.1-2.8,0-4.2-0.1c-0.7,0-1.3-0.1-1.9-0.2c-1.5-0.1-3.2-0.2-4.8-0.2c-1.5,0-3-0.1-4.5-0.1
			c-3.6,0.1-7.4,0.1-11.1,0.1c-5,0.1-10,0.1-15,0.2c-3.6,0.1-13.4,0.3-14.7,0.3c-3.4,0-6.8,0.1-9.9,0.3c-3.6,0.3-7.4,0.5-11.3,0.5
			c-6.8,0.1-13.5,0.3-20.1,0.7c-4.5,0.3-9,0.5-13.5,0.8c-0.9,0.1-1.2,0.2-1,0.4c0.2,0,0.4,0,0.6,0c2.2-0.1,4.5-0.2,6.7-0.3
			c5.3-0.2,10.5-0.4,15.8-0.6c5.5-0.1,11.1-0.2,16.5-0.3c4.3-0.1,8.6-0.2,12.9-0.4c2.5-0.1,12.9-0.1,15.5-0.1
			c4.2-0.1,8.4-0.1,12.6-0.2c5.5-0.1,11.1-0.2,16.7-0.2c4.7,0,9.5-0.1,14.2-0.1C229.3,184.9,230,184.4,227.7,184.3z"/>
		<path class="st3" d="M185.8,205.8c-0.4,0-0.9,0.1-1.3,0c-0.2,0-0.4-0.1-0.6-0.2c-0.5-0.1-1-0.1-1.5-0.1c-0.5,0-0.9-0.1-1.4,0
			c-1.1,0.1-2.3,0.1-3.4,0.1c-1.6,0.1-3.1,0.1-4.7,0.1c-1.1,0-4.2,0.1-4.6,0.1c-1,0-2.1-0.1-3.1,0.1c-1.1,0.2-2.3,0.3-3.5,0.2
			c-2.1-0.1-4.2-0.1-6.2,0c-1.4,0.1-2.8,0.1-4.2,0.1c-0.3,0-0.4,0.1-0.3,0.3c0.1,0,0.1,0,0.2,0c0.7,0,1.4,0,2.1,0.1
			c1.6,0,3.3,0.1,4.9,0.1c1.7,0.1,3.4,0.2,5.1,0.2c1.4,0,2.7-0.1,4-0.1c0.8,0,4,0.2,4.8,0.2c1.3,0,2.6,0,3.9-0.1
			c1.7-0.1,3.5-0.2,5.2-0.3c1.5-0.1,2.9-0.2,4.4-0.3C186.3,206.4,186.5,205.9,185.8,205.8z"/>
		<path class="st3" d="M299.4,225.3c0.1-2.3,0.1-4.5,0-6.6l-0.3-4.5c0-0.3-0.1-0.4-0.3-0.3c0,0.1,0,0.1,0,0.2c0,0.6,0,1.2,0,1.8
			c-0.1,0.1-0.2,0.2-0.2,0.5c-0.1,0.6,0,1.2-0.1,1.8c0,0.3-0.1,0.5-0.2,0.8c-0.2,0.6-0.2,1.3-0.2,2c0,0.6-0.1,1.3-0.1,1.9
			c0,1.6,0,3.2-0.1,4.7c0,2.1-0.1,4.3-0.2,6.4c-0.1,1.5-0.1,5.7-0.1,6.3c-0.1,1.4-0.2,2.9-0.1,4.2c0.2,1.5,0.1,3.2,0,4.9
			c-0.2,2.9-0.4,5.8-0.4,8.6c0,1.9-0.1,3.9-0.1,5.8c0,0.4,0.1,0.5,0.3,0.4c0-0.1,0-0.2,0-0.3c0.1-1,0.1-1.9,0.2-2.9
			c0.1-2.3,0.2-4.5,0.4-6.8c0.1-1.1,0.2-2.2,0.2-3.4c0-0.1,0.1-0.1,0.1-0.2c0.1-0.5,0-0.9,0.2-1.4c0.1-0.2,0.2-0.4,0.2-0.6
			c0.2-0.5,0.2-1,0.3-1.6c0.1-0.5,0.2-1,0.2-1.5c0-1.2,0.1-2.5,0.2-3.7c0.1-1.7,0.1-3.3,0.2-5c0.1-1.2,0.1-4.4,0.1-4.9
			c0.1-1.1,0.2-2.3,0-3.3C299.4,227.9,299.3,226.7,299.4,225.3z"/>
	</g>
	<path class="st3" d="M294.4,294.5c-0.1-0.5-0.4-0.6-0.8-0.3c-0.1,0.6-0.1,1.2-0.3,1.8c-0.6,3.2-2.4,6.1-4.8,8.3
		c-2.4,2.2-5.5,3.5-8.7,3.8c-0.5,0-0.9,0-1.4,0.1c-0.5,0-1,0-1.5,0l-3.1,0l-6.2,0l-12.4-0.1c-5.2,0-10.4-0.1-15.6-0.1
		c-1.9,0-3.7,0-5.6-0.1c-10.5-0.2-21-0.6-31.5-0.7c-4.9-0.1-9.7,0-14.4,0.1c-3.2,0-6.3-0.1-9.5-0.1c-4.1,0-8.1,0-12.2,0
		c-7.1-0.2-15.1-0.3-18-0.3c-8,0-16,0.1-24.1,0.2c-1.3,0-2.6,0.1-3.9,0.1c-11.9-0.1-25.9-0.3-30.8-0.3c-1.6,0-3.3,0-4.9,0
		c-0.7,0.2-1.4,0.4-2.2,0.6c-1.6,0.4-3.3,0.8-4.9,1.1c0,0-0.1,0-0.1,0c-1.4,0.1-2.8,0.1-4.3,0.2c-1.2-0.2-3.4-0.6-4-0.7
		c-1.3-0.1-2.6,0.1-3.8-0.1c-1.2-0.2-2.6-0.6-3.9-1.1c-0.1,0-0.1,0-0.2,0c-0.3,0-0.7,0-1-0.1c-1.4-0.1-2.7-0.5-4-1.1
		c-1.3-0.6-2.5-1.3-3.5-2.2c-1.4-1.2-2.6-2.7-3.4-4.3c-0.8-1.7-1.3-3.4-1.5-5.4c-0.1-1.7-0.3-3.4-0.4-5.1c-0.3-0.2-0.6-0.5-0.7-0.9
		c-0.6-3.2-1.1-6.3-1.6-9.5c-0.6-3.7-1.3-7.4-1.8-11.2c-0.4-2.8-0.6-5.7-0.8-8.5c-0.1-1.8-0.1-8.7-0.2-10.4
		c-0.2-2.9-0.7-5.7-0.8-8.7c-0.2-3.7,0-7.4-0.1-11.1c-0.1-3.6-0.3-7.1-0.4-10.6c0-1.3-0.1-2.6-0.1-3.9c-0.1-1.2-0.2-2.4-0.3-3.7
		c-0.1-1.3-0.3-2.5-0.6-3.3c0.4,0,0.8,0,1.2,0.1c0.4,0.1,0.8,0.4,1.2,0.6c0.9,0.4,1.9,0.4,2.9,0.5c0.9,0,1.9,0.2,2.7,0.1
		c2.2-0.4,4.6-0.3,6.8-0.5c3.1-0.2,6.2-0.3,9.2-0.4c2.2,0,8.2-0.5,9-0.5c2.1,0.1,4.2,0.3,6.1-0.4c2.2-0.8,4.5-1,7-0.7
		c4.2,0.4,8.3,0.4,12.3,0.1c2.8-0.2,5.5-0.4,8.3-0.5c0.6,0,0.8-0.4,0.6-1.1c-0.1,0-0.3,0-0.4-0.1c-1.4-0.1-2.8-0.2-4.1-0.2
		c-3.2-0.1-6.5-0.2-9.7-0.4c-3.4-0.2-6.8-0.6-10.2-0.7c-2.7-0.1-5.3,0.2-7.9,0.2c-1.6,0-7.9-0.5-9.5-0.5c-2.6,0-5.2,0.1-7.8,0.2
		c-3.4,0.2-6.8,0.6-10.3,1c-2.3,0.2-4.7,0.5-7,0.8c0.3-0.6,0.5-2,0.6-4.4c0-1,0-2,0-3c0-2.1-0.1-4.1,0-6.2c0-1.6,0-3.3,0.1-4.9
		c0.1-2.2,0.4-4.2,0.6-6.4c0.2-2.5,0.3-5.2,0.4-7.9c0-0.7,0-1.3,0-2l0-0.5c0-0.2,0-0.2,0-0.4c0-0.2,0.1-0.4,0.1-0.6
		c0-0.1,0.1-0.2,0.1-0.3c0.1,0,0.2,0,0.2-0.1c0.1-0.2,0.1-0.4,0.2-0.5c0.1-0.1,0.2-0.1,0.2-0.2c0.2-0.1,0.3-0.3,0.4-0.5
		c0.1-0.1,0.2-0.2,0.3-0.4c0.2-0.4,0.5-0.5,0.9-0.7c0.6-0.2,1.2-0.2,1.9-0.2c0.5,0,1.9,0,2.1,0c0.5,0,1,0.1,1.4,0
		c0.5-0.2,1.1-0.2,1.6-0.1c1,0.2,1.9,0.2,2.8,0.2c0.6,0,1.3,0,1.9,0c0.1,0,0.2-0.1,0.2-0.3c0,0-0.1,0-0.1,0c-0.3,0-0.6-0.1-1-0.1
		c-0.7-0.1-1.5-0.1-2.2-0.2c-0.3,0-0.6-0.1-0.8-0.1c10.1-0.3,20.6-0.3,30.7-0.4c6.5-0.1,13.1-0.1,19.6-0.2c0,0,0.1,0.1,0.1,0.1
		c0,0-0.1,0-0.1,0c0,0-0.1,0.1-0.1,0.3c0,0,0,0,0,0c0.1,0,0.1,0.1,0.2,0.1c0.1,0.1,0.3,0.2,0.4,0.3c0.1,0.1,0.2,0.3,0.3,0.4
		c0.1,0.1,0.2,0.1,0.3,0.2c0.1,0,0.2,0.3,0.2,0.4c0.1,0.1,0.2,0.1,0.3,0.2c0.1,0.1,0.3,0.1,0.5,0.2c0.1,0.1,0.3,0.1,0.4,0.2
		c0,0,0.2,0,0.3-0.1c0.1,0.2,0.3,0.6,0.4,1.2c0-0.5,0-1.1-0.1-1.5c0,0,0.1-0.1,0.1-0.1c0.1-0.1,0-0.2,0-0.2c0,0,0-0.1-0.1-0.2
		c-0.2,0-0.2-0.2-0.3-0.3c-0.1-0.1-0.2-0.2-0.3-0.3c0,0,0-0.1,0.1-0.1c0.1-0.1,0.1-0.2,0-0.2c0,0,0-0.1-0.1-0.1
		c-0.2,0-0.2-0.1-0.3-0.2c-0.1-0.1-0.3-0.2-0.4-0.3c0,0,0,0,0,0c0.1,0,0.3,0,0.4,0c0,0,0,0,0,0c-0.2-0.2-0.4-0.3-0.6-0.4
		c-0.2-0.1-0.4-0.2-0.6-0.3c-1.2-0.5-2.9-0.8-4.9-1c-1.2-0.2-6-1.2-7.3-1.2c-2.1-0.1-4.1,0.1-6.1,0c-2.6-0.1-5.2-0.5-7.9-0.5
		c-1.7,0-3.4,0.1-5.1,0.2c0,0,0,0,0,0c0,0-0.1-0.1-0.1-0.2c-0.1-0.2-0.2-0.2-0.3-0.2c-0.1,0-0.2-0.1-0.3-0.1c-0.3,0-0.6-0.1-0.9-0.1
		c0,0-0.1,0-0.1,0c-0.5,0.1-0.9,0.2-1.4,0.3c-0.2,0-0.8-0.2-1.3-0.3c-0.1,0-0.2,0.1-0.2,0.1c-0.3,0.2-0.5,0.3-0.8,0.3
		c-0.1,0-0.3,0-0.4,0c0-0.2,0.1-0.4,0.2-0.5c-0.4,0.1-0.8,0.2-1.2,0.2c-0.4,0-0.9-0.2-1.3-0.3c-5.5,0.1-10.9,0.2-16.4,0.3
		c-0.8,0-2,0-3,0.3c-1.1,0.3-2.1,0.7-2.9,1.4c-1.8,1.3-3,3.2-3.4,5.3c-0.1,0.5-0.2,1.1-0.2,1.6c0,0.5,0,0.9,0,1.4l0.1,2.7l0.1,4.4
		c0,0,0,0,0,0c-0.2,1.7-0.4,3.5-0.6,5.2c-0.2,1.8-0.4,3.7-0.5,5.5c-0.1,1.5,0,2.9,0,4.3c0,0.8-0.1,4.3-0.1,5.2
		c0,1.4,0.1,2.8,0.3,4.2c0.1,1.2,0.3,2.5,0.5,3.7c-0.1,0.4-0.1,0.8,0.2,1.1c0,0.2,0.1,0.5,0.1,0.7c0,0.2,0.1,0.3,0.1,0.5
		c0,0.5,0,1,0,1.6c0.2,4.4,0.8,8.9,0.8,13.1c0,2.1-0.1,4-0.2,6c-0.1,4.8,0.2,9.9,0.5,14.9c0.3,4.6,0.4,9.4,0.9,14
		c1.1,11.3,1.9,23.2,2.8,34.6l0.1,1.5c0,0.5,0.1,1,0.2,1.5c0.1,1.1,0.4,2.2,0.7,3.3c0.6,2.1,1.7,4.2,3,6c2.7,3.6,6.6,6.1,11,7
		c0.5,0.1,1.1,0.2,1.6,0.3c0.5,0.1,1.1,0.1,1.6,0.1l0.8,0l0.7,0l1.5,0l5.9,0c0.2,0,0.5,0,0.7,0c0.6,0.3,1.3,0.7,2,1
		c0.8,0.3,1.5,0.7,2.3,0.9c0.6,0.2,1.3,0.2,1.9,0.3c0.4,0.1,1.9,0.3,2.3,0.3c0.6,0,1.3,0,1.9-0.1c0.8-0.1,1.7-0.4,2.5-0.7
		c0.7-0.2,1.3-0.5,2-0.8c0,0,0-0.1,0.1-0.1c2.7,0,5.5,0.2,8.1,0.1c6.9-0.4,14.1-0.3,21.1-0.5c9.6-0.2,19.1-0.3,28.6-0.4
		c6.8,0,25.4-0.5,28-0.5c6.4,0.1,13,0.3,18.8-0.4c2.5-0.3,5.1-0.5,7.7-0.6c10.7,0.2,21.4,0.3,31.9,0.3c3.1,0,6.3,0,9.4,0
		c4.3,0,8.6-0.1,12.8-0.1c0,0.1,0,0.1,0,0.2c0,0,0,0,0,0c0.2,0,0.3,0.1,0.5,0.1c0.1,0,0.2,0,0.3,0.1c-0.2,0-0.4,0-0.6,0
		c-0.1,0-0.2,0.1-0.2,0.3c0,0,0.1,0,0.1,0c0.3,0.1,0.6,0.1,0.9,0.2c0.7,0.1,1.5,0.2,2.2,0.3c0.8,0.1,1.6,0.2,2.3,0.2
		c0.1,0,0.2,0,0.4,0c0,0,0.1,0,0.1,0c0.1,0,0.1,0,0.2,0c0.3,0,0.7-0.1,1-0.1c0,0,0.1,0,0.1,0c0,0,0.1,0,0.1,0c0.4,0,1.8,0,2.2-0.1
		c0.6-0.1,1.2-0.2,1.8-0.4c0.8-0.2,1.5-0.5,2.2-0.8c0.1,0,0.1-0.1,0.2-0.1c4.1-0.1,8.2-0.1,12.4-0.2c3.6-0.1,7.1-1.4,9.9-3.6
		c2.8-2.2,4.8-5.3,5.7-8.8c0.2-0.7,0.3-1.3,0.3-1.8C294.5,295.1,294.5,294.7,294.4,294.5z M72.3,311.5
		C72.3,311.5,72.3,311.5,72.3,311.5C72.3,311.5,72.3,311.5,72.3,311.5C72.3,311.5,72.3,311.5,72.3,311.5
		C72.3,311.5,72.3,311.5,72.3,311.5z"/>
</g>
</svg>
