<?xml version="1.0" encoding="utf-8"?>
<!-- Generator: Adobe Illustrator 19.2.1, SVG Export Plug-In . SVG Version: 6.00 Build 0)  -->
<svg version="1.1" id="Layer_1" xmlns="http://www.w3.org/2000/svg" xmlns:xlink="http://www.w3.org/1999/xlink" x="0px" y="0px"
	 viewBox="0 0 340.2 340.2" style="enable-background:new 0 0 340.2 340.2;" xml:space="preserve">
<style type="text/css">
	.st0{fill:none;stroke:#FFFFFF;stroke-miterlimit:10;}
	.st1{fill-rule:evenodd;clip-rule:evenodd;fill:#010101;}
	.st2{fill-rule:evenodd;clip-rule:evenodd;fill:#FFFFFF;}
	.st3{fill:#FFFFFF;}
</style>
<g>
	<g>
		<path class="st0" d="M634.3,204.6"/>
	</g>
	<g>
		<path class="st1" d="M799.7,282.3c0,0-0.1,0.1-0.2,0.1c0-0.1-0.1-0.2-0.1-0.2c0-0.1,0.1-0.2,0.2-0.2
			C799.6,282,799.6,282.1,799.7,282.3z"/>
	</g>
	<path class="st2" d="M834.8,147.7c0-1.7,0-3.4,0-5.2c-2.8,0.1-5.5,0.2-8.3,0.2c-0.7,1.4-2,2.5-3.6,2.7c0.1,0.7,0.1,1.4,0,2.2
		c0,0.1,0,0.2,0,0.4c0.1,0.1,0.2,0.4,0.2,0.9c0,0,0,0.1,0,0.1c0.2,0.3,0.1,0.7,0.1,1.1c0,0.2,0.1,1.3,0.1,1.7c0,0.6,0.1,1.1,0.1,1.7
		c0,0.1,0,0.3,0,0.4c0.2-0.1,0.3,0,0.3,0.2c0-0.2,0.1-0.2,0.1-0.3c0.7-0.1,1.4-0.3,2.1-0.5c1-0.3,1.9-0.3,2.9,0c0,0,0,0,0.1,0
		c0.5-0.1,1.1-0.2,1.6-0.2c0.1-0.1,0.3-0.3,0.4-0.4c0.5-0.7,1-0.5,1.6-0.4c0.2,0,1.6-0.4,2.2-0.5
		C834.8,149.9,834.8,148.5,834.8,147.7z"/>
	<path class="st2" d="M821.9,151.6c0-0.3,0.2-1.5,0.2-1.8c0-0.5-0.1-1-0.1-1.5c0-0.6,0.1-1.3,0.2-1.9c0-0.3,0-0.6,0-0.8c0,0,0,0,0,0
		H814c-1.7,0-3.2-0.9-4-2.3c-2.8,0.1-5.6,0.2-8.4,0.2c-8.8,0.2-17.5,0.2-26.2,0.2c-5.4,0-26.8-0.6-32.1-0.5c-9,0-17.7,0.3-26.8,0.2
		c-5.3-0.1-10.7-0.2-16-0.3c-2.8,0-5.5,0.1-8.3,0.1c-0.8,1.4-2.3,2.4-4.1,2.4h-8.3c-1.7,0-3.1-0.9-4-2.2c-2.3,0.1-4.6,0.1-6.9,0.2
		c-0.1,0-0.3,0-0.5,0v11.6c0.3,0.1,0.7,0.2,1,0.4c0.4,0.3,0.9,0.2,1.3-0.6c0.4-0.7,0.7-0.4,1.1-0.4c0.1,0,1.2-0.4,1.6-0.4
		c0.5-0.1,1.1-0.2,1.6-0.4c0.4-0.1,0.8-0.1,1.2-0.5c0.1-0.2,0.3,0.1,0.5,0.1c0.2,0,0.3,0,0.5,0.4c0.1,0.2,0.2,0.4,0.2,0.5
		c0.2,0.2,0.3-0.1,0.5,0c0.1,0.1,0.1,0.3,0.2,0.6c0-1.2,0-2.5,0.1-3.7c0.2-6.1,1-4.3,1,0.8c0,1.7,0,3.3,0,5c1.2,0,2.4,0.1,3.1,0.2
		c1.3,0.2,2.6,0.4,4,0.8c1.4,0.5,2.9,1.3,4,2.7c0.8,1,1.3,2.2,1.6,3.4c0.2,1.2,0.3,2.4,0.2,3.7c-0.1,1-0.7,1.9-1.1,2.7
		c-0.5,0.9-1.2,1.7-2.1,2.1c-0.4,0.1-0.8,0.2-1.2,0.3c-0.7,0.3-1.2,1-1.9,1.3c-0.3,0.1-0.6,0.1-0.8-0.1c0,0.1-0.1,0.2-0.1,0.3
		c0,0.3-0.4,0.4-0.5,0.6c-0.2,0.2-0.4,0.5-0.9,0.5c-0.1,0-0.1,0-0.2,0c0,0.1,0.1,0.1,0.1,0.2c0.5,0.8,1.1,1.5,1.9,2.1
		c0.8,0.5,1.7,1,2.6,1.1c0.5,0.1,0.9,0.1,1.4,0.2c0.4,0,0.7,0,1.1,0c5.3,0,10.7-0.1,16-0.1c4.1,0,10.6-0.1,17.6-0.2
		c1.3-0.2,2.5-0.3,3.8-0.5c2.9-0.3,5.8-0.7,8.7-1c2.2-0.2,4.4-0.2,6.6-0.2c1.4,0,6.7,0.6,8,0.5c2.2,0,4.4-0.3,6.7-0.2
		c2.8,0.1,5.7,0.5,8.6,0.7c2.7,0.2,5.5,0.2,8.2,0.4c0.1,0,0.2,0,0.2,0c4.8,0,9.5-0.2,13.9-0.5c6-0.4,12.1-0.6,18.5-0.7
		c1.6,0,3.2,0,4.8-0.1c0.4,0,0.8,0,1.1,0c0.1-0.1,0.3-0.2,0.4-0.3c0.7-0.6,1.3-1.1,1.8-1.6c0.1-0.2,0.5-0.5,0.8-0.8
		c0.3-0.3,0.5-0.8,0.4-1c0-0.7-0.5-1.3-0.9-2.2c-0.1-0.3-0.3-0.7-0.4-1c-0.3-0.2-0.5-0.4-0.8-0.6c-0.8-0.8-1.6-1.6-2.2-2.7
		c-0.6-1-1.1-2.3-1.2-3.7c-0.1-1.1,0.2-2.4,0.9-3.6c0.8-1.2,1.9-1.9,2.8-2.3c0.3-0.1,0.8-0.3,1.4-0.4c0.6-0.1,1.1-0.2,1.7-0.3
		c1.2-0.2,2.4-0.2,2.8-0.3c0.3,0,0.5-0.1,0.8-0.2c0,0,0,0,0,0c0.1-0.1,0.3-0.4,0.4-0.6c0.1-0.2,0.1-0.3,0.1-0.4c0-0.1,0-0.2,0-0.2
		c0,0,0,0,0-0.1c0.1-0.1,0.1-0.1,0.1-0.2c-0.1-0.6-0.2-1.3-0.3-1.9C821.9,152.5,821.9,152,821.9,151.6z M698.3,170.7
		c0,0-0.1,0.1-0.1,0.1c-0.1,0.1-0.6,0.4-1,0.4c-0.2,0-0.3,0-0.4-0.2c-0.3-0.3-0.6-0.7-0.8-1l-0.2-0.3c-0.1-0.2-0.1-0.4,0-0.6
		c0.1-0.1,0.2-0.3,0.2-0.4c0.2-0.4,0.4-0.7,0.8-0.5c0.6,0.2,1.1,0.4,1.6,0.8c0.3,0.2,0.5,0.5,0.5,0.8
		C698.9,170.2,698.6,170.5,698.3,170.7z M699,165.1c0,0.1,0,0.2,0,0.2c0,0.3-0.1,0.6-0.3,0.9c0,0.1-0.1,0.2-0.1,0.3
		c-0.1,0.2-0.2,0.3-0.4,0.3c0,0-0.1,0-0.1,0c-0.1,0-0.3-0.1-0.4-0.2l-1.5-1.6c-0.1-0.1-0.1-0.3-0.1-0.4c0-0.1,0.1-0.3,0.3-0.3
		c0.2-0.1,0.3-0.2,0.4-0.3c0.3-0.2,0.5-0.3,0.8-0.4c0.4,0,0.8,0.1,1,0.3C699,164.3,699,164.8,699,165.1z M702.5,168.6l-0.4,0.2
		c-0.1,0-0.2,0.1-0.3,0.1c-0.1,0-0.3,0-0.3-0.1l-0.3-0.3c-0.1-0.1-0.2-0.3-0.1-0.4c0-0.2,0.1-0.3,0.3-0.4l0.1-0.1
		c0.1-0.1,0.3-0.2,0.5-0.2c0.3-0.1,0.6,0.2,0.7,0.3c0.1,0.1,0.2,0.3,0.2,0.4C702.7,168.4,702.7,168.5,702.5,168.6z M712.3,168.2
		c-0.1,0.1-0.3,0.2-0.4,0.2c0,0,0,0-0.1,0c-0.2,0-0.3-0.1-0.4-0.2l-0.1-0.1c-0.1-0.1-0.2-0.3-0.2-0.5c-0.1-0.3,0.2-0.6,0.3-0.7
		c0.1-0.1,0.3-0.2,0.5-0.2c0.2,0,0.3,0.1,0.4,0.2l0.1,0.1c0.1,0.1,0.2,0.3,0.2,0.5C712.7,167.9,712.4,168.1,712.3,168.2z
		 M716.8,167.5c-0.1,0.1-0.3,0.2-0.4,0.2c0,0,0,0-0.1,0c-0.2,0-0.3-0.1-0.4-0.2l-0.3-0.5c-0.1-0.2-0.1-0.4,0.1-0.6l0.3-0.3
		c0.1-0.1,0.3-0.2,0.4-0.1c0.2,0,0.3,0.1,0.4,0.3l0.1,0.1c0.1,0.1,0.2,0.3,0.2,0.5C717.2,167.1,716.9,167.4,716.8,167.5z
		 M719.2,168.7l-0.1,0.1c-0.1,0.1-0.3,0.2-0.5,0.2c0,0-0.1,0-0.1,0c-0.3,0-0.4-0.2-0.5-0.3c-0.1-0.1-0.2-0.3-0.2-0.4
		c0-0.2,0.1-0.3,0.2-0.4l0.5-0.3c0.2-0.1,0.4-0.1,0.6,0.1l0.3,0.3c0.1,0.1,0.2,0.3,0.1,0.4C719.4,168.5,719.3,168.7,719.2,168.7z
		 M720.1,164.7l-0.3,0.5c-0.1,0.1-0.2,0.2-0.4,0.3c0,0,0,0-0.1,0c-0.1,0-0.3-0.1-0.4-0.1c-0.2-0.2-0.4-0.4-0.4-0.7
		c0-0.2,0.1-0.3,0.2-0.5l0.1-0.1c0.1-0.1,0.2-0.2,0.4-0.3c0.2,0,0.3,0,0.4,0.1l0.3,0.3C720.1,164.2,720.2,164.5,720.1,164.7z
		 M722.1,167.3l-0.1,0.1c-0.1,0.1-0.2,0.2-0.4,0.3c0,0-0.1,0-0.1,0c-0.1,0-0.3-0.1-0.4-0.1l-0.3-0.3c-0.2-0.2-0.2-0.4-0.1-0.6
		l0.3-0.5c0.1-0.1,0.2-0.2,0.4-0.2c0.1,0,0.3,0,0.4,0.1c0.2,0.2,0.4,0.4,0.4,0.7C722.3,167,722.2,167.1,722.1,167.3z M725.7,168.2
		c-0.1,0.1-0.3,0.2-0.4,0.2c0,0,0,0-0.1,0c-0.2,0-0.3-0.1-0.4-0.2l-0.3-0.5c-0.1-0.2-0.1-0.4,0.1-0.6l0.2-0.2
		c0.1-0.1,0.3-0.2,0.5-0.2c0.2,0,0.3,0.1,0.4,0.2l0.1,0.1c0.1,0.1,0.2,0.3,0.2,0.5C726.1,167.9,725.9,168.1,725.7,168.2z
		 M728.3,168.6l-0.3,0.3c-0.1,0.1-0.2,0.1-0.4,0.1c-0.1,0-0.2,0-0.2-0.1l-0.5-0.3c-0.1-0.1-0.2-0.2-0.3-0.4s0-0.3,0.1-0.4
		c0.2-0.2,0.4-0.4,0.7-0.4c0.2,0,0.4,0.1,0.5,0.2l0.1,0.1c0.1,0.1,0.2,0.2,0.3,0.4C728.5,168.4,728.4,168.5,728.3,168.6z
		 M733.5,164.7l-0.3,0.5c-0.1,0.1-0.2,0.2-0.4,0.3c0,0,0,0-0.1,0c-0.1,0-0.3-0.1-0.4-0.1c-0.2-0.2-0.4-0.4-0.4-0.7
		c0-0.2,0.1-0.3,0.2-0.5l0.1-0.1c0.1-0.1,0.2-0.2,0.4-0.3c0.2,0,0.3,0,0.4,0.1l0.3,0.3C733.6,164.2,733.6,164.5,733.5,164.7z
		 M735.3,155c-4.3,0.1-8.7,0.2-13,0.4c-3.2,0.1-6.5,0.1-9.6,0.5c-1.3,0.2-2.6-0.1-3.9-0.1c-1.4,0-2.8,0-4.1-0.5
		c-0.6-0.2-1.1-0.4-1.7-0.6c-1.2-0.3-2.4,0.1-3.6-0.1c-2-0.2-1.4-2.2,0.3-2.3c4.1-0.3,8.2-0.7,12.4-1c4.8-0.3,9.7-0.7,14.5-1
		c3.7-0.2,7.3-0.2,11-0.2c2.3,0,11.2,0.6,13.4,0.5c3.8,0,7.4-0.3,11.2-0.2c4.7,0.1,9.6,0.5,14.3,0.7c4.6,0.2,9.1,0.2,13.7,0.4
		c1.9,0.1,3.9,0.1,5.8,0.2c0.2,0,0.4,0,0.5,0.1c0.2,0.8-0.1,1.1-0.9,1.1c-3.9,0.1-7.8,0.3-11.7,0.5c-5.7,0.3-11.5,0.3-17.4-0.1
		c-3.4-0.3-6.7-0.1-9.8,0.7c-2.7,0.7-5.7,0.5-8.6,0.4C746.9,154.5,738.5,155,735.3,155z M743.8,166.6c-0.1,0.1-0.2,0.1-0.4,0.2
		c0,0,0,0,0,0c0,0.1-0.1,0.3-0.2,0.4l-0.4,0.4c-0.1,0.1-0.2,0.1-0.3,0.1c-0.1,0-0.3,0-0.3-0.1l-0.1-0.1c-0.1-0.1-0.4-0.4-0.2-0.8
		c0.1-0.2,0.2-0.3,0.3-0.4l0.1-0.1c0.1-0.1,0.2-0.1,0.3-0.2c0-0.1,0.1-0.2,0.2-0.3l0.4-0.3c0.1-0.1,0.3-0.1,0.5-0.1
		c0.2,0,0.3,0.2,0.3,0.3l0,0.1C744,165.9,744.1,166.3,743.8,166.6z M799.2,168.6c-2.2,0.3-4.4,0.7-6.6,1c-2.6,0.3-5.2,0.7-7.8,1
		c-2,0.2-3.9,0.2-5.9,0.2c-1.2,0-6-0.6-7.2-0.5c-2,0-4,0.3-6,0.2c-2.5-0.1-5.1-0.5-7.7-0.7c-2.5-0.2-4.9-0.2-7.3-0.4
		c-1-0.1-2.1-0.1-3.1-0.2c-0.1,0-0.2,0-0.3-0.1c-0.1-0.8,0-1.1,0.5-1.1c2.1-0.1,4.2-0.3,6.3-0.5c3.1-0.3,6.1-0.3,9.3,0.1
		c1.8,0.3,3.6,0.1,5.3-0.7c1.4-0.7,3-0.5,4.6-0.4c0.6,0,5.2-0.4,6.8-0.5c2.3-0.1,4.6-0.2,7-0.4c1.7-0.1,3.5-0.1,5.1-0.5
		c0.7-0.2,1.4,0.1,2.1,0.1c0.7,0,1.5,0,2.2,0.5c0.3,0.2,0.6,0.4,0.9,0.6c0.6,0.3,1.3-0.1,2,0.1C800.4,166.5,800.1,168.4,799.2,168.6
		z"/>
	<g>
		<path class="st3" d="M866.3,152.5C866.3,152.5,866.3,152.5,866.3,152.5c0,0.1-0.1,0.1-0.1,0.2c0,0.2,0,0.3-0.1,0.5
			c0,0.2-0.1,0.4,0,0.6c0,0.1,0.2,0.2,0.3,0.3c0,0.1,0.2,0.4,0.2,0.5c0.1,0.1,0.2,0.2,0.4,0.2c0.2,0,0.4,0,0.6,0
			c0.2,0,0.3-0.1,0.5-0.2c0.1,0,0.1-0.6,0-0.7c0,0-0.1,0-0.1,0c0,0,0-0.1,0-0.2c0-0.1,0-0.1,0-0.1c0,0,0-0.1,0,0
			c-0.1,0.1-0.1,0-0.2,0.1c-0.1,0-0.2,0-0.3,0c-0.1,0-0.3-0.1-0.3-0.1c0-0.1,0-0.1-0.2-0.1c-0.2,0.1-0.3,0-0.3-0.1
			c0.1-0.2,0-0.3-0.1-0.4c-0.1-0.1-0.1-0.2-0.1-0.3C866.6,152.5,866.5,152.5,866.3,152.5z"/>
	</g>
	<g>
		<path class="st3" d="M656.5,138.7c-1.2,0-2.4,0.1-3.6,0.2c-1.6,0.1-3.2,0.3-4.8,0.4c-1.3,0.1-2.7,0.3-4.1,0.4
			c-0.5,0.1-0.7,0.6-0.1,0.7c0.4,0,0.8-0.1,1.2,0c0.2,0,0.4,0.1,0.5,0.1c0.4,0.1,0.9,0.1,1.4,0.1c0.4,0,0.9,0,1.3,0
			c1-0.1,2.1-0.2,3.2-0.2c1.4-0.1,2.9-0.2,4.3-0.3c1,0,3.8-0.3,4.2-0.3c1,0,2,0,2.8-0.2c1-0.3,2.1-0.3,3.2-0.3c2,0.1,3.9,0,5.7-0.2
			c0.9-0.1,1.8-0.1,2.7-0.2c0.3,0,0.7,0,1,0c0,0,0,0,0,0c0,0,0.1,0,0.1,0c0.3,0,0.3-0.1,0.3-0.3c-0.1,0-0.1,0-0.2,0c0,0,0,0,0,0
			c0.8-1.4,2.3-2.4,4.1-2.4h8.3c1.7,0,3.2,1,4.1,2.4c3.3-0.1,6.5-0.2,9.8-0.2c8.8-0.2,17.5-0.2,26.2-0.2c5.4,0,26.8,0.6,32.1,0.5
			c9,0,17.7-0.3,26.8-0.2c5.3,0.1,10.7,0.2,16,0.3c2.3,0,4.6-0.1,6.9-0.1c0.8-1.4,2.3-2.4,4.1-2.4h8.3c0.1,0,0.3,0,0.4,0
			c-0.1-6.1-0.2-12.3-0.3-18.4c0-0.1,0-0.1,0-0.2c-0.2-1.2-0.2-2.6-0.2-3.9c0-0.5-0.2-4.4-0.2-5.8c-0.1-2-0.1-3.9-0.2-5.9
			c-0.1-1.4,0-2.9-0.2-4.4c0-0.6,0-1.2,0-1.8c0-0.6,0-1.3,0.1-1.9c0.1-0.3,0.1-0.5,0.2-0.8c0.1-0.5,0-1.1,0-1.7c0-0.1,0-0.2,0.1-0.3
			c-0.1-4-0.1-8-0.2-12c-0.1-8.5-0.2-16.9-0.2-25.3c0-0.6,0.1-1.9-0.1-1.8c0,0-0.1-0.1-0.2-0.1c0,0-0.1,0-0.1,0c0,0-0.1,0-0.2,0
			l-0.2,0c-0.6,0-1.3-0.1-2-0.1c-2.7-0.2-5.9-0.4-9.2-0.5c-0.4,0-0.9,0-1.3-0.1c-1.9,0.1-3.8,0.2-5.7,0.3c-6.5,0.3-13,0.7-19.5,1
			c-4.9,0.2-9.8,0.2-14.7,0.2c-3,0-15.1-0.5-18-0.5c-5,0-10,0.3-15,0.2c-6.4-0.1-12.8-0.5-19.2-0.7c-6.1-0.2-12.3-0.2-18.4-0.4
			c-2.6-0.1-5.2-0.1-7.8-0.2c-0.2,0-0.5,0-0.7-0.1c-0.1-0.3-0.1-0.5,0-0.7c-0.3-0.3,0.4-0.4,2.1-0.4c9,0.1,18.1,0.1,27-0.1
			c13.1-0.2,26.4-0.5,40.1-0.4c7.9,0,15.5-0.1,22.7-0.4c6.1-0.3,13-0.1,19.8,0.2c1.3,0,6.9,0.2,13,0.4c1.5,0.1,3.1,0.1,4.6,0.2
			c0.8,0,1.5,0.1,2.3,0.1l0.6,0c0.3,0,0.5,0.1,0.8,0.2c0.5,0.2,0.9,0.6,1.2,1.1c0.3,0.5,0.3,1.1,0.3,1.4c0,0.3,0,0.7,0,1
			c0,0.7,0,1.3,0,1.9c0,1.2,0,2.3,0,3.2c0.1,10,0.2,20,0.3,30c0.1,7.3,0.1,14.9,0.3,22.1c0.1,2.9,0,6,0,8.9c0,3.2,0,6.5-0.2,9.5
			c-0.1,1.3-0.2,2.5-0.2,3.8c0,1,0,2,0,3c1,0.3,1.9,1,2.5,1.9c0.2,0,0.3,0,0.5,0c1.1,0,2.2,0,3.2-0.1c1.2,0,2.3-0.1,3.4-0.1
			c0,0,0,0,0.1,0c0.3,0,0.6-0.1,0.8,0c0.1,0,0.3,0.1,0.4,0.2c0.3,0.1,0.6,0.1,0.9,0.1c0.3,0,0.6,0.1,0.9,0c0.7-0.1,1.5-0.1,2.2-0.1
			c1-0.1,2-0.1,3-0.1c0.7,0,2.6-0.1,2.9-0.1c0.7,0,1.3,0.1,2-0.1c0.7-0.2,1.5-0.3,2.2-0.2c1.3,0.1,2.7,0.1,4,0
			c0.9-0.1,1.8-0.1,2.7-0.1c0.2,0,0.2-0.1,0.2-0.3c0,0-0.1,0-0.1,0c-0.4,0-0.9,0-1.3-0.1c-1,0-2.1-0.1-3.1-0.1
			c-1.1-0.1-2.2-0.2-3.3-0.2c-0.9,0-1.7,0.1-2.5,0.1c-0.5,0-2.5-0.2-3.1-0.2c-0.8,0-1.7,0-2.5,0.1c-1.1,0.1-2.2,0.2-3.3,0.3
			c-0.5,0-1,0.1-1.5,0.1c0.1-12.6,0.1-25.1-0.5-36.5c-0.8-16.9-1-35-0.7-53.8c0-2,0.1-4,0.1-6.1c0-2.1-0.5-4.2-1.3-6
			c-1.7-3.8-5.1-6.8-9.1-8c-0.5-0.1-1-0.3-1.5-0.4c-0.5-0.1-1-0.2-1.5-0.2c-1.1-0.1-2.1-0.1-3-0.1c-2,0-4,0-6,0c-4,0-7.9,0-11.9,0
			c-15.6,0-31,0.1-46.4,0.2c-2,0.1-4,0.1-6,0.4c-0.9,0.2-1.8-0.1-2.7-0.1c-0.8,0-1.5,0-2.3-0.3c-17.9,0.1-35.9,0.3-54,0.4h-5.1
			c-8,0-14.4,6.4-14.4,14.4v64.3c0,0.5,0.1,1.1,0.1,1.6c0.1,1.9,0.1,4,0.5,5.9c0.2,0.8-0.1,1.6-0.1,2.4c0,0.8,0,1.7-0.5,2.5
			c0,0,0,0,0,0v20.6c-1.3,0-2.6-0.1-3.9,0c-1.2,0-2.5,0.1-3.7,0.2C660.2,138.8,657.2,138.7,656.5,138.7z M749.5,38.6
			c0.2-0.8,1-1.3,1.8-1.1c0.8,0.2,1.3,1,1.1,1.8c-0.2,0.8-1,1.3-1.8,1.1S749.2,39.4,749.5,38.6z M677.5,54.4c0-0.6,0-1.3,0.1-1.9
			c0-0.5,0.1-1.6,0.7-2.3c0.6-0.6,1.3-0.8,1.9-0.9c1.3-0.2,2.4-0.1,3.6,0c1.7,0.2,1.2,1-0.3,1c-0.9,0-1.9-0.1-2.7,0.1
			c-0.9,0.2-1.4,0.6-1.4,1.4c0,1.9,0,3.7,0,5.6c0.1,4.4,0.1,8.8,0.2,13.2c0,3.4,0,6.7,0.1,10c0,0.4,0,1,0,1.8
			c0.1,1.4,0.1,2.7,0.2,4.1c0.1,2.7,0.2,5.4,0.3,8.1c0.1,2.1,0.1,4.1,0.1,6.1c0,1.3-0.2,6.3-0.2,7.5c0,2.1,0.1,4.2,0.1,6.3
			c0,2.7-0.1,5.4-0.2,8c-0.1,2.6-0.1,5.1-0.1,7.7c0,0.1,0,0.3,0,0.4c0,1.2,0,2.3,0,3.5c0,0.2,0,0.3,0,0.5c-0.3,0.2-0.5-0.1-0.5-0.8
			c-0.1-3.6-0.2-7.2-0.4-10.7c-0.2-5.2-0.3-10.5-0.2-15.9c0.1-3.1-0.1-6.2-0.5-9c-0.3-2.4-0.3-5.2-0.3-7.8c0-1.1-0.3-8.8-0.3-11.7
			c0-4-0.1-7.9-0.1-11.9c0-2.9,0.1-5.9,0-8.8C677.3,56.8,677.5,55.6,677.5,54.4z"/>
		<path class="st3" d="M812.2,140.8c0.1-0.1,0.2-0.2,0.2-0.3c0-0.1,0.1-0.2,0.1-0.3c0-0.3,0.2-0.5,0.4-0.7c0.3-0.3,0.6-0.4,1.1-0.4
			c0.3,0,1.4-0.1,1.5-0.1c0.3,0,0.7,0.1,1-0.1c0.4-0.2,0.8-0.3,1.2-0.2c0.7,0.1,1.4,0.1,2.1,0c0.5-0.1,0.9-0.1,1.4-0.1
			c0.1,0,0.1-0.1,0.1-0.3c0,0,0,0-0.1,0c-0.2,0-0.5,0-0.7-0.1c-0.5,0-1.1-0.1-1.6-0.1c-0.6-0.1-1.1-0.2-1.7-0.2
			c-0.4,0-0.9,0.1-1.3,0.1c-0.3,0-1.3-0.2-1.6-0.2c-0.4,0-1,0-1.6,0.3c-0.7,0.4-1.1,1-1.3,1.7c-0.2,0.6-0.1,1.2,0.1,1.7
			c0.1,0.2,0.6,0.1,0.6-0.1c0-0.1-0.1-0.2,0-0.3C812,140.9,812.1,140.9,812.2,140.8z"/>
		<path class="st3" d="M685.7,137.3c-0.1,0-0.1-0.1-0.2-0.1c-0.2-0.1-0.3-0.1-0.5-0.1c-0.1,0-0.3-0.1-0.4,0
			c-0.3,0.1-0.7,0.1-1.1,0.1c-0.5,0.1-1,0.1-1.5,0.1c-0.4,0-1.4,0.2-1.5,0.3c-0.3,0-0.7,0.1-1,0.3c-0.3,0.3-0.6,0.5-1,0.6
			c-0.7,0.2-1.2,0.7-1.5,1.4c-0.2,0.4-0.3,0.9-0.3,1.3c0,0.1,0.1,0.1,0.3,0.1c0,0,0,0,0-0.1c0-0.2,0.1-0.4,0.2-0.6
			c0.2-0.4,0.5-0.8,0.8-1.1c0.4-0.3,0.9-0.5,1.3-0.6c0.4-0.1,0.7-0.3,1.1-0.4c0.2-0.1,1.2,0,1.4,0c0.4,0,0.8,0,1.2-0.1
			c0.6-0.1,1.1-0.2,1.7-0.3c0.5-0.1,1-0.2,1.4-0.4c0.2-0.1,0.1-0.6-0.1-0.6C686,137.2,685.8,137.3,685.7,137.3z"/>
		<path class="st3" d="M655.2,259c-2,0-3.8,0.8-5.1,2.2c-0.2,0.3-0.4,0.7-0.5,0.9c-0.3,0.5-0.5,1-0.7,1.6c-0.1,0.4-0.2,0.8-0.2,1.3
			c0,0.2-0.1,0.3-0.1,0.5c0,0.2,0,0.4-0.2,0.5c-0.1,0.1-0.1,0.1-0.2,0.2c-0.1,0.2,0,0.3,0,0.5c0,0.1-0.1,0.1-0.1,0.1
			c0.3,3.6,3.4,6.5,7.1,6.5c3.9,0,7.1-3.2,7.1-7.1S659.2,259,655.2,259z"/>
		<path class="st3" d="M674.4,259c-0.3,0.1-0.6,0.2-0.9,0.3c-0.7,0.3-1.4,0.5-2.1,0.7c-0.4,0.1-0.8,0.4-1,0.8
			c-0.2,0.3-0.5,0.5-0.8,0.7c-0.1,0.1-0.8,0.9-1.1,1.1c-0.4,0.4-0.7,0.8-0.9,1.3c-0.1,0.1-0.1,0.2-0.2,0.3c-0.2,0.6-0.3,1.2-0.3,1.9
			c0,3.9,3.2,7.1,7.1,7.1s7.1-3.2,7.1-7.1C681.5,262.2,678.3,259,674.4,259z"/>
		<path class="st3" d="M724.6,266.1c0,2.3,1.1,4.3,2.7,5.6c0,0,0,0,0,0c0.1,0,0.1,0.1,0.2,0.1c1.2,0.9,2.6,1.4,4.2,1.4
			c0.1,0,0.2,0,0.3,0c0-0.1,0.1-0.2,0.2-0.2c0.7-0.1,1.3-0.3,1.8-0.6c0.7-0.3,1.3-0.8,1.8-1.2c0.4-0.4,0.8-0.7,1.1-1.2
			c0.1-0.1,0.4-0.4,0.6-0.8c0.2-0.3,0.4-0.7,0.5-0.9c0.2-0.5,0.3-1.1,0.4-1.6c0.1-0.6,0.3-1.3,0.3-2c-0.6-3.3-3.5-5.8-7-5.8
			C727.8,259,724.6,262.1,724.6,266.1z"/>
		<path class="st3" d="M767.8,248.7c0-3.3-2.3-6.1-5.4-6.9c-0.3,0-0.7,0.1-1,0.1c-1,0-1.9,0-2.8,0c0,0,0,0-0.1,0
			c-0.5,0.1-0.9,0.3-1.3,0.6c0,0,0,0-0.1,0.1c-0.3,0.3-0.6,0.4-0.9,0.6c-1.6,1.3-2.7,3.3-2.7,5.6c0,3.9,3.2,7.1,7.1,7.1
			S767.8,252.7,767.8,248.7z"/>
		<path class="st3" d="M806.1,248.7c0-3.9-3.2-7.1-7.1-7.1c-0.5,0-1.1,0.1-1.6,0.2c-0.2,0.1-0.3,0.2-0.5,0.4
			c-0.3,0.3-0.8,0.5-1.2,0.7c-0.2,0.1-1.2,0.9-1.5,1.3c-0.4,0.5-0.8,1.1-1,1.7c-0.2,0.5-0.4,0.9-0.5,1.4c0,0.2-0.1,0.4-0.2,0.6
			c-0.1,0.2-0.1,0.4-0.3,0.6c-0.1,0.1-0.2,0.1-0.2,0.2c-0.1,0.1-0.1,0.3-0.1,0.4c0.2,3.8,3.3,6.7,7.1,6.7
			C802.9,255.9,806.1,252.7,806.1,248.7z"/>
		<path class="st3" d="M837.5,242c-0.2,0-1.4,0.1-1.8,0.2c-0.6,0.1-1.2,0.2-1.8,0.4c-0.2,0.1-0.4,0.1-0.6,0.2
			c-1.9,1.3-3.2,3.5-3.2,5.9c0,3.9,3.2,7.1,7.1,7.1c3.9,0,7.1-3.2,7.1-7.1c0-3.2-2.1-5.9-4.9-6.8c-0.2,0-0.5,0-0.7,0.1
			C838.4,242.1,837.9,242,837.5,242z"/>
		<path class="st3" d="M858.6,255.5c0-0.2,0.1-0.3,0.1-0.3c0.4-0.1,0.8-0.4,1.2-0.7c0.4-0.3,0.7-0.8,1-1.2c0.3-0.3,0.5-0.7,0.7-1
			c0.2-0.2,0.8-1,0.9-1.2c0.2-0.4,0.3-0.8,0.5-1.2c0.1-0.3,0.3-0.5,0.4-0.8c0-0.1,0-0.3,0-0.4c0-3.9-3.2-7.1-7.1-7.1
			s-7.1,3.2-7.1,7.1c0,3.9,3.2,7.1,7.1,7.1C857.2,255.9,857.9,255.7,858.6,255.5z"/>
		<path class="st3" d="M849.3,278.4c-0.7-0.1-1.4-0.2-2.1-0.4c-0.5-0.1-0.9,0-1.3,0.2c-0.3,0.2-0.7,0.2-1.1,0.3
			c-0.2,0-1.2,0.4-1.6,0.6c-0.5,0.2-1,0.5-1.5,0.9c-0.3,0.2-0.7,0.5-0.9,0.8c-0.1,0.1-0.2,0.2-0.3,0.3c-0.7,1.1-1.1,2.4-1.1,3.9
			c0,3.9,3.2,7.1,7.1,7.1s7.1-3.2,7.1-7.1C853.6,282,851.8,279.5,849.3,278.4z"/>
		<path class="st3" d="M793.8,261.6c-0.4-0.2-0.7-0.5-1-0.9c-0.1-0.1-1.2-0.9-1.6-1.1c-0.5-0.3-1.1-0.5-1.7-0.7c-0.1,0-0.3,0-0.4,0
			c-3.9,0-7.1,3.2-7.1,7.1s3.2,7.1,7.1,7.1s7.1-3.2,7.1-7.1c0-0.5,0-0.9-0.1-1.3c-0.4-0.7-0.8-1.4-1.2-2.1
			C794.7,262.1,794.3,261.8,793.8,261.6z"/>
		<path class="st3" d="M771.7,224.3c0,0.1-0.1,0.1-0.1,0.1c-0.5-0.1-1.1-0.1-1.6-0.1c-0.8,0.1-1.5,0.2-2.3,0.4
			c-0.5,0.1-0.9,0.3-1.1,0.7c-0.2,0.3-0.6,0.5-0.9,0.7c-0.1,0.1-0.9,0.9-1.2,1.2c-0.4,0.4-0.7,0.9-1,1.4c-0.1,0.2-0.2,0.4-0.4,0.6
			c-0.2,0.6-0.3,1.3-0.3,2c0,3.9,3.2,7.1,7.1,7.1c3.9,0,7.1-3.2,7.1-7.1C777.1,227.8,774.8,225,771.7,224.3z"/>
		<path class="st3" d="M770,273.2c3.9,0,7.1-3.2,7.1-7.1s-3.2-7.1-7.1-7.1c-1.1,0-2.1,0.2-3,0.7c-0.2,0.3-0.5,0.4-0.8,0.6
			c-0.1,0.1-0.9,0.9-1.1,1.3c-0.3,0.5-0.6,1-0.9,1.5c-0.2,0.4-0.4,0.8-0.5,1.2c0,0.2-0.2,0.3-0.2,0.5c-0.1,0.2-0.2,0.3-0.3,0.5
			c-0.1,0-0.2,0.1-0.2,0.1c0,0,0,0.1-0.1,0.1c0,0.3,0,0.5,0,0.8C762.8,270,766,273.2,770,273.2z"/>
		<path class="st3" d="M750.9,273.2c1.2,0,2.3-0.3,3.2-0.8c0.1-0.1,0.2-0.2,0.3-0.3c0.4-0.5,0.7-1,1.1-1.4c0.3-0.4,0.6-0.7,0.9-1
			c0.2-0.2,0.9-0.9,0.9-1.1c0.1-0.4,0.2-0.8,0.2-1.2c0.1-0.5,0.2-1.1,0.2-1.7c0-0.6-0.1-1.1-0.2-1.6c0-0.2-0.1-0.4-0.2-0.6
			c0,0,0,0,0-0.1c0.1,0,0.1-0.1,0.2-0.1c-1.1-2.5-3.6-4.3-6.5-4.3c-3.9,0-7.1,3.2-7.1,7.1S746.9,273.2,750.9,273.2z"/>
		<path class="st3" d="M705.9,268.4c1,2.8,3.6,4.8,6.7,4.8c3.5,0,6.5-2.6,7-6c0-0.5,0-0.9-0.1-1.3c-0.1-0.4-0.2-0.8-0.4-1.2
			c-0.1-0.3-0.6-1.4-0.8-1.7c-0.3-0.4-0.6-0.8-0.9-1.3c-0.4-0.5-0.7-1.1-1.1-1.6c-0.1-0.2-0.3-0.3-0.5-0.5c-1-0.5-2-0.8-3.2-0.8
			c-2.9,0-5.4,1.7-6.5,4.2c-0.1,0.3-0.2,0.6-0.3,0.9c0,0,0,0,0,0c-0.1,0.3-0.1,0.5-0.2,0.8c0,0.2,0,0.5,0.1,0.7c0.1,0.4,0,0.8,0,1.3
			C705.6,267,705.7,267.9,705.9,268.4z"/>
		<path class="st3" d="M750.9,238.3c3.9,0,7.1-3.2,7.1-7.1c0-1.3-0.4-2.6-1-3.6c0,0,0,0,0,0c-0.4-0.3-0.9-0.5-1.3-0.7
			c-0.5-0.3-1-0.6-1.5-0.9c-0.4-0.2-0.7-0.4-1-0.6c-0.1-0.1-0.3-0.2-0.6-0.3c-0.3-0.1-0.6-0.2-0.7-0.2c-0.4-0.1-0.8,0-1.3-0.1
			c-0.5-0.1-1.1-0.2-1.6-0.3c-0.2,0-0.3,0-0.5,0c-2.8,1-4.8,3.6-4.8,6.7c0,0.7,0.1,1.4,0.3,2c0,0,0,0,0,0c0.2,0.6,0.6,1.1,0.9,1.6
			c0.3,0.3,0.6,0.7,1,0.9c0.2,0.1,0.2,0.3,0.4,0.4c0.1,0.1,0.3,0.2,0.4,0.4c0,0.1,0.1,0.2,0.1,0.3c0.1,0.2,0.3,0.2,0.4,0.3
			c0.1,0.1,0.1,0.2,0,0.3C748.3,238,749.6,238.3,750.9,238.3z"/>
		<path class="st3" d="M729.1,224.6c-0.2,0.1-0.9,0.6-1.1,0.8c-0.4,0.3-0.8,0.6-1.1,0.9c-0.2,0.3-0.5,0.5-0.7,0.8
			c-0.1,0.1-0.2,0.2-0.3,0.3c-0.1,0.1-0.2,0.2-0.4,0.3c0,0,0,0,0,0c-0.6,1-0.9,2.3-0.9,3.5c0,3.6,2.7,6.6,6.2,7.1
			c0.1,0,0.1,0,0.2-0.1c0.4-0.2,0.7-0.1,1.1-0.1c0.2,0,1.2-0.2,1.6-0.2c0.2,0,0.5-0.1,0.7-0.1c2.6-1.1,4.4-3.6,4.4-6.6
			c0-3.9-3.2-7.1-7.1-7.1C730.8,224.1,729.9,224.3,729.1,224.6z"/>
		<path class="st3" d="M696.2,224.6c-0.3,0-0.8-0.1-1-0.1c-0.4-0.1-0.8-0.1-1.3,0c-0.3,0-0.6,0-0.9,0.1c-0.1,0-0.3,0-0.4,0
			c-0.1,0-0.3,0-0.4-0.1c0,0-0.1-0.1-0.1-0.1c-3.2,0.7-5.7,3.5-5.7,7c0,3.9,3.2,7.1,7.1,7.1s7.1-3.2,7.1-7.1
			C700.6,228.2,698.8,225.7,696.2,224.6z"/>
		<path class="st3" d="M668.7,235.4c0.2,0.1,0.3,0.3,0.5,0.5c0.2,0.2,0.4,0.3,0.5,0.5c0,0.1,0.1,0.2,0.1,0.3c1.2,1,2.8,1.6,4.5,1.6
			c2.7,0,5-1.4,6.2-3.6c0-0.1,0-0.1,0.1-0.2c0.1-0.2,0.4-1,0.5-1.2c0.1-0.4,0-0.7,0.1-1.1c0.1-0.5,0.2-0.9,0.2-1.4
			c0-0.5,0-0.9-0.1-1.4c0,0,0,0,0-0.1c-0.8-3.1-3.6-5.4-6.9-5.4c-2.2,0-4.1,1-5.4,2.5c0,0,0,0,0,0.1c-0.4,0.5-0.6,1.1-0.6,1.7
			c0,0.5-0.2,1-0.4,1.5c-0.1,0.2-0.4,1.7-0.4,2.3c-0.1,0.5,0,1,0.1,1.5c0.2,0.5,0.4,1,0.7,1.4C668.5,235.2,668.6,235.3,668.7,235.4z
			"/>
		<path class="st3" d="M672,248.7c0-0.3,0-0.6-0.1-0.9c0-0.2-0.1-0.3-0.1-0.5c-0.2-0.5-0.4-1-0.6-1.4c-0.2-0.3-0.3-0.7-0.5-1
			c0-0.1-0.2-0.4-0.3-0.7c-1.3-1.6-3.3-2.6-5.5-2.6c-2.7,0-5.1,1.5-6.3,3.7c0,0.1-0.1,0.1-0.1,0.2c-0.2,0.7-0.3,1.3-0.5,2
			c-0.1,0.4-0.1,0.8,0.2,1.2c0.2,0.3,0.2,0.6,0.2,1c0,0.1,0.3,1.1,0.5,1.4c0.2,0.5,0.4,0.9,0.7,1.4c0.2,0.3,0.3,0.7,0.6,1
			c0.1,0.1,0.1,0.3,0.2,0.4c0.1,0.1,0.2,0.3,0.1,0.5c0,0,0,0,0,0c1.2,0.9,2.7,1.5,4.4,1.5C668.8,255.9,672,252.7,672,248.7z"/>
		<path class="st3" d="M683.7,255.7c0.5,0,1-0.1,1.5-0.1c0.3,0,0.7-0.1,1.1-0.1c2.8-0.9,4.9-3.6,4.9-6.8c0-2.2-1-4.2-2.6-5.5
			c-0.5-0.2-1.1-0.4-1.6-0.5c-0.5-0.1-1-0.3-1.5-0.3c-0.3-0.1-1.5-0.4-1.9-0.3c-0.5,0-1,0.1-1.6,0.2c-0.5,0.1-1,0.1-1.5,0.3
			c-0.6,0.3-1.1,0.7-1.6,1.2c-0.2,0.2-0.4,0.4-0.5,0.5c-0.4,0.5-0.7,1-0.9,1.6c-0.2,0.4-0.4,0.8-0.4,1.3c0,0.2-0.1,0.3-0.2,0.5
			c-0.1,0.4-0.1,0.8-0.1,1.2c0,2.4,1.2,4.5,2.9,5.8c0.3,0.1,0.5,0.2,0.8,0.3c0.5,0.2,0.9,0.3,1.4,0.5
			C682.2,255.3,683.4,255.7,683.7,255.7z"/>
		<path class="st3" d="M702.9,242c-0.4,0.1-0.8,0.2-1.2,0.3c-0.3,0.1-1.3,0.3-1.5,0.4c-0.4,0.2-0.7,0.5-1.1,0.7
			c-0.5,0.3-1,0.5-1.4,0.8c-1,1.2-1.6,2.8-1.6,4.5c0,3.9,3.2,7.1,7.1,7.1c2.8,0,5.3-1.7,6.4-4.1c0-0.1,0-0.2,0-0.3
			c0-0.4,0.1-0.7,0.3-1.1c0.1-0.1,0.2-1.2,0.3-1.6c0-0.2,0.1-0.4,0.1-0.6c-0.2-3.3-2.7-5.9-5.8-6.5
			C703.9,241.8,703.4,241.9,702.9,242z"/>
		<path class="st3" d="M777,242.1C777,242.2,777,242.2,777,242.1c-0.2,0.4-0.5,0.4-0.8,0.6c-0.1,0-0.7,0.6-1,0.8
			c-0.3,0.3-0.6,0.6-0.9,0.9c-0.2,0.2-0.4,0.5-0.6,0.8c-0.1,0.1-0.2,0.2-0.3,0.3c-0.1,0.1-0.1,0.1-0.2,0.1c-0.5,0.9-0.7,2-0.7,3.1
			c0,3.6,2.7,6.6,6.2,7.1c0,0,0,0,0,0c0.6-0.2,1.2-0.4,1.8-0.7c0.7-0.3,1.4-0.6,2-0.9c0.5-0.3,0.9-0.5,1.3-0.8
			c0.1-0.1,0.5-0.3,0.8-0.5c0.3-0.2,0.6-0.5,0.7-0.7c0.3-0.4,0.5-0.9,0.7-1.4c0.3-0.6,0.6-1.3,0.7-2c0-0.1,0.1-0.3,0.1-0.4
			c-0.2-3.8-3.3-6.7-7.1-6.7C778.8,241.6,777.9,241.8,777,242.1z"/>
		<path class="st3" d="M817.9,241.6c-0.2,0-0.3,0-0.5,0c-0.3,0.1-0.7,0.2-0.9,0.3c-0.4,0.1-0.8,0.3-1.2,0.5
			c-0.3,0.2-0.6,0.3-0.9,0.5c-0.1,0.1-0.3,0.1-0.4,0.1c-0.1,0-0.2,0.1-0.4,0c-1.7,1.3-2.8,3.3-2.8,5.6c0,3.9,3.2,7.1,7.1,7.1
			c0.3,0,0.5,0,0.8,0c0.7-0.4,1.3-0.8,1.9-1.2c0.5-0.3,1-0.7,1.5-1c0.1-0.1,0.5-0.3,0.9-0.6c0.3-0.3,0.6-0.6,0.7-0.7
			c0.3-0.5,0.5-1,0.8-1.5c0.2-0.3,0.3-0.7,0.5-1.1c0-0.3,0.1-0.7,0.1-1c0-3.9-3.1-7-6.9-7.1C818.2,241.6,818,241.6,817.9,241.6z"/>
		<path class="st3" d="M849.4,259.6c-0.3-0.1-0.6-0.2-1-0.3c-0.3-0.1-0.6-0.2-0.9-0.2c-0.1,0-0.2,0.1-0.4,0.1
			c-0.3,0.2-0.6,0.1-0.9,0.1c-0.1,0-1,0.2-1.3,0.3c-0.4,0.1-0.8,0.3-1.3,0.5c-0.3,0.1-0.6,0.2-0.9,0.5c-0.1,0.1-0.3,0.1-0.4,0.1
			c-0.1,0.1-0.3,0.1-0.5,0.1c0,0,0,0-0.1,0c-1.6,1.3-2.6,3.3-2.6,5.5c0,3.9,3.2,7.1,7.1,7.1c1.9,0,3.6-0.8,4.9-2
			c0.1-0.2,0.3-0.4,0.4-0.6c0.3-0.4,0.5-0.8,0.8-1.3c0.2-0.3,0.8-1.3,0.8-1.6c0-0.1,0.1-0.3,0.1-0.4c0.1-0.4,0.1-0.8,0.1-1.2
			C853.6,263.2,851.9,260.7,849.4,259.6z"/>
		<path class="st3" d="M832.5,280c-1.1-1.1-2.5-1.9-4.1-2.1c-0.2,0-0.3,0-0.5,0c-0.6,0.1-1.1,0.1-1.7,0.1c-0.3,0-0.7,0.1-0.9,0.4
			c-0.2,0.3-0.5,0.3-0.7,0.4c-0.1,0-0.8,0.5-1,0.6c-0.3,0.2-0.6,0.5-0.9,0.8c-0.2,0.2-0.4,0.4-0.6,0.7c-0.1,0.1-0.2,0.1-0.3,0.2
			c-0.1,0.1-0.2,0.2-0.3,0.2c-0.1,0-0.2,0-0.2,0c-0.1,0-0.1,0.2-0.2,0.3c0,0,0,0-0.1,0c-0.5,1-0.8,2.2-0.8,3.4
			c0,3.9,3.2,7.1,7.1,7.1c1.5,0,2.9-0.5,4.1-1.3c0.3-0.4,0.7-0.7,0.9-1.1c0.5-0.7,0.8-1.5,1-2.2c0.2-0.6,0.3-1.2,0.4-1.7
			c0-0.2,0.1-0.6,0.2-1.1c0-0.5,0-0.9,0-1.1c-0.1-0.6-0.3-1.2-0.6-1.8C833.1,281.2,832.9,280.6,832.5,280z"/>
		<path class="st3" d="M810,259.2c-0.2,0-0.5-0.1-0.7-0.1c-0.3,0-0.7-0.1-1-0.1c-0.4,0-0.7,0-1,0.1c0,0,0,0-0.1,0
			c-0.3,0.2-0.7,0.2-1.1,0.3c-0.2,0-1.2,0.5-1.5,0.8c-0.5,0.3-0.9,0.7-1.3,1.1c-0.3,0.3-0.6,0.6-0.7,1c0,0.2-0.2,0.3-0.3,0.4
			c-0.1,0.2-0.2,0.3-0.4,0.4c-0.1,0-0.2,0.1-0.2,0.1c-0.4,0.9-0.6,1.8-0.6,2.8c0,3.9,3.2,7.1,7.1,7.1c1.2,0,2.4-0.3,3.4-0.8
			c0.1-0.1,0.2-0.2,0.4-0.2c0.1-0.1,0.3-0.2,0.4-0.3c0.2-0.1,0.4-0.3,0.5-0.4c1.5-1.3,2.5-3.2,2.5-5.4
			C815.4,262.7,813.1,259.9,810,259.2z"/>
		<path class="st3" d="M693.9,259.1c-0.6,0.1-1.2,0.3-1.8,0.5c-0.4,0.2-0.9,0.3-1.3,0.5c-0.3,0.1-1.3,0.5-1.5,0.7
			c-0.4,0.3-0.7,0.6-1,0.9c-0.4,0.4-0.9,0.8-1.3,1.2c-0.5,0.9-0.7,2-0.7,3.1c0,3.9,3.2,7.1,7.1,7.1c1.5,0,3-0.5,4.1-1.3
			c0,0,0.1-0.1,0.1-0.1c0.4-0.3,0.8-0.7,1.2-1.1c0,0,0-0.1,0.1-0.1c0.3-0.3,0.4-0.7,0.5-1.1c0.1-0.3,0.2-0.6,0.2-1
			c0-0.1,0.1-0.3,0.1-0.4c0-0.1,0.1-0.3,0.2-0.4c0.1,0,0.2-0.1,0.2-0.1c0.1-0.1,0.1-0.3,0.1-0.4c0-0.1,0.1-0.1,0.2-0.1
			c0-0.3,0.1-0.7,0.1-1c0-3.6-2.7-6.6-6.2-7.1C694.2,259,694.1,259.1,693.9,259.1z"/>
		<path class="st3" d="M645.7,255.9c1.3,0,2.5-0.4,3.6-1c0.4-0.3,0.8-0.7,1.1-1.1c0.3-0.3,0.5-0.6,0.7-0.9c0.2-0.2,0.7-0.9,0.8-1.2
			c0.1-0.4,0.2-0.8,0.3-1.2c0.1-0.5,0.3-1,0.4-1.6c0.1-0.5,0.1-1.1,0.1-1.6c0,0,0-0.1,0-0.1c-0.7-3.1-3.4-5.5-6.7-5.6
			c-0.2,0-0.5,0.1-0.7,0.1c-0.8,0.2-1.5,0.3-2.3,0.4c-0.1,0-0.2,0.1-0.3,0.1c0,0,0,0-0.1,0c-0.3,0.1-0.5,0.4-0.7,0.7
			c-0.2,0.4-0.5,0.5-0.8,0.8c-0.1,0.1-0.8,1-1,1.3c-0.3,0.5-0.6,1-0.8,1.5c-0.1,0.4-0.3,0.8-0.4,1.2c0,0.2-0.1,0.3-0.2,0.5
			c0,0.1-0.1,0.2-0.2,0.3c0,0,0,0,0,0.1C638.5,252.7,641.7,255.9,645.7,255.9z"/>
		<path class="st3" d="M655.5,238.3c0.2-0.1,0.4-0.1,0.6-0.2c0.4-0.1,0.8-0.3,1.2-0.5c0.3-0.2,0.6-0.3,0.9-0.4
			c0.2-0.1,0.9-0.3,1.1-0.5c0.3-0.2,0.5-0.5,0.7-0.7c0.3-0.3,0.7-0.5,1-0.9c0.3-0.3,0.5-0.7,0.7-1c0.1-0.2,0.2-0.3,0.2-0.5
			c0,0,0,0,0,0c0,0,0.1,0,0.1,0c0.3-0.8,0.5-1.6,0.5-2.5c0-3.5-2.5-6.4-5.8-7c-0.5,0.1-1,0.1-1.5,0c-0.3,0-0.6,0-0.8,0.3
			c-0.2,0.2-0.4,0.2-0.7,0.3c-0.1,0-0.8,0.3-1,0.4c-0.3,0.1-0.7,0.3-1,0.5c-0.2,0.2-0.5,0.3-0.6,0.5c-0.1,0.1-0.2,0.1-0.3,0.1
			c-0.1,0.1-0.2,0.1-0.4,0.1c-0.1,0-0.1-0.1-0.2-0.1c-0.1,0-0.2,0.1-0.3,0.2c0,0,0,0-0.1,0c-1.1,1.3-1.8,2.9-1.8,4.7
			c0,3.9,3.2,7.1,7.1,7.1C655.3,238.3,655.4,238.3,655.5,238.3z"/>
		<path class="st3" d="M656.8,278c-0.6,0.1-1.1,0.2-1.6,0.4c-0.5,0.1-0.9,0.2-1.3,0.4c-0.3,0.1-1.4,0.3-1.6,0.5
			c-0.4,0.2-0.8,0.5-1.1,0.8c-0.5,0.3-1,0.6-1.4,1c-0.4,0.4-0.8,0.9-1.1,1.3c-0.1,0.1-0.1,0.2-0.2,0.3c-0.3,0.7-0.4,1.5-0.4,2.3
			c0,2.7,1.5,5,3.7,6.2c0.7,0.1,1.3,0.2,2,0.3c0.5,0.1,1.1,0.1,1.6-0.1c0.4-0.2,0.9-0.1,1.3-0.1c0.2,0,1.5-0.2,1.9-0.4
			c0.3-0.1,0.6-0.2,0.9-0.2c1.7-1.3,2.8-3.4,2.8-5.7C662.4,281.6,660,278.7,656.8,278z"/>
		<path class="st3" d="M676.6,278.2c-0.5,0-0.9,0.1-1.3,0.1c-0.4,0.1-0.9,0.1-1.3,0.2c-0.3,0-1.4,0.1-1.6,0.3
			c-0.4,0.2-0.8,0.4-1.2,0.6c-0.5,0.2-1.1,0.5-1.6,0.8c-0.5,0.3-0.9,0.7-1.2,1c-0.7,1.1-1.1,2.4-1.1,3.7c0,3.9,3.2,7.1,7.1,7.1
			c0.2,0,0.5,0,0.7,0c0.3-0.2,0.7-0.3,1-0.4c0.2,0,1.2-0.6,1.6-0.7c0.5-0.3,1-0.6,1.5-0.9c0.2-0.2,0.5-0.3,0.7-0.5
			c1-1.2,1.7-2.8,1.7-4.6C681.5,281.8,679.4,279.1,676.6,278.2z"/>
		<path class="st3" d="M789.4,224.1c-0.1,0-0.1,0-0.2,0c-0.7,0.2-1.4,0.4-2,0.6c-0.5,0.2-1,0.4-1.4,0.6c-0.1,0.1-0.5,0.2-0.8,0.4
			c-0.3,0.2-0.7,0.4-0.8,0.5c-0.4,0.4-0.7,0.8-1,1.2c-0.2,0.2-0.4,0.5-0.6,0.8c-0.4,0.9-0.6,1.9-0.6,2.9c0,3.9,3.2,7.1,7.1,7.1
			c1.1,0,2.1-0.3,3.1-0.7c0.1,0,0.1-0.1,0.2-0.1c0.5-0.4,1.1-0.9,1.5-1.4c0.3-0.4,0.7-0.7,1-1.2c0.1-0.2,0.3-0.3,0.4-0.4
			c0.1-0.1,0.2-0.2,0.3-0.3c0.4-0.9,0.7-1.9,0.7-3C796.2,227.4,793.2,224.2,789.4,224.1z"/>
		<path class="st3" d="M815.2,229.8c-0.3-0.6-0.6-1.1-1-1.6c-0.3-0.4-0.6-0.7-0.9-1.1c-0.2-0.2-1-1.1-1.2-1.3
			c-0.4-0.3-0.9-0.5-1.3-0.7c-0.6-0.3-1.1-0.6-1.8-0.9c-0.3-0.1-0.5-0.2-0.8-0.2c-3.9,0.1-7,3.2-7,7.1c0,0.1,0,0.2,0,0.3
			c0.1,0.1,0.1,0.2,0.2,0.3c0.2,0.2,0.3,0.5,0.3,0.7c0,0.1,0.4,0.8,0.6,1c0.2,0.4,0.4,0.7,0.7,1c0.2,0.2,0.3,0.5,0.6,0.7
			c0.1,0.1,0.1,0.2,0.2,0.3c0.1,0.1,0.1,0.2,0.1,0.4c0,0.1-0.1,0.2-0.1,0.2c0,0.1,0.1,0.2,0.2,0.3c0,0.1,0,0.1-0.1,0.2
			c1.2,1,2.8,1.6,4.5,1.6c3.9,0,7.1-3.2,7.1-7.1c0-0.4,0-0.7-0.1-1.1C815.2,230,815.2,229.9,815.2,229.8z"/>
		<path class="st3" d="M848.8,224.4C848.8,224.4,848.7,224.4,848.8,224.4c-0.9,0-1.6,0-2.5-0.1c-0.5,0-1,0.1-1.3,0.5
			c-0.3,0.3-0.7,0.4-1.1,0.5c-0.2,0-1.1,0.7-1.4,1c-0.4,0.4-0.8,0.8-1.2,1.3c-0.2,0.3-0.5,0.7-0.6,1.1c0,0.2-0.2,0.3-0.3,0.4
			c-0.1,0.2-0.2,0.3-0.3,0.4c-0.1,0-0.2,0.1-0.2,0.1c-0.1,0.1-0.1,0.3-0.2,0.5c-0.1,0.1-0.2,0.1-0.3,0.1c0,0.3-0.1,0.6-0.1,0.9
			c0,3.9,3.2,7.1,7.1,7.1c1.4,0,2.6-0.4,3.7-1.1c0.1-0.1,0.2-0.2,0.4-0.4c0.3-0.3,0.5-0.5,0.8-0.8c0.2-0.2,0.9-0.8,1-1
			c0.2-0.3,0.4-0.6,0.6-0.9c0.4-0.9,0.7-1.9,0.7-3C853.6,228.1,851.6,225.4,848.8,224.4z"/>
		<path class="st3" d="M831.7,225.5c-0.2-0.1-0.5-0.3-0.7-0.4c-0.5-0.3-1-0.4-1.5-0.3c-0.4,0.1-0.8,0-1.3-0.1c-0.2,0-1.4,0-1.9,0.1
			c-0.6,0-1.3,0.2-1.9,0.3c-0.4,0.1-0.9,0.2-1.3,0.3c-1.7,1.3-2.9,3.4-2.9,5.7c0,3.9,3.2,7.1,7.1,7.1c0.4,0,0.8,0,1.2-0.1
			c0.3-0.2,0.5-0.4,0.7-0.6c0.3-0.2,0.5-0.4,0.8-0.6c0.2-0.1,0.9-0.4,1.1-0.5c0.3-0.2,0.5-0.5,0.7-0.7c0.3-0.3,0.7-0.5,1-0.8
			c0.3-0.3,0.5-0.6,0.7-1c0.1-0.1,0.2-0.3,0.3-0.4c0,0,0,0,0,0c0.1,0,0.1,0,0.2,0.1c0.3-0.8,0.5-1.6,0.5-2.5
			C834.5,228.9,833.4,226.9,831.7,225.5z"/>
		<path class="st3" d="M834.4,265.9c0-0.3-0.1-1.4-0.2-1.7c-0.1-0.5-0.4-0.9-0.6-1.3c-0.1-0.3-0.3-0.6-0.4-0.9
			c-1.3-1.8-3.4-3.1-5.9-3.1c-0.6,0-1.3,0.1-1.9,0.3c-0.1,0.1-0.3,0.2-0.5,0.2c-0.1,0-0.6,0.4-0.8,0.5c-0.3,0.2-0.6,0.4-0.8,0.6
			c-0.2,0.2-0.4,0.3-0.6,0.5c-0.1,0.1-0.2,0.1-0.3,0.2c-0.1,0.1-0.2,0.1-0.3,0.1c0,0-0.1,0-0.1,0c-0.8,0.9-1.4,2-1.7,3.2
			c0.1,0.4-0.1,0.8-0.2,1.1c0,0.2,0,0.3,0,0.5c0,3.9,3.2,7.1,7.1,7.1c3.6,0,6.6-2.7,7.1-6.2C834.4,266.6,834.4,266.3,834.4,265.9z"
			/>
		<path class="st3" d="M748,251.6c0.1-0.5,0.1-0.9,0.1-1.4c0-0.5-0.1-1.1-0.2-1.6c-0.1-0.4-0.1-0.8-0.2-1.1c0-0.2-0.1-1.2-0.2-1.4
			c-0.2-0.4-0.4-0.7-0.6-1c-0.2-0.4-0.4-0.9-0.7-1.3c-0.3-0.4-0.7-0.8-1-1.1c-0.1-0.1-0.3-0.2-0.4-0.3c-1-0.5-2.1-0.8-3.2-0.8
			c-1.2,0-2.4,0.3-3.4,0.9c0,0,0,0-0.1,0c-0.1,0.1-0.2,0.1-0.3,0.2c-0.2,0.1-0.7,0.7-0.9,0.9c-0.3,0.3-0.6,0.7-0.8,1.1
			c-0.2,0.3-0.4,0.6-0.5,0.9c0,0.1-0.2,0.2-0.2,0.3c-0.1,0.1-0.2,0.3-0.3,0.3c-0.1,0-0.1,0-0.2,0.1c-0.3,0.8-0.4,1.6-0.4,2.5
			c0,3.9,3.2,7.1,7.1,7.1C744.4,255.9,746.9,254.1,748,251.6z"/>
		<path class="st3" d="M715.2,248.7c0,0.6,0.1,1.2,0.2,1.7c0.1,0.3,0.3,0.8,0.4,1c0.2,0.5,0.5,0.9,0.8,1.3c0.2,0.3,0.5,0.6,0.8,0.8
			c0.1,0.1,0.2,0.2,0.3,0.3c0.1,0.1,0.2,0.2,0.3,0.4c0,0.1,0,0.1,0,0.2c1.2,0.9,2.7,1.4,4.3,1.4c1.9,0,3.6-0.7,4.9-1.9c0,0,0,0,0,0
			c0.4-0.5,0.7-1,1-1.6c0.2-0.4,0.4-0.8,0.6-1.2c0.1-0.1,0.2-0.4,0.3-0.8c0.1-0.3,0.2-0.7,0.2-0.8c0-0.5,0-0.9-0.1-1.4
			c0-0.6-0.1-1.2-0.2-1.8c0,0,0-0.1,0-0.1c0-0.1-0.1-0.1-0.1-0.2c-1.1-2.6-3.6-4.3-6.6-4.3C718.4,241.6,715.2,244.8,715.2,248.7z"/>
		<path class="st3" d="M716,224.9c-0.4-0.1-0.9-0.2-1.3-0.2c-0.6-0.1-1.1-0.1-1.7,0c-0.4,0-0.8,0-1.2,0c-0.2,0-1.2,0-1.5,0.1
			c-0.4,0.1-0.8,0.3-1.2,0.4c-0.3,0.1-0.5,0.2-0.8,0.2c-1.8,1.3-2.9,3.4-2.9,5.8c0,2.7,1.5,5.1,3.8,6.3c0,0,0.1,0,0.1,0
			c0.4,0,0.7,0.2,1.1,0.3c0.1,0.1,1.2,0.2,1.6,0.2c0.5,0,1.1,0,1.6-0.2c0.4-0.1,0.8-0.2,1.1-0.4c0.1-0.1,0.3-0.1,0.4-0.1
			c0.2-0.1,0.3-0.1,0.5-0.1c0.1,0,0.2,0.1,0.3,0c0.2,0,0.3-0.2,0.4-0.2c0.1,0,0.2,0,0.3,0.1c1.9-1.3,3.2-3.5,3.2-5.9
			C719.7,228.5,718.2,226.2,716,224.9z"/>
		<path class="st3" d="M812.5,290.6c1.7-1.3,2.8-3.4,2.8-5.7c0-2.2-1-4.2-2.6-5.5c-0.2-0.1-0.4-0.2-0.6-0.2
			c-0.3-0.1-0.6-0.3-0.9-0.4c-0.2-0.1-0.9-0.4-1.2-0.5c-0.4,0-0.7,0-1.1-0.1c-0.5,0-1-0.2-1.5-0.3c-0.5-0.1-0.9-0.1-1.4-0.2
			c-0.2,0-0.3,0-0.5-0.1h-21.7c-4,0.3-8,0.5-12,0.7c-4.2,0.2-8.3,0.2-12.4,0.2c-2.6,0-12.7-0.6-15.2-0.5c-4.2,0-8.4,0.3-12.7,0.2
			c-4.3-0.1-8.7-0.4-13.1-0.6h-24.4c-0.1,0-0.3,0.1-0.4,0.1c-0.5,0.1-1,0.2-1.3,0.6c-0.3,0.3-0.7,0.4-1.2,0.5
			c-0.2,0-1.3,0.6-1.7,0.8c-0.5,0.3-1,0.6-1.3,1.1c-0.3,0.3-0.5,0.7-0.7,1.1c-0.1,0.2-0.2,0.3-0.3,0.4c-0.1,0.2-0.2,0.3-0.4,0.5
			c-0.1,0-0.1,0.1-0.2,0.1c-0.2,0.7-0.3,1.3-0.3,2.1c0,3.9,3.2,7.1,7.1,7.1h43.2c1.3-0.2,2.5-0.3,3.8-0.6c3.3-0.7,7.1-0.5,10.8-0.4
			c1.5,0,12.1-0.3,16-0.3c5.4,0,10.9-0.1,16.3-0.3c4-0.1,8.1-0.1,12-0.5c1.6-0.2,3.2,0,4.8,0c1.7,0,3.5-0.1,5.2,0.3
			c0.7,0.2,1.4,0.4,2.1,0.5c1.5,0.2,3-0.2,4.5-0.1C812.3,290.6,812.4,290.6,812.5,290.6z"/>
		<path class="st3" d="M802.2,294c-5.5,0-10.9-0.1-16.4-0.1c-5.7-0.1-11.5-0.2-17.2-0.2c-4.5,0-8.9,0.1-13.4,0.1
			c-2.6,0-13.4-0.2-16.1-0.2c-4.4,0-8.7,0-13.2,0.1c-0.5,0-0.9,0-1.4,0c-0.6,0-1.2,0-1.9,0.1c-1.3,0.1-2.5,0.1-3.8,0
			c-0.9,0-1.7,0-2.6,0c-0.2,0-0.4,0.1-0.6,0.1c-0.7,0.2-1.4,0.1-2.2,0.1c-0.3,0-2.5,0.1-3.3,0.1c-1.1,0-2.2,0.1-3.3,0.1
			c-0.8,0-1.7,0-2.5,0.1c-0.3,0-0.7,0-1,0c-0.4,0-0.7,0-1.1-0.1c-0.1-0.1-0.3-0.1-0.4-0.2c-0.3-0.1-0.6,0-0.9,0c0,0,0,0,0,0
			c-2.4,0-4.9,0.1-7.3,0.1c-2,0-2.7,0.6-0.3,0.7c1.5,0,3-0.1,4.4,0c0.7,0,1.3,0.1,2,0.2c1.6,0.1,3.3,0.1,5,0.1c1.5,0,3.1,0.1,4.7,0
			c3.8-0.1,7.7-0.1,11.5-0.1c5.2-0.1,10.4-0.1,15.6-0.1c3.7,0,13.9-0.1,15.3-0.1c3.5,0,7.1,0.1,10.3-0.1c3.7-0.2,7.7-0.3,11.8-0.2
			c7.1,0.1,14,0.1,20.9,0c4.7-0.1,9.4-0.1,14.1-0.1c1,0,1.3-0.1,1.1-0.3c-0.2,0-0.4,0-0.7,0C806.9,294,804.5,294,802.2,294z"/>
		<path class="st3" d="M639.9,220.5c0.2-0.1,0.5-0.2,0.7-0.3c0.6-0.3,1.3-0.6,2-0.7c0.6-0.1,1.2-0.2,1.8-0.3c0.2,0,0.4-0.6,0.1-0.6
			c-0.2-0.1-0.4,0-0.6-0.1c-0.1,0-0.2-0.1-0.3-0.2c-0.2-0.1-0.5-0.1-0.7-0.1c-0.2,0-0.4,0-0.6,0c-0.5,0.2-1,0.3-1.5,0.4
			c-0.3,0.1-0.7,0.3-1,0.4c-0.3,0.2-0.6,0.3-0.9,0.5c-0.5,0.2-1.5,1.1-1.6,1.2c-0.4,0.3-0.8,0.5-0.9,1c-0.2,0.5-0.5,0.9-0.9,1.3
			c-0.6,0.7-1.1,1.5-1.3,2.3c-0.1,0.6-0.3,1.2-0.3,1.8c0,0.1,0.1,0.2,0.3,0.2c0,0,0-0.1,0-0.1c0.1-0.3,0.1-0.6,0.2-0.8
			c0.2-0.6,0.5-1.2,0.8-1.8c0.4-0.6,0.8-1.1,1.3-1.6c0.2-0.2,0.3-0.4,0.5-0.6c0.2-0.2,0.3-0.4,0.6-0.6c0.2-0.2,1.4-0.8,1.7-1
			C639.4,220.7,639.7,220.6,639.9,220.5z"/>
		<path class="st3" d="M683.6,172.3c0,0,0-0.1-0.1-0.2c0-0.1-0.1-0.1-0.1-0.1c0,0-0.1-0.1-0.1,0c-0.1,0.1-0.2,0.1-0.3,0.2
			c-0.1,0.1-0.2,0.1-0.4,0.1c-0.1,0-0.3,0.2-0.4,0.2c-0.1,0-0.2-0.1-0.2,0.1c-0.1,0.2-0.2,0.3-0.3,0.2c-0.2-0.1-0.4-0.1-0.5,0
			c-0.1,0.1-0.2,0.1-0.3,0.2c0,0,0,0.1,0,0.3c0,0,0,0,0,0c0.1,0,0.1,0,0.2,0c0.1,0,0.3,0,0.4,0.1c0.1,0,0.3,0.1,0.4,0.2
			c0.1,0,0.2-0.1,0.3-0.1c0.1,0,0.3,0.1,0.4,0.1c0.1,0,0.2,0,0.3-0.1c0.1-0.1,0.3-0.2,0.4-0.3c0.1-0.1,0.2-0.2,0.3-0.3
			c0,0,0-0.6,0-0.7C683.7,172.2,683.7,172.3,683.6,172.3z"/>
		<path class="st3" d="M637.3,140c0,0.5,0.2,1.7,0.2,1.9c0,0.4,0,0.9,0.2,1.3c0.3,0.4,0.4,0.9,0.3,1.4c0,0.9,0.1,1.7,0.3,2.6
			c0.2,0.6,0.3,1.1,0.5,1.7c0,0.1,0.1,0.1,0.3,0.1c0,0,0-0.1,0-0.1c0-0.3-0.1-0.6-0.1-0.8c-0.1-0.7-0.2-1.3-0.2-2c0-0.7,0-1.4,0-2.1
			c0-0.5-0.1-1.1-0.2-1.6c0-0.3,0.1-1.6,0.1-2c0-0.5,0-1.1,0-1.6c0-0.7-0.1-1.4-0.2-2.1c0-0.6-0.1-1.2-0.1-1.8
			c0-0.2-0.5-0.4-0.6-0.1c-0.1,0.2,0,0.4-0.1,0.5c0,0.1-0.1,0.2-0.2,0.2c-0.1,0.2-0.2,0.4-0.2,0.6c0,0.2-0.1,0.4-0.1,0.6
			c0.1,0.5,0,1,0,1.5C637.2,138.7,637.3,139.3,637.3,140z"/>
		<path class="st3" d="M611.2,134.1c0.3,0.1,0.7,0.1,1,0.1c0.3,0,0.6,0,0.9-0.1c0.7-0.2,1.5-0.2,2.3-0.3c1-0.1,2.1-0.3,3.1-0.4
			c0.7-0.1,2.7-0.4,3-0.4c0.7,0,1.4,0,2-0.3c0.7-0.3,1.5-0.4,2.3-0.4c1.4,0,2.8-0.1,4.1-0.3c0.9-0.1,1.8-0.2,2.8-0.4
			c0.2,0,0.2-0.1,0.2-0.3c0,0-0.1,0-0.1,0c-0.5,0-0.9,0-1.4,0c-1.1,0.1-2.2,0.1-3.3,0.2c-1.1,0-2.3,0-3.4,0.1
			c-0.9,0-1.8,0.2-2.7,0.3c-0.5,0-2.7,0.1-3.2,0.1c-0.9,0.1-1.7,0.2-2.6,0.3c-1.1,0.2-2.3,0.4-3.4,0.5c-1,0.2-1.9,0.3-2.9,0.5
			c-0.4,0.1-0.5,0.6,0,0.7c0.3,0,0.6-0.1,0.9,0C610.9,134,611,134.1,611.2,134.1z"/>
		<path class="st3" d="M610.8,138.1c0.3,0,0.6-0.1,0.9-0.1c0.1,0,0.3,0.1,0.4,0.1c0.3,0.1,0.6,0.1,1,0c0.3,0,0.6,0,0.9-0.1
			c0.7-0.2,1.5-0.2,2.2-0.3c1-0.1,2-0.2,3-0.3c0.7-0.1,2.7-0.3,3-0.3c0.7,0,1.4,0,2-0.2c0.7-0.3,1.5-0.4,2.3-0.3
			c1.4,0.1,2.7,0,4.1-0.2c0.9-0.1,1.8-0.2,2.7-0.2c0.2,0,0.2-0.1,0.2-0.3c0,0-0.1,0-0.1,0c-0.5,0-0.9,0-1.4,0c-1.1,0-2.1,0-3.2,0
			c-1.1,0-2.3-0.1-3.4,0c-0.9,0-1.7,0.2-2.6,0.2c-0.5,0-2.6,0-3.2,0c-0.9,0.1-1.7,0.1-2.6,0.3c-1.1,0.2-2.2,0.4-3.4,0.5
			c-0.9,0.2-1.9,0.3-2.9,0.5C610.4,137.5,610.3,138.1,610.8,138.1z"/>
		<path class="st3" d="M626.2,155c2.8-0.2,5.6-0.3,8.4-0.4c-0.3,0.4-0.3,0.7-0.3,1.1c0,0.4-0.2,0.8-0.1,1.2c0.3,0.8,0.3,1.5,0.4,2.3
			c0.5,0,0.9,0.1,1.2,0.1c1,0,2-0.1,3.1,0c0.1,0,0.3,0,0.4,0c-0.2-0.9-0.4-1.7-0.6-2.6c-0.3-1.3-0.6-2.6-1-3.9
			c0-0.2-0.3-0.3-0.6-0.4c0,0,0,0,0,0c0.1-0.2,0.2-0.3,0.2-0.5c0.1-0.2,0.1-0.5,0.1-0.8c0-0.2,0-0.4-0.1-0.6c0-0.1-0.5-0.2-0.6-0.2
			c0,0,0,0.1-0.1,0.1c0,0-0.1,0-0.2,0c-0.1,0-0.2,0.1-0.2,0.1c0,0-0.1,0.1-0.1,0.1c0.1,0.2,0,0.3,0,0.4c0,0.2-0.1,0.3-0.2,0.5
			c-0.1,0.1-0.2,0.5-0.2,0.5c-0.1,0.1-0.2,0.1-0.2,0.3c0,0,0,0,0,0c-0.1,0.1-0.3,0.1-0.3,0.3c0,0.1,0,0.1,0,0.2
			c-0.2,0.1-0.3,0.2-0.4,0.3c-1.1-0.1-2.3-0.1-3.4-0.2c-3.7-0.1-7.3-0.2-11-0.3c0.7-0.1,1.4-0.2,1.6-0.2c0.7,0,1.4,0,2-0.2
			c0.7-0.3,1.5-0.4,2.3-0.3c1.4,0,2.7,0,4.1-0.2c0.9-0.1,1.8-0.2,2.7-0.3c0.2,0,0.2-0.1,0.2-0.3c0,0-0.1,0-0.1,0c-0.5,0-0.9,0-1.4,0
			c-1.1,0-2.1,0.1-3.2,0.1c-1.1,0-2.3,0-3.4,0c-0.9,0-1.7,0.2-2.6,0.2c-0.5,0-2.6,0-3.1,0c-0.8,0-1.7,0.1-2.6,0.2
			c-1.1,0.1-2.2,0.2-3.4,0.3c-0.6,0-1.2,0.1-1.9,0.1c-0.1,0-0.3-0.1-0.4-0.1c-0.6-0.2-1.2-0.6-1.7-1c-0.8-0.7-1.4-1.6-1.6-2.6
			c-0.1-0.3-0.1-0.5-0.1-0.8l0-0.2l0-0.3l0-0.6c0-0.7,0-1.4,0-2.1c0,0,0-0.1,0.1-0.1c0.1,0,0.1-0.1,0.2-0.1c0.2-0.1,0.2-0.2,0.3-0.4
			c0-0.1,0.1-0.2,0.1-0.4c0-0.3,0.1-0.7,0.1-1c0.1-0.5,0.1-0.9,0.2-1.4c0.1-0.3,0-1.2,0-1.4c0-0.3,0.1-0.6-0.1-0.9
			c-0.2-0.3-0.3-0.7-0.2-1c0.1-0.6,0-1.2-0.3-1.8c0,0,0-0.1-0.1-0.1c0-0.3,0-0.6,0-0.9c0-0.3,0-0.4,0.1-0.5c0-0.1,0.1-0.3,0.1-0.4
			c0-0.2,0.1-0.4,0.1-0.6c0.3-0.9,0.8-1.7,1.6-2.3c0.4-0.3,0.8-0.5,1.2-0.7c0.2-0.1,0.5-0.2,0.7-0.2c0.1,0,0.2-0.1,0.4-0.1
			c0.1,0,0.2,0,0.4,0c4.1-0.2,8.2-0.6,12.4-1c3.5-0.3,7-0.6,10.5-1c0,0,0,0,0.1,0c0.1,0.1,0.1,0.3,0.1,0.4c0.1,0.1,0.2,0.2,0.3,0.3
			c0.1,0.1,0,0.4,0.1,0.5c0,0.1,0.1,0.2,0.2,0.4c0.1,0.2,0.2,0.3,0.3,0.5c0.1,0.2,0.2,0.3,0.2,0.5c0,0.1,0.6,0.2,0.6,0.2
			c0-0.1,0-0.1,0.1-0.2c0,0,0.1,0,0.2-0.1c0.1-0.1,0.1-0.1,0.2-0.2c0-0.1,0.1-0.1,0-0.2c-0.1-0.2-0.1-0.4-0.2-0.5c0,0,0-0.1,0-0.1
			c0.1,0,0.2,0,0.4,0c0-0.1,0.1-0.1,0.1-0.2c0.1-0.7,0.2-1.4,0.4-2.1c0.3-1.6,0.8-3.2,1.6-4.6c0.9-1.5,2.1-2.7,3.1-3.9
			c0.4-0.5,0.8-0.9,1.2-1.5c0.4-0.5,0.8-1,1.3-1.4c0.3-0.2,1.1-0.7,2-1.1c0.9-0.4,1.8-0.6,2.1-0.8c0.6-0.2,1.1-0.4,1.7-0.7
			c0.6-0.2,1.2-0.4,1.7-0.6c0.8-0.2,1.6-0.5,2.4-0.7l0.6-0.2l0.1,0l0,0l0.1,0l0,0l0,0c0.1,0,0.2,0,0.3-0.1l0.3-0.1l1.4-0.4
			c1.5-0.5,3.1-1,4.6-1.5c0.6-0.2,0.6-2.2-0.2-2.3c-0.5-0.1-0.9,0.3-1.4,0.1c-0.2-0.1-0.5-0.3-0.7-0.5c-0.6-0.4-1.1-0.3-1.6-0.3
			c-0.5,0-1-0.1-1.5,0.1c-0.3,0.1-0.6,0.2-0.9,0.3l-0.5,0.1l-0.1,0l0,0l0,0c-0.1,0,0.2,0,0.1,0l-0.1,0c-0.7,0.1-1.4,0.1-2.1,0.3
			c-0.9,0.3-1.9,0.4-2.7,0.7l-1.3,0.4l-1.3,0.5c-0.6,0.2-1.7,0.9-2.6,1.5c-0.9,0.7-1.7,1.3-1.9,1.4c-0.5,0.3-1.1,0.6-1.5,1.1
			c-0.4,0.4-0.8,0.9-1,1.5c-0.1,0.8-0.4,1.4-0.7,1.9c-0.3,0.6-0.7,1.1-1.2,1.6c-1.7,1.7-2.7,4-2.9,6.2c-0.1,0.8-0.1,1.5-0.2,2.3
			c0-0.5-0.3-0.9-1-1c-1-0.1-2.1,0.2-3.1-0.1c-0.5-0.1-0.9-0.4-1.4-0.6c-1.1-0.4-2.3-0.4-3.5-0.5c-1.1,0-2.2-0.2-3.3-0.1
			c-2.4,0.4-4.9,0.3-7.4,0.4c-0.2,0.1-0.3,0.2-0.5,0.4c-0.8,0.8-1.8,0.7-2.8,0.7c-0.2,0-1,0.2-1.7,0.5c-0.8,0.3-1.6,0.6-2,0.8
			c-1.1,0.5-2.1,1.3-2.9,2.2c-0.6,0.7-1.3,1.3-1.4,2.2c0,0.4-0.4,0.5-0.6,0.8c-0.2,0.3-0.3,0.6-0.9,0.8c-0.2,0.1-0.5,0.1-0.7,0.2
			c0,0,0,0.1-0.1,0.1c0,0.1,0,0.1,0,0.2l0,0.5l0,0.4c0,0.6,0.1,1.1,0.1,1.7c0.1,2.3,0.2,4.3,0.2,4.8c0,1.2-0.1,2.5-0.1,3.7
			c0,0.6,0,1.2,0.1,1.8c0.1,0.7,0.3,1.4,0.6,2c1.5,2.7,3.7,4.7,6.7,5.6c1.3,0.3,2.6,0.3,3.8,0.4c1.2,0.1,2.5,0.1,3.7,0.1
			C621.3,155.3,623.8,155.2,626.2,155z"/>
		<path class="st3" d="M826.1,169.4c2.1,0,4.3,0,6.4,0.1c2.2,0.1,4.5,0.2,6.7,0.2c1.8,0,3.5,0,5.2,0c1,0,5.2,0.3,6.3,0.3
			c1.7,0,3.4,0.1,5.1,0.1c2.2,0,4.5,0,6.8,0c1.9,0,3.9,0,5.8,0c0.8,0,1.1-0.5,0.2-0.6c-0.6-0.1-1.2,0-1.7-0.1
			c-0.3,0-0.5-0.1-0.8-0.2c-0.6-0.1-1.3-0.2-1.9-0.2c-0.6,0-1.2-0.1-1.8-0.1c-1.5,0.1-3,0-4.5,0c-2,0-4.1,0-6.1-0.1
			c-1.5,0-5.4,0-6,0c-1.4,0-2.8-0.1-4,0.1c-1.5,0.2-3,0.2-4.6,0.1c-2.8-0.1-5.5-0.2-8.2-0.1c-1.8,0.1-3.7,0.1-5.5,0.2
			c-0.4,0-0.5,0.1-0.4,0.3c0.1,0,0.2,0,0.3,0C824.3,169.3,825.2,169.3,826.1,169.4z"/>
		<path class="st3" d="M859.2,141.4c0,0.5,0.1,1.1,0.1,1.6c0,0.4,0.1,0.9,0.1,1.4c0,0.2,0.6,0.3,0.6,0.1c0.1-0.1,0-0.3,0.1-0.4
			c0-0.1,0.1-0.1,0.2-0.2c0.1-0.1,0.2-0.3,0.2-0.4c0-0.1,0.1-0.3,0.1-0.4c-0.1-0.4,0-0.7,0-1.1c0-0.5,0-1,0-1.5
			c0-0.3-0.1-1.3-0.1-1.4c0-0.3,0.1-0.7-0.1-1c-0.2-0.3-0.3-0.7-0.2-1.1c0.1-0.7,0.1-1.3,0-1.9c-0.1-0.4-0.1-0.9-0.2-1.3
			c0-0.1-0.1-0.1-0.3-0.1c0,0,0,0,0,0.1c0,0.2,0,0.4,0,0.6c0,0.5,0,1-0.1,1.5c0,0.5-0.2,1-0.2,1.6c0,0.4,0,0.8,0,1.2
			c0,0.2-0.2,1.2-0.2,1.5C859.2,140.6,859.2,141,859.2,141.4z"/>
		<path class="st3" d="M899.6,136.7c0-0.6,0-1.2-0.1-1.8c-0.1-0.7-0.3-1.4-0.6-2c-1.5-2.7-3.7-4.7-6.7-5.6c-1.3-0.3-2.6-0.3-3.8-0.4
			c-1.2-0.1-2.5-0.1-3.7-0.1c-2.5,0-4.9,0.1-7.3,0.2c-3.2,0.2-6.3,0.3-9.5,0.5c0-0.2,0-0.4,0-0.6c-0.1-1.9-0.6-3.8-1.2-5.7
			c-0.6-2-1.4-4-2.6-5.7c-1-1.3-2.4-2.3-3.7-3.3c-0.2-0.1-0.5-0.4-0.9-0.8c-0.4-0.3-0.9-0.7-1.4-1.1c-0.5-0.4-1-0.7-1.5-1
			c-0.5-0.3-0.8-0.5-1.1-0.6c-1.5-0.6-3.1-1-4.8-1.1c-0.5,0-1.1,0-1.6,0l-1.6,0.2c-1.1,0.1-1.9,0.3-2.9,0.5c-1.6,0.3-3.3,0.6-4.9,1
			c-0.7,0.1-0.9,2.1-0.1,2.3c0.5,0.1,1-0.2,1.4,0.1c0.2,0.1,0.4,0.4,0.7,0.6c0.5,0.4,1.1,0.4,1.6,0.5c0.5,0,1,0.2,1.5,0.1
			c0.6-0.2,1.3-0.3,1.9-0.3c0.6,0,1.1,0,1.7-0.1c0.8,0,1.5,0,2.3,0.1c0.8,0.1,1.5,0.2,2.3,0.5c0.3,0.1,0.7,0.2,1.1,0.3
			c0.4,0.1,0.9,0.3,1.4,0.5c0.9,0.4,1.7,0.7,1.9,0.9c0.4,0.3,0.8,0.7,1.2,1c0.4,0.3,0.9,0.6,1.5,0.7c0.7,0.1,1.3,0.4,1.8,0.8
			c0.5,0.4,0.9,1,1.2,1.6c0.9,2.1,1.8,4.1,2.7,6.1c0,0.1,0.1,0.2,0.1,0.2c0.1,0.5,0.1,1.1,0.2,1.6c0.1,0.5,0.2,0.9,0.2,1.4
			c0,0.3-0.1,1.5-0.1,1.7c0,0.5,0,0.9,0.1,1.4c0.1,0.6,0.1,1.3,0.2,1.9c0.1,0.5,0.1,1.1,0.2,1.7c0,0.2,0.6,0.3,0.6,0.1
			c0-0.2,0-0.3,0.1-0.5c0-0.1,0.1-0.1,0.2-0.2c0.1-0.2,0.1-0.4,0.2-0.5c0-0.2,0.1-0.3,0.1-0.5c-0.1-0.4-0.1-0.7-0.1-1.1
			c0,0,0.1,0,0.2,0c0.1,0,0.2-0.1,0.2-0.1c0-0.1,0.1-0.1,0.1-0.2c0-0.2,0.1-0.3,0.1-0.5c0.1-0.2,0.2-0.4,0.3-0.6
			c0-0.1,0.1-0.2,0.1-0.3c0.1-0.1,0.1-0.1,0.2-0.2c0.1-0.1,0.4-0.4,0.5-0.4c0.1,0,0.3,0,0.3-0.2c0.1-0.3,0.2-0.4,0.4-0.3
			c0.3,0.1,0.6,0,0.8-0.1c0.1-0.1,0.3-0.1,0.4-0.1c0.3,0,0.7,0,1,0c3.9,0.1,7.8,0.2,11.7,0.4c2,0.1,4.1,0.2,6.1,0.4
			c1.2,0.1,1.7,0.1,2.4,0.4c0.6,0.2,1.2,0.6,1.7,1c0.8,0.7,1.4,1.6,1.6,2.6c0.1,0.3,0.1,0.5,0.1,0.8l0,0.2l0,0.3l0,0.6
			c0,0.8,0,1.6,0.1,2.4c0,0.9-0.1,3.3-0.3,5.7c-0.1,1.2-0.1,2.4-0.2,3.4c0,0.3,0,0.4-0.1,0.5c0,0.1-0.1,0.3-0.1,0.4
			c0,0.2-0.1,0.4-0.1,0.6c-0.3,0.9-0.8,1.7-1.6,2.3c-0.4,0.3-0.8,0.5-1.2,0.7c-0.1,0-0.3,0.1-0.4,0.1c0-0.1-0.1-0.2-0.2-0.3
			c-0.3,0-0.5,0.1-0.8,0c-0.1,0-0.2-0.1-0.3-0.2c-0.3-0.1-0.6-0.1-0.9-0.1c-0.3,0-0.5-0.1-0.8,0c-0.6,0.1-1.3,0.1-2,0.1
			c-0.9,0.1-1.8,0.1-2.7,0.1c-0.6,0-2.4,0.1-2.6,0.2c-0.6,0-1.2-0.1-1.8,0.1c-0.6,0.2-1.3,0.3-2,0.2c-1.2-0.1-2.4-0.1-3.6,0
			c-0.8,0.1-1.6,0.1-2.4,0.2c-0.2,0-0.2,0.1-0.2,0.3c0,0,0.1,0,0.1,0c0.4,0,0.8,0,1.2,0.1c0.9,0,1.9,0.1,2.8,0.1c1,0,2,0.2,3,0.2
			c0.8,0,1.5-0.1,2.3-0.1c0,0,0.1,0,0.2,0c-0.9,0.1-1.8,0.2-2.7,0.2c-2.6,0.2-5.3,0.5-8,0.7c0,0-0.1-0.1-0.1-0.1
			c-0.2,0-0.3,0-0.4-0.1c-0.2,0-0.4-0.1-0.5-0.2c-0.1-0.1-0.5-0.1-0.5-0.2c-0.1-0.1-0.2-0.2-0.4-0.1c-0.1,0.1-0.2,0.1-0.3,0
			c0-0.1,0-0.1,0-0.1c0,0,0-0.1,0-0.1c-0.1,0-0.1,0-0.2-0.1c0,0,0,0,0,0c-0.1-0.2-0.3-0.3-0.5-0.4c-0.2-0.1-0.3-0.1-0.5-0.2
			c0,0-0.1,0-0.1,0.1c0,0,0,0-0.1,0c-0.1,0-0.2-0.1-0.3-0.1c0,0,0,0,0,0c0.1-0.4,0.2-0.9,0.1-1.3c-0.1-0.3-0.1-0.6-0.2-0.9
			c0-0.1-0.1-0.1-0.3,0c0,0,0,0,0,0c0,0.2,0,0.3,0,0.5c0,0.4,0,0.7-0.1,1.1c-0.1,0.4-0.2,0.7-0.3,1.1c0,0.1,0,0.3,0,0.4c0,0,0,0,0,0
			c0,0,0,0,0,0c0,0,0,0,0,0c0,0.1,0,0.3,0,0.4c0,0.2-0.3,0.8-0.4,1c-0.1,0.3-0.1,0.5-0.2,0.8c0,0.3-0.1,0.7-0.1,1.1
			c0,0.3-0.1,0.7-0.2,1c0,0.1,0.2,0.2,0.4,0.3c-0.1,0.8-0.1,1.6-0.2,2.4l-0.4,0c-4,0-7.9-0.1-11.9-0.1c-9-0.1-18.1-0.3-27.1-0.4
			c0,0,0.1,0,0.1,0c0.2,0,0.3-0.6,0-0.7c-0.2,0-0.3,0.1-0.5,0c-0.1,0-0.1-0.1-0.2-0.1c-0.2-0.1-0.4-0.1-0.5-0.1c-0.2,0-0.3,0-0.5,0
			c-0.4,0.1-0.8,0.2-1.2,0.2c-0.6,0.1-1.1,0.2-1.7,0.3c-0.4,0.1-1.5,0.5-1.6,0.5c-0.4,0.1-0.8,0.2-1,0.5c-0.3,0.4-0.7,0.6-1.1,0.7
			c-0.7,0.3-1.4,0.8-1.7,1.5c-0.2,0.5-0.3,1-0.2,1.5c0,0.1,0.1,0.1,0.3,0.1c0,0,0,0,0-0.1c0-0.2,0-0.4,0.1-0.6
			c0.2-0.5,0.5-0.9,0.9-1.2c0.4-0.3,1.3-0.6,0.3-0.1c0.4,0,0.9,0,1.3,0c0.7,0,1.5,0,2.2,0c0,0,0.1,0,0.1,0c0,0,0,0,0.1,0
			c0.1,0,0.1,0,0.2,0c0,0.1,0,0.1-0.1,0.2c0.8,0,1.7,0,2.5,0c4.3,0,8.6,0,12.8,0.1c1.4-0.3,2.8-0.6,4.2-0.9c1.2-0.2,2.4-0.2,3.5-0.2
			c0.7,0,3.6,0.6,4.3,0.5c1.2,0,2.4-0.3,3.6-0.2c1,0.1,1.9,0.3,2.9,0.4c-0.6,0.1-1.2,0.1-1.9,0.2c-0.4,0-0.5,0.1-0.4,0.4
			c0.1,0,0.2,0,0.2,0c0.9,0,1.8-0.1,2.7-0.1c0.6,0,1.1,0,1.7-0.1c2.2,0,4.4,0,6.6,0c0.3,0,0.7,0,1,0c1.2,0,2.4,0.1,3.5,0.1
			c1.7,0.1,3.4,0.1,5.1,0.2c0.5,0,1.8,0.1,3,0.4c1.2,0.2,2.4,0.6,2.8,0.8c0.5,0.2,1,0.4,1.4,0.7c0.4,0.5,0.8,1,1.1,1.6
			c0.3,0.7,0.5,1.5,0.6,2.3c0.1,0.8,0,1.7,0.1,2.5c0,3.4,0.1,6.8,0.1,10.2c0.1,6.8,0.1,13.6,0.2,20.4c0,2.7,0.4,3.7,1.1,3
			c0-0.6,0-1.3,0.1-1.9c0-3.1,0.1-6.2,0.1-9.3c0,0.3,0,0.6,0,0.9c0,0.4,0.6,0.5,0.6,0.1c0.1-0.3,0-0.6,0.1-0.8
			c0-0.1,0.1-0.2,0.2-0.4c0.2-0.3,0.2-0.6,0.2-0.9c0-0.3,0.1-0.6,0.1-0.9c0-0.7,0.1-1.5,0.2-2.2c0.1-1,0.3-2,0.4-3
			c0.1-0.7,0.3-2.7,0.4-3c0.1-0.7,0.2-1.4,0.1-2c-0.2-0.8-0.2-1.5-0.1-2.3c0.1-1.2,0-2.4-0.3-3.6c0-0.4,0-0.7-0.1-1.1
			c-0.1-0.6-0.1-1.2-0.2-1.8c-0.3-1.4-0.5-2.9-0.9-4.4c-0.3-1-0.8-2-1.5-2.9c0-0.1-0.1-0.1-0.1-0.2c-0.1-0.3-0.3-0.5-0.4-0.7
			c-1.3-2-3.5-3.4-5.9-3.8c-0.3-0.1-0.6-0.1-0.9-0.1l-0.4,0l-0.4,0l-1.5,0l-3,0l-3.2,0c0-0.4-0.1-0.8-0.2-1.2
			c-0.2-1.1-0.4-2.2-0.5-3.3c0-0.1-0.1-0.1-0.2-0.2c0-0.1,0.1-0.3,0.1-0.5c0-0.1,0.1-0.4,0.1-0.7c0.1,0,0.1,0.1,0.2,0.1
			c0.1,0,0.1,0,0.2,0c-0.7,0.6-0.7,1.8,0.6,1.9c1,0.1,2.1-0.2,3.1,0.1c0.5,0.1,0.9,0.4,1.4,0.6c1.1,0.4,2.3,0.4,3.5,0.5
			c1.1,0,2.2,0.2,3.3,0.1c1.7-0.3,3.5-0.3,5.3-0.4c1.9-0.7,3.8-1,5.9-1c1.2,0,2.3-0.4,3.2-1.4c0.8-0.9,1.7-0.9,2.5-1.1
			c0.2,0,0.8-0.4,1.1-0.9c0.3-0.4,0.5-1.1,0.6-1.5c0.2-0.6,0.3-1.4,0.5-2.1c0.2-0.7,0.3-1.5,0.4-2.2c0.2-1.1,0.6-2.2,0.5-3.3
			c0-0.5,0.3-0.8,0.5-1.3c0-0.1,0-0.1,0.1-0.2c0-0.7-0.1-1.3,0-1.5C899.6,139.1,899.6,137.9,899.6,136.7z M883.8,181.9
			C883.9,181.9,883.9,181.9,883.8,181.9c0,0.1,0,0.2,0,0.3C883.8,182.1,883.8,182,883.8,181.9z M883.7,191.4
			C883.8,191.4,883.8,191.4,883.7,191.4c0,0.2,0,0.4,0,0.6C883.7,191.8,883.7,191.6,883.7,191.4z"/>
		<path class="st3" d="M887.4,134.1c-0.9-0.1-1.7-0.1-2.6-0.2c-0.9-0.1-1.8-0.3-2.7-0.4c-0.7-0.1-1.4-0.1-2.1-0.1
			c-0.4,0-2.1-0.3-2.5-0.4c-0.7-0.1-1.4-0.1-2.1-0.1c-0.9,0-1.8,0-2.8,0c-0.8,0-1.6,0-2.4,0c-0.3,0-0.5,0.5-0.1,0.6
			c0.2,0.1,0.5,0,0.7,0.1c0.1,0,0.2,0.1,0.3,0.2c0.2,0.2,0.5,0.2,0.8,0.2c0.2,0,0.5,0.1,0.7,0.1c0.6,0,1.2,0.1,1.8,0.1
			c0.8,0,1.7,0.1,2.5,0.2c0.6,0,2.2,0.1,2.5,0.1c0.6,0.1,1.1,0.2,1.6,0c0.6-0.2,1.2-0.2,1.9-0.1c1.1,0.2,2.2,0.3,3.3,0.2
			c0.7,0,1.5,0,2.3,0c0.2,0,0.2-0.1,0.2-0.3c0,0-0.1,0-0.1,0C888.1,134.2,887.8,134.1,887.4,134.1z"/>
		<path class="st3" d="M883.2,136.9c-0.8-0.1-1.5,0-2.2-0.1c-0.4,0-2.2-0.3-2.7-0.3c-0.7,0-1.5-0.1-2.2-0.1c-1,0-1.9,0-2.9,0.1
			c-0.8,0-1.6,0.1-2.5,0.1c-0.3,0-0.5,0.6-0.1,0.6c0.2,0.1,0.5,0,0.7,0.1c0.1,0,0.2,0.1,0.3,0.2c0.3,0.1,0.5,0.2,0.8,0.2
			c0.3,0,0.5,0.1,0.8,0.1c0.6-0.1,1.3,0,1.9,0c0.9,0,1.7,0,2.6,0.1c0.6,0,2.3,0,2.5,0c0.6,0.1,1.2,0.2,1.7,0c0.6-0.2,1.3-0.2,2-0.1
			c1.2,0.2,2.3,0.3,3.5,0.3c0.8,0,1.6,0,2.3,0c0.2,0,0.2-0.1,0.2-0.3c0,0-0.1,0-0.1,0c-0.4,0-0.8-0.1-1.2-0.1
			c-0.9-0.1-1.8-0.2-2.7-0.3C885.1,137.2,884.1,137,883.2,136.9z"/>
		<path class="st3" d="M880.3,204.6c-0.9,0-1.8,0.1-2.7,0c-0.4,0-0.8-0.1-1.2-0.2c-1-0.1-2-0.1-3.1-0.1c-1,0-1.9-0.1-2.9,0
			c-2.3,0.1-4.8,0.1-7.1,0.1c-3.2,0.1-6.5,0.1-9.7,0.1c-2.3,0-8.6,0.1-9.5,0.1c-2.2,0-4.4-0.1-6.4,0.1c-2.3,0.2-4.7,0.3-7.3,0.2
			c-4.4-0.1-8.7-0.1-12.9,0c-2.9,0.1-5.8,0.1-8.7,0.1c-0.6,0-0.8,0.1-0.7,0.3c0.1,0,0.3,0,0.4,0c1.4,0,2.9,0,4.3,0.1
			c3.4,0,6.8,0.1,10.2,0.1c3.5,0.1,7.1,0.2,10.6,0.2c2.8,0,5.5-0.1,8.3-0.1c1.6,0,8.3,0.2,10,0.2c2.7,0,5.4,0,8.1-0.1
			c3.6-0.1,7.2-0.2,10.7-0.3c3-0.1,6.1-0.2,9.2-0.3C881.4,205.2,881.8,204.7,880.3,204.6z"/>
		<path class="st3" d="M635.7,171.6c1.2-0.1,2.4-0.1,3.6-0.2c1.6-0.1,3.2-0.2,4.8-0.2c1.2,0,4.3-0.2,4.7-0.2c1.1,0,2.2,0,3.2-0.2
			c1.1-0.2,2.4-0.3,3.6-0.3c2.2,0.1,4.3,0,6.5-0.1c1.4-0.1,2.9-0.2,4.3-0.2c0.3,0,0.4-0.1,0.3-0.3c-0.1,0-0.1,0-0.2,0
			c-0.7,0-1.4,0-2.2,0c-1.7,0-3.4,0-5.1,0c-1.8,0-3.6-0.1-5.3-0.1c-1.4,0-2.8,0.1-4.2,0.1c-0.8,0-4.1-0.1-5-0.1
			c-1.3,0-2.7,0.1-4.1,0.1c-1.8,0.1-3.6,0.2-5.4,0.4c-1,0.1-2,0.2-2.9,0.2c-0.9-0.3-2.4-0.4-2.6,0c-0.2,0.3,0.2,0.6-0.2,0.9
			c-0.2,0.1-0.6,0.2-0.9,0.3c-0.7,0.3-0.7,0.6-0.8,1c-0.1,0.3-0.4,0.6-0.3,1c0.4,0.9,0.2,1.8,0.2,2.6c0.1,1.2,0.1,2.4,0,3.5
			c-0.1,0.8,0.2,3.2,0.1,3.5c-0.2,0.8-0.6,1.5,0.2,2.4c1,1,1.1,1.9,0.6,2.8c-0.8,1.5-1,3.1-0.7,4.7c0.2,1.1,0.3,2.2,0.5,3.2
			c0,0.2,0.5,0.3,1.6,0.2c0,0,0.1-0.1,0.1-0.1c0.1-0.5,0.2-0.9,0.3-1.4c0.2-1.1,0.5-2.3,0.8-3.5c0.4-1.2,1.2-2.4,1.5-3.6
			c0.3-1,0-2,0.1-3c0.1-0.6,1.2-2.8,1.3-3.4c0.1-1,0.2-1.9,0.1-3c-0.1-1.3-0.5-2.7-0.8-4.1c-0.2-1-0.5-1.9-0.7-2.9c0.3,0,0.7,0,1,0
			C634.7,171.6,635.2,171.7,635.7,171.6z"/>
		<path class="st3" d="M809.3,184.3c-1.4-0.1-2.8,0-4.2-0.1c-0.7,0-1.3-0.1-1.9-0.2c-1.5-0.1-3.2-0.2-4.8-0.2c-1.5,0-3-0.1-4.5-0.1
			c-3.6,0.1-7.4,0.1-11.1,0.1c-5,0.1-10,0.1-15,0.2c-3.6,0.1-13.4,0.3-14.7,0.3c-3.4,0-6.8,0.1-9.9,0.3c-3.6,0.3-7.4,0.5-11.3,0.5
			c-6.8,0.1-13.5,0.3-20.1,0.7c-4.5,0.3-9,0.5-13.5,0.8c-0.9,0.1-1.2,0.2-1,0.4c0.2,0,0.4,0,0.6,0c2.2-0.1,4.5-0.2,6.7-0.3
			c5.3-0.2,10.5-0.4,15.8-0.6c5.5-0.1,11.1-0.2,16.5-0.3c4.3-0.1,8.6-0.2,12.9-0.4c2.5-0.1,12.9-0.1,15.5-0.1
			c4.2-0.1,8.4-0.1,12.6-0.2c5.5-0.1,11.1-0.2,16.7-0.2c4.7,0,9.5-0.1,14.2-0.1C810.9,184.9,811.5,184.4,809.3,184.3z"/>
		<path class="st3" d="M767.3,205.8c-0.4,0-0.9,0.1-1.3,0c-0.2,0-0.4-0.1-0.6-0.2c-0.5-0.1-1-0.1-1.5-0.1c-0.5,0-0.9-0.1-1.4,0
			c-1.1,0.1-2.3,0.1-3.4,0.1c-1.6,0.1-3.1,0.1-4.7,0.1c-1.1,0-4.2,0.1-4.6,0.1c-1,0-2.1-0.1-3.1,0.1c-1.1,0.2-2.3,0.3-3.5,0.2
			c-2.1-0.1-4.2-0.1-6.2,0c-1.4,0.1-2.8,0.1-4.2,0.1c-0.3,0-0.4,0.1-0.3,0.3c0.1,0,0.1,0,0.2,0c0.7,0,1.4,0,2.1,0.1
			c1.6,0,3.3,0.1,4.9,0.1c1.7,0.1,3.4,0.2,5.1,0.2c1.4,0,2.7-0.1,4-0.1c0.8,0,4,0.2,4.8,0.2c1.3,0,2.6,0,3.9-0.1
			c1.7-0.1,3.5-0.2,5.2-0.3c1.5-0.1,2.9-0.2,4.4-0.3C767.8,206.4,768.1,205.9,767.3,205.8z"/>
		<path class="st3" d="M881,225.3c0.1-2.3,0.1-4.5,0-6.6l-0.3-4.5c0-0.3-0.1-0.4-0.3-0.3c0,0.1,0,0.1,0,0.2c0,0.6,0,1.2,0,1.8
			c-0.1,0.1-0.2,0.2-0.2,0.5c-0.1,0.6,0,1.2-0.1,1.8c0,0.3-0.1,0.5-0.2,0.8c-0.2,0.6-0.2,1.3-0.2,2c0,0.6-0.1,1.3-0.1,1.9
			c0,1.6,0,3.2-0.1,4.7c0,2.1-0.1,4.3-0.2,6.4c-0.1,1.5-0.1,5.7-0.1,6.3c-0.1,1.4-0.2,2.9-0.1,4.2c0.2,1.5,0.1,3.2,0,4.9
			c-0.2,2.9-0.4,5.8-0.4,8.6c0,1.9-0.1,3.9-0.1,5.8c0,0.4,0.1,0.5,0.3,0.4c0-0.1,0-0.2,0-0.3c0.1-1,0.1-1.9,0.2-2.9
			c0.1-2.3,0.2-4.5,0.4-6.8c0.1-1.1,0.2-2.2,0.2-3.4c0-0.1,0.1-0.1,0.1-0.2c0.1-0.5,0-0.9,0.2-1.4c0.1-0.2,0.2-0.4,0.2-0.6
			c0.2-0.5,0.2-1,0.3-1.6c0.1-0.5,0.2-1,0.2-1.5c0-1.2,0.1-2.5,0.2-3.7c0.1-1.7,0.1-3.3,0.2-5c0.1-1.2,0.1-4.4,0.1-4.9
			c0.1-1.1,0.2-2.3,0-3.3C880.9,227.9,880.9,226.7,881,225.3z"/>
	</g>
	<path class="st3" d="M876,294.5c-0.1-0.5-0.4-0.6-0.8-0.3c-0.1,0.6-0.1,1.2-0.3,1.8c-0.6,3.2-2.4,6.1-4.8,8.3
		c-2.4,2.2-5.5,3.5-8.7,3.8c-0.5,0-0.9,0-1.4,0.1c-0.5,0-1,0-1.5,0l-3.1,0l-6.2,0l-12.4-0.1c-5.2,0-10.4-0.1-15.6-0.1
		c-1.9,0-3.7,0-5.6-0.1c-10.5-0.2-21-0.6-31.5-0.7c-4.9-0.1-9.7,0-14.4,0.1c-3.2,0-6.3-0.1-9.5-0.1c-4.1,0-8.1,0-12.2,0
		c-7.1-0.2-15.1-0.3-18-0.3c-8,0-16,0.1-24.1,0.2c-1.3,0-2.6,0.1-3.9,0.1c-11.9-0.1-25.9-0.3-30.8-0.3c-1.6,0-3.3,0-4.9,0
		c-0.7,0.2-1.4,0.4-2.2,0.6c-1.6,0.4-3.3,0.8-4.9,1.1c0,0-0.1,0-0.1,0c-1.4,0.1-2.8,0.1-4.3,0.2c-1.2-0.2-3.4-0.6-4-0.7
		c-1.3-0.1-2.6,0.1-3.8-0.1c-1.2-0.2-2.6-0.6-3.9-1.1c-0.1,0-0.1,0-0.2,0c-0.3,0-0.7,0-1-0.1c-1.4-0.1-2.7-0.5-4-1.1
		c-1.3-0.6-2.5-1.3-3.5-2.2c-1.4-1.2-2.6-2.7-3.4-4.3c-0.8-1.7-1.3-3.4-1.5-5.4c-0.1-1.7-0.3-3.4-0.4-5.1c-0.3-0.2-0.6-0.5-0.7-0.9
		c-0.6-3.2-1.1-6.3-1.6-9.5c-0.6-3.7-1.3-7.4-1.8-11.2c-0.4-2.8-0.6-5.7-0.8-8.5c-0.1-1.8-0.1-8.7-0.2-10.4
		c-0.2-2.9-0.7-5.7-0.8-8.7c-0.2-3.7,0-7.4-0.1-11.1c-0.1-3.6-0.3-7.1-0.4-10.6c0-1.3-0.1-2.6-0.1-3.9c-0.1-1.2-0.2-2.4-0.3-3.7
		c-0.1-1.3-0.3-2.5-0.6-3.3c0.4,0,0.8,0,1.2,0.1c0.4,0.1,0.8,0.4,1.2,0.6c0.9,0.4,1.9,0.4,2.9,0.5c0.9,0,1.9,0.2,2.7,0.1
		c2.2-0.4,4.6-0.3,6.8-0.5c3.1-0.2,6.2-0.3,9.2-0.4c2.2,0,8.2-0.5,9-0.5c2.1,0.1,4.2,0.3,6.1-0.4c2.2-0.8,4.5-1,7-0.7
		c4.2,0.4,8.3,0.4,12.3,0.1c2.8-0.2,5.5-0.4,8.3-0.5c0.6,0,0.8-0.4,0.6-1.1c-0.1,0-0.3,0-0.4-0.1c-1.4-0.1-2.8-0.2-4.1-0.2
		c-3.2-0.1-6.5-0.2-9.7-0.4c-3.4-0.2-6.8-0.6-10.2-0.7c-2.7-0.1-5.3,0.2-7.9,0.2c-1.6,0-7.9-0.5-9.5-0.5c-2.6,0-5.2,0.1-7.8,0.2
		c-3.4,0.2-6.8,0.6-10.3,1c-2.3,0.2-4.7,0.5-7,0.8c0.3-0.6,0.5-2,0.6-4.4c0-1,0-2,0-3c0-2.1-0.1-4.1,0-6.2c0-1.6,0-3.3,0.1-4.9
		c0.1-2.2,0.4-4.2,0.6-6.4c0.2-2.5,0.3-5.2,0.4-7.9c0-0.7,0-1.3,0-2l0-0.5c0-0.2,0-0.2,0-0.4c0-0.2,0.1-0.4,0.1-0.6
		c0-0.1,0.1-0.2,0.1-0.3c0.1,0,0.2,0,0.2-0.1c0.1-0.2,0.1-0.4,0.2-0.5c0.1-0.1,0.2-0.1,0.2-0.2c0.2-0.1,0.3-0.3,0.4-0.5
		c0.1-0.1,0.2-0.2,0.3-0.4c0.2-0.4,0.5-0.5,0.9-0.7c0.6-0.2,1.2-0.2,1.9-0.2c0.5,0,1.9,0,2.1,0c0.5,0,1,0.1,1.4,0
		c0.5-0.2,1.1-0.2,1.6-0.1c1,0.2,1.9,0.2,2.8,0.2c0.6,0,1.3,0,1.9,0c0.1,0,0.2-0.1,0.2-0.3c0,0-0.1,0-0.1,0c-0.3,0-0.6-0.1-1-0.1
		c-0.7-0.1-1.5-0.1-2.2-0.2c-0.3,0-0.6-0.1-0.8-0.1c10.1-0.3,20.6-0.3,30.7-0.4c6.5-0.1,13.1-0.1,19.6-0.2c0,0,0.1,0.1,0.1,0.1
		c0,0-0.1,0-0.1,0c0,0-0.1,0.1-0.1,0.3c0,0,0,0,0,0c0.1,0,0.1,0.1,0.2,0.1c0.1,0.1,0.3,0.2,0.4,0.3c0.1,0.1,0.2,0.3,0.3,0.4
		c0.1,0.1,0.2,0.1,0.3,0.2c0.1,0,0.2,0.3,0.2,0.4c0.1,0.1,0.2,0.1,0.3,0.2c0.1,0.1,0.3,0.1,0.5,0.2c0.1,0.1,0.3,0.1,0.4,0.2
		c0,0,0.2,0,0.3-0.1c0.1,0.2,0.3,0.6,0.4,1.2c0-0.5,0-1.1-0.1-1.5c0,0,0.1-0.1,0.1-0.1c0.1-0.1,0-0.2,0-0.2c0,0,0-0.1-0.1-0.2
		c-0.2,0-0.2-0.2-0.3-0.3c-0.1-0.1-0.2-0.2-0.3-0.3c0,0,0-0.1,0.1-0.1c0.1-0.1,0.1-0.2,0-0.2c0,0,0-0.1-0.1-0.1
		c-0.2,0-0.2-0.1-0.3-0.2c-0.1-0.1-0.3-0.2-0.4-0.3c0,0,0,0,0,0c0.1,0,0.3,0,0.4,0c0,0,0,0,0,0c-0.2-0.2-0.4-0.3-0.6-0.4
		c-0.2-0.1-0.4-0.2-0.6-0.3c-1.2-0.5-2.9-0.8-4.9-1c-1.2-0.2-6-1.2-7.3-1.2c-2.1-0.1-4.1,0.1-6.1,0c-2.6-0.1-5.2-0.5-7.9-0.5
		c-1.7,0-3.4,0.1-5.1,0.2c0,0,0,0,0,0c0,0-0.1-0.1-0.1-0.2c-0.1-0.2-0.2-0.2-0.3-0.2c-0.1,0-0.2-0.1-0.3-0.1c-0.3,0-0.6-0.1-0.9-0.1
		c0,0-0.1,0-0.1,0c-0.5,0.1-0.9,0.2-1.4,0.3c-0.2,0-0.8-0.2-1.3-0.3c-0.1,0-0.2,0.1-0.2,0.1c-0.3,0.2-0.5,0.3-0.8,0.3
		c-0.1,0-0.3,0-0.4,0c0-0.2,0.1-0.4,0.2-0.5c-0.4,0.1-0.8,0.2-1.2,0.2c-0.4,0-0.9-0.2-1.3-0.3c-5.5,0.1-10.9,0.2-16.4,0.3
		c-0.8,0-2,0-3,0.3c-1.1,0.3-2.1,0.7-2.9,1.4c-1.8,1.3-3,3.2-3.4,5.3c-0.1,0.5-0.2,1.1-0.2,1.6c0,0.5,0,0.9,0,1.4l0.1,2.7l0.1,4.4
		c0,0,0,0,0,0c-0.2,1.7-0.4,3.5-0.6,5.2c-0.2,1.8-0.4,3.7-0.5,5.5c-0.1,1.5,0,2.9,0,4.3c0,0.8-0.1,4.3-0.1,5.2
		c0,1.4,0.1,2.8,0.3,4.2c0.1,1.2,0.3,2.5,0.5,3.7c-0.1,0.4-0.1,0.8,0.2,1.1c0,0.2,0.1,0.5,0.1,0.7c0,0.2,0.1,0.3,0.1,0.5
		c0,0.5,0,1,0,1.6c0.2,4.4,0.8,8.9,0.8,13.1c0,2.1-0.1,4-0.2,6c-0.1,4.8,0.2,9.9,0.5,14.9c0.3,4.6,0.4,9.4,0.9,14
		c1.1,11.3,1.9,23.2,2.8,34.6l0.1,1.5c0,0.5,0.1,1,0.2,1.5c0.1,1.1,0.4,2.2,0.7,3.3c0.6,2.1,1.7,4.2,3,6c2.7,3.6,6.6,6.1,11,7
		c0.5,0.1,1.1,0.2,1.6,0.3c0.5,0.1,1.1,0.1,1.6,0.1l0.8,0l0.7,0l1.5,0l5.9,0c0.2,0,0.5,0,0.7,0c0.6,0.3,1.3,0.7,2,1
		c0.8,0.3,1.5,0.7,2.3,0.9c0.6,0.2,1.3,0.2,1.9,0.3c0.4,0.1,1.9,0.3,2.3,0.3c0.6,0,1.3,0,1.9-0.1c0.8-0.1,1.7-0.4,2.5-0.7
		c0.7-0.2,1.3-0.5,2-0.8c0,0,0-0.1,0.1-0.1c2.7,0,5.5,0.2,8.1,0.1c6.9-0.4,14.1-0.3,21.1-0.5c9.6-0.2,19.1-0.3,28.6-0.4
		c6.8,0,25.4-0.5,28-0.5c6.4,0.1,13,0.3,18.8-0.4c2.5-0.3,5.1-0.5,7.7-0.6c10.7,0.2,21.4,0.3,31.9,0.3c3.1,0,6.3,0,9.4,0
		c4.3,0,8.6-0.1,12.8-0.1c0,0.1,0,0.1,0,0.2c0,0,0,0,0,0c0.2,0,0.3,0.1,0.5,0.1c0.1,0,0.2,0,0.3,0.1c-0.2,0-0.4,0-0.6,0
		c-0.1,0-0.2,0.1-0.2,0.3c0,0,0.1,0,0.1,0c0.3,0.1,0.6,0.1,0.9,0.2c0.7,0.1,1.5,0.2,2.2,0.3c0.8,0.1,1.6,0.2,2.3,0.2
		c0.1,0,0.2,0,0.4,0c0,0,0.1,0,0.1,0c0.1,0,0.1,0,0.2,0c0.3,0,0.7-0.1,1-0.1c0,0,0.1,0,0.1,0c0,0,0.1,0,0.1,0c0.4,0,1.8,0,2.2-0.1
		c0.6-0.1,1.2-0.2,1.8-0.4c0.8-0.2,1.5-0.5,2.2-0.8c0.1,0,0.1-0.1,0.2-0.1c4.1-0.1,8.2-0.1,12.4-0.2c3.6-0.1,7.1-1.4,9.9-3.6
		c2.8-2.2,4.8-5.3,5.7-8.8c0.2-0.7,0.3-1.3,0.3-1.8C876.1,295.1,876,294.7,876,294.5z M653.9,311.5
		C653.9,311.5,653.9,311.5,653.9,311.5C653.9,311.5,653.9,311.5,653.9,311.5C653.9,311.5,653.9,311.5,653.9,311.5
		C653.9,311.5,653.9,311.5,653.9,311.5z"/>
</g>
<g>
	<polygon class="st3" points="206.9,61.6 206.9,61.6 206.9,61.6 	"/>
	<path class="st3" d="M195.2,42.6C195.2,42.6,195.2,42.6,195.2,42.6C195.2,42.6,195.2,42.6,195.2,42.6
		C195.2,42.6,195.2,42.6,195.2,42.6z"/>
	<path class="st3" d="M60.8,252.8c0.4,0.8,0.9,1.6,1.3,2.4c1.5,3.3,3.6,6.1,5.9,8.9c4.1,5.2,8.3,10.2,12.9,14.8
		c4.8,4.8,9.8,9.3,15,13.7c4.2,3.6,9,7,12.4,11.3c0.2,0.2,0.3,0.4,0.3,0.6c1.9,1.4,3.7,2.7,5.6,4.2c-2.6-2.9-3.5-45.6-5-52.2
		C108.2,252.3,67,259,60.8,252.8z"/>
	<path class="st3" d="M142.8,151.2c0.4-1.5,0.4-3.2,0.5-4.8c0-1.5,0.2-3,0.1-4.5c-0.4-3.6-0.3-7.5-0.5-11.2
		c-0.2-5.1-0.3-10.1-0.4-15.1c0-3.6-0.5-13.5-0.5-14.8c0.1-3.4,0.3-6.9-0.4-10c-0.8-3.6-1-7.4-0.7-11.4c0.4-6.9,0.4-13.6,0.1-20.2
		c-0.2-4.5-0.4-9.1-0.5-13.6c0-0.9-0.4-1.2-1.1-1c0,0.2,0,0.4-0.1,0.6c-0.1,2.3-0.2,4.5-0.2,6.8c-0.1,5.3-0.2,10.6-0.4,15.9
		c-0.2,5.5-0.6,11.1-0.7,16.6c-0.1,4.4,0.2,8.7,0.2,13c0,2.6-0.5,13-0.5,15.6c0,4.2,0.1,8.5,0.2,12.7c0.2,5.6,0.6,11.2,1,16.8
		c0.3,4.8,0.6,9.5,1,14.3c0.1,1.9,2.1,2.6,2.3,0.3c0.1-1.4-0.2-2.9,0.1-4.2C142.4,152.5,142.7,151.9,142.8,151.2z"/>
	<path class="st3" d="M205.5,66.2c0-0.8,0.1-1.6-0.1-2.4c-0.2-0.9-0.2-1.8-0.1-2.7c0.1-1.6,0.1-3.3,0.1-4.8c0-1.1-0.1-2.2-0.1-3.3
		c0-0.2-0.1-0.3-0.2-0.2c0,0.1,0,0.1,0,0.2c0,0.5,0,1.1-0.1,1.6c0,1.3-0.1,2.5-0.1,3.8c0,1.3-0.1,2.7-0.2,4c0,1.1,0,2.1,0,3.1
		c0,0.6-0.1,3.1-0.2,3.7c0,1,0,2,0,3c0,1.3-0.1,2.6-0.6,3.8c-0.4,0.9-1.3,1.8-2.4,2c-0.4,0.1-0.7,0.5,0,0.5c0.4,0,0.7-0.2,1.1-0.3
		c0.2-0.1,0.3-0.1,0.5-0.1c0.4-0.1,0.8-0.4,1-0.8c0.3-0.3,0.5-0.6,0.7-1c0.4-0.9,0.6-1.9,0.7-2.8c0.1-1.2,0-2.4,0.1-3.7
		C205.6,68.9,205.6,66.5,205.5,66.2z"/>
	<path class="st3" d="M239.4,130.9C239.4,130.9,239.4,130.9,239.4,130.9C239.4,130.9,239.4,130.9,239.4,130.9
		C239.4,130.9,239.4,130.9,239.4,130.9z"/>
	<path class="st3" d="M266.5,149.1C266.4,149.1,266.4,149.1,266.5,149.1c-0.1,0-0.1,0-0.2,0c0,0.1,0.1,0.2,0.1,0.3
		C266.5,149.3,266.5,149.2,266.5,149.1z"/>
	<path class="st3" d="M260.3,145.8l-0.2,0l0,0L260.3,145.8l-0.1-0.6l-0.3,0.3c0,0-0.1,0.1-0.2,0.1c-0.1,0-0.1,0-0.2,0l-0.4-0.1
		l0.2,0.7l0.1,0.3l0.7-0.3l0.1-0.1l0-0.1C260.3,145.9,260.3,145.8,260.3,145.8z"/>
	<path class="st3" d="M262,148.1c0,0,0,0,0-0.1l0-0.1l0-0.1c0-0.1,0-0.2,0.1-0.3l0.1-0.1l0-0.2l-0.7-0.6l-1.3,0.6l0.5,0.4
		c0.1,0.1,0.1,0.1,0.2,0.1l0.1,0.1c0,0,0.1,0.1,0.1,0.1c0.1,0.3,0.3,0.5,0.5,0.7c0.1,0.1,0.1,0.1,0.2,0.2l0.8,0.9l-0.4-1.1
		C262.2,148.3,262.1,148.2,262,148.1z"/>
	<path class="st3" d="M263.5,149.2c-0.1-0.2-0.3-0.5-0.6-0.7l-0.2-0.1l-0.1,0.2c-0.1,0.2-0.2,0.4,0,0.7c0,0.1,0.1,0.2,0.1,0.2
		l0.1,0.1c0,0,0,0.1,0.1,0.2l0.1,0.2l0.8-0.5l-0.1-0.2C263.6,149.4,263.5,149.3,263.5,149.2z"/>
	<path class="st3" d="M262.8,146L262.8,146c-0.2,0.1-0.3,0.3-0.3,0.5c0,0.1,0,0.3-0.1,0.5l-0.1,0.1l0.2,0.3l0.3,0.2l0.1,0
		c0.1,0,0.2,0,0.2,0c0.3-0.1,0.6-0.5,0.6-0.8l-0.1-0.7l-0.1-0.1c-0.1-0.1-0.2-0.1-0.3-0.1l0,0l0,0c0,0-0.1,0-0.1,0l0,0l0,0
		C263,145.9,262.9,146,262.8,146z"/>
	<path class="st3" d="M261.2,177.2c-0.3-0.1-0.6,0-0.8,0.3c0.1,0.2,0.4,0.3,0.6,0.4c0.2,0.1,0.4,0,0.4-0.2
		C261.5,177.5,261.4,177.2,261.2,177.2z"/>
	<path class="st3" d="M259.2,173.3c0.2-0.1,0.2-0.2,0.2-0.4c-0.1-0.2-0.2-0.3-0.3-0.2c-0.2,0.1-0.3,0.2-0.3,0.4
		C258.9,173.3,259,173.4,259.2,173.3z"/>
	<path class="st3" d="M261.7,175.5c-0.2-0.1-0.3,0-0.4,0.1c0,0.1-0.1,0.1-0.1,0.2c-0.2,0-0.4,0-0.6,0c-0.2,0-0.4,0.1-0.6-0.1
		c0.3-0.2,0.5-0.3,0.5-0.7c0-0.3-0.2-0.5-0.4-0.7c0-0.1,0.1-0.2,0.1-0.3c0-0.2-0.1-0.4-0.2-0.5c-0.2-0.1-0.4-0.1-0.5,0
		c-0.3,0.2-0.5,0.5-0.5,0.9c0,0.3,0,0.5-0.1,0.8c0,0,0,0.1,0,0.2c0.3,0.1,0.6,0.2,1,0.4c-0.2,0.1-0.3,0.2-0.4,0.2
		c-0.2,0.1-0.3,0.3-0.4,0.4c-0.1,0.2,0,0.5,0.2,0.6c0.1,0,0.2,0,0.3,0c0.1,0,0.2,0,0.3,0c0.4,0.1,1-0.1,1.1-0.5
		c0.1-0.1,0.1-0.2,0.3-0.3c0.2,0,0.3-0.1,0.5-0.1c0.2,0,0.3-0.2,0.3-0.3C262,175.7,261.9,175.5,261.7,175.5z"/>
	<path class="st3" d="M262.4,172.8c0,0.2,0.1,0.3,0.3,0.4c0.2,0.1,0.5,0.2,0.8,0.1c0.2,0,0.4-0.1,0.6,0c0.1,0.1,0.2,0,0.3-0.1
		c0-0.1,0-0.2-0.1-0.2c-0.2-0.1-0.4-0.2-0.6-0.4c-0.3-0.2-0.6-0.3-0.9-0.2C262.5,172.5,262.4,172.6,262.4,172.8z"/>
	<path class="st3" d="M262.7,173.4c-0.1-0.1-0.3-0.1-0.4-0.2c-0.3-0.1-0.5-0.1-0.7,0c-0.2,0.1-0.3,0.4-0.2,0.6
		c0.1,0.3,0.5,0.4,0.8,0.2c0.2-0.1,0.3-0.2,0.5-0.1c0.2,0,0.3,0,0.3-0.2C262.9,173.6,262.9,173.5,262.7,173.4z"/>
	<path class="st3" d="M287.3,165.5c0.7-0.4,0.7-1.3,0-1.7l-3.6-2.1c-0.7-0.4-0.7-1.3,0-1.7l2.2-1.2c0.7-0.4,1-1.1,0.8-1.9
		c0-0.2-0.1-0.5-0.1-0.7c0-0.1,0-0.2,0-0.3l-2.4-1.4c0-0.3,0.1-0.5,0.1-0.8c0-0.5-0.1-1-0.2-1.5l2.5-1.4c0-0.2-0.1-0.5-0.1-0.7
		c0-0.1,0-0.2,0-0.3c0.1-0.9-0.4-1.7-1.2-2.2l-1.6-0.9c-0.7-0.4-0.7-1.3,0-1.7l3-1.7c0,0,0,0,0-0.1c0-0.8,0.2-1.4,0.6-2v0l-1.4-0.8
		c-0.8-0.5-1.3-1.3-1.3-2.3v0c0-0.4,0-0.7-0.1-1.1l2.8-1.6c0.7-0.4,0.7-1.3,0-1.7l-3.6-2.1c-0.7-0.4-0.7-1.3,0-1.7l1.6-1
		c0.9-0.5,1.5-1.5,1.5-2.6l0,0c0-0.1,0-0.3,0-0.4l-3.2-1.8c-0.7-0.4-0.7-1.3,0-1.7l1.2-0.7c1.1-0.6,1.8-1.8,1.8-3.1v0
		c0-0.1,0-0.1,0-0.2l-3.1-1.8c-0.7-0.4-0.7-1.3,0-1.7l2.4-1.4c0-0.2-0.1-0.5-0.1-0.7l0,0c0-1.4-0.8-2.7-2-3.5l-0.3-0.2
		c-0.7-0.4-0.7-1.3,0-1.7l1.8-1.1c0-0.2-0.1-0.5-0.1-0.7c0,0,0,0,0,0c-1.2-0.5-2.2-1.6-2.2-3.3c0-0.4,0.1-0.7,0.1-1
		c-0.3-0.5-0.2-1.1,0.3-1.4l3-1.8c-0.1-0.3-0.1-0.6-0.1-1c0-0.5,0.1-0.9,0.2-1.3L284,94c0-0.2,0.1-0.4,0.1-0.7
		c0-0.5-0.1-0.9-0.2-1.3l3.4-2c0.7-0.4,0.7-1.3,0-1.7l-3.6-2.1c0-0.1-0.1-0.2-0.1-0.3c0.1-0.2,0.1-0.3,0.1-0.5
		c0.2-0.8,0.8-1.4,1.5-1.8l0.1-0.1c0.7-0.4,1.2-1.2,1.1-2c0-0.1,0-0.3,0-0.4c0-0.3,0-0.6,0.1-0.8l-2.8-1.6c-0.7-0.4-0.7-1.3,0-1.7
		l1.8-1c0.4-0.9,0.6-1.5,1-2.5l0,0c0-0.1-0.1-0.3-0.2-0.4l0.7,0c-1.2-0.7-2.7-0.8-4.3-0.8c-0.2,0-0.4,0-0.6-0.1
		c-5.1,0.1-10.3,0.2-15.4,0.3c-8,0.3-16,0.3-24.3-0.1c-4.8-0.2-9.4-0.1-13.7,0.5c-3.7,0.5-7.9,0.3-12,0.3c-0.7,0-3.2,0-6.1,0.1
		c0.1-1.1,0.2-2.1,0.1-3.2c4.1,0.1,8.3,0.2,9.9,0.2c3.9,0,7.8-0.1,11.7-0.2c-0.2-0.3-0.3-0.6-0.3-1c0-0.9,0.1-1.8,0.1-2.8
		c-0.5,0-1,0.1-1.5,0.1c0.1-0.9,0.1-1.9,0.2-2.8l0.1-1.5l0-0.2l0-0.1l-0.1,0l-2.9,0l-10,0c-2.9,0-10.3-0.5-11.1-0.7
		c0.1,3.9,0.1,5.4,0.2,9.3c0,1,0.1,1.9,0,3c0,1.1-0.3,2.2-0.8,3.2c-1,2-2.8,3.5-5,4.1c-1.6,0.5-3.4,0.3-5-0.3
		c-1.6-0.6-3-1.8-3.8-3.2c-0.4-0.7-0.8-1.5-1-2.3c-0.1-0.4-0.2-0.8-0.2-1.3l0-0.6l0-0.5l0-4.4c0-0.9,0-1.2,0-3.3
		c1.3,0,2.2-0.4,4.4-0.4c0,2.7,0.1,5.6,0.1,8.8c0.1,1.1,1.5,2.1,2.3,2.5c0.8,0.4,1.6,0.3,2.1,0.2c1.1-0.3,2-1.3,2.1-2.4
		c0-0.1,0-0.3,0-0.4l0-0.5l0-1.1l0-2.2c0-3,0-6,0-9c0-1.9,0-3.8,0.1-5.7l0-2.8c0-0.8-0.2-1.6-0.6-2.4c-0.7-1.5-2.1-2.7-3.8-3.1
		c-1.6-0.4-3.5-0.1-4.8,0.9c-1.2,0.9-2.1,2.3-2.4,3.8c-0.1,0.4-0.1,0.7-0.1,1.2l0,1.3l0,0.7c0,0,0,0,0,0c0.3-3.9,1.7-8.3,6-7
		c2.2,0.7,2.8,2.6,3,4.7c0.2,2.6,0.6,5.4,0.3,8c0,0.3-0.2,0.5-0.4,0.7c0.1,0.2,0.1,0.5,0.1,1.1c-7.9,0.1-13.6,0.8-21.3,0.9
		c-2.2,0-4.4,0-6.6,0c0-0.5-0.1-0.9-0.1-1.4c0-0.9-0.2-3.5-0.2-3.8c0-0.9,0.1-1.8-0.2-2.6c-0.2-0.9-0.3-1.9-0.2-2.9
		c0.1-1.8,0.1-3.5-0.1-5.2c-0.1-1.2-0.1-2.3-0.2-3.5c0-0.2-0.1-0.3-0.3-0.3c0,0.1,0,0.1,0,0.2c0,0.6,0,1.2,0,1.7c0,1.4,0,2.7,0,4.1
		c0,1.4-0.1,2.9-0.1,4.3c0,1.1,0.1,2.2,0.1,3.4c0,0.7-0.1,3.3-0.1,4c0,1.1,0.1,2.2,0.1,3.3c0.1,1.4,0.2,2.9,0.3,4.3
		c0.1,1.2,0.2,2.5,0.3,3.7c0,0.2,0.1,0.4,0.3,0.4c0,0.5,0,0.9-0.1,1.4c-0.3,4.7-0.1,9.2,0.7,13.4c0.7,3.6,0.5,7.7,0.4,11.7
		c0,1.6,0.4,13.2,0.5,17.4c0.1,5.9,0.2,11.8,0.4,17.8c0.1,4.3,0.1,8.8,0.5,13.1c0.2,1.7-0.1,3.5-0.1,5.3c0,1.9,0,3.8-0.5,5.6
		c-0.2,0.8-0.4,1.5-0.6,2.3c-0.3,1.6,0.1,3.3-0.1,5c-0.1,1.8-1,2-1.7,1.3v0.6c0,0.2-0.1,0.4-0.2,0.6c-0.1-0.1-0.2-0.2-0.4-0.2
		c-0.6-0.1-1.2,0.1-1.8,0c-0.3-0.1-0.5-0.2-0.8-0.3c-0.6-0.2-1.3-0.2-2-0.2c-0.6,0-1.3-0.1-1.9,0c-1.5,0.2-3.2,0.2-4.7,0.2
		c-2.1,0.1-4.3,0.2-6.4,0.2c-0.4,0-0.9,0-1.6,0.1c-0.3,0-0.7,0.1-1,0.1c-0.3,0.1-0.7,0.1-1,0.2c-0.3,0.1-0.7,0.1-1,0.2
		c-0.3,0.1-0.6,0.2-0.8,0.2c-0.5,0.1-0.9,0.3-1,0.3c-0.1,0-0.1,0-0.2,0.1c-0.8,0.4-1.6,0.8-2.2,1.3c-1.5,1.2-3.2,2.4-4.8,3.6
		c-0.3,0.2-0.5,0.4-0.8,0.6c-0.7,0.7-1.3,1.4-1.9,2.2c-1.9,3.5-2.5,7.4-2.1,11.9c0.3,3.5,1.2,7.1,3.1,10.1c0.8,1.2,1.7,2.2,2.7,3.3
		c2.8,2.3,6.3,3.9,10.2,4.3c0.4-0.5,1-0.9,1.8-0.7c2.1,0.4,4.2,0.6,6.3,0.8c0.4,0,0.7,0.2,1,0.4c7.8,0,15.6,0,23.3,0
		c10.1,0,20.2-0.1,30.3-0.1c10.8,0,21.7-0.1,32.7-0.1h10c0.3-0.4,0.8-0.6,1.3-0.6c1,0,2-0.1,3.1-0.1c0.6,0,1.1,0.3,1.4,0.7h18
		c0.7-0.1,1.5-0.2,2.2-0.4c0.4-0.1,0.7-0.1,1,0l3.9-2.3c-0.1-0.3-0.1-0.6-0.1-0.9c0-0.5,0.1-0.9,0.2-1.3l-1-0.6
		c-0.8-0.5-1.2-1.3-1.2-2.2c0,0,0-0.1,0-0.1c0-0.4,0-0.7-0.1-1.1l2.7-1.6c0.7-0.4,0.7-1.3,0-1.7l-3.6-2.1c-0.7-0.4-0.7-1.3,0-1.7
		l1.4-0.8c0.9-0.5,1.5-1.6,1.5-2.7l0,0c0-0.2,0-0.4,0.1-0.6l-3-1.7c-0.7-0.4-0.7-1.3,0-1.7l2.4-1.4c-0.1-0.4-0.2-0.7-0.2-1.2
		c0-0.2,0-0.3,0-0.5c0.1-0.9-0.4-1.8-1.2-2.2l-1-0.6c-0.7-0.4-0.7-1.3,0-1.7l3-1.7c-0.1-0.4-0.2-0.8-0.2-1.2c0-0.4,0.1-0.8,0.2-1.1
		l-2.6-1.5c0-0.7-0.2-1.3-0.4-1.9c0,0,0,0,0-0.1L287.3,165.5z M143.5,175.3c0-0.5,0.1-1,0.2-1.5c0.3-0.1,0.5-0.1,0.8-0.1
		c-0.2,1.2-0.2,2.5,0,3.7c-0.1,0-0.2,0-0.2,0c-0.2,0-0.5-0.1-0.7-0.2C143.4,176.5,143.4,175.9,143.5,175.3z M147,182.9
		c0,0.3,0,0.6-0.1,0.9c-0.2,0-0.4,0-0.6,0c-1-1.3-1.8-2.7-2.3-4.3c0.4-0.1,0.8,0.2,0.8,0.7c0,0.6,0.5,0.9,1,0.8
		c0.4,0.6,0.8,1.2,1.3,1.8C147,182.8,147,182.9,147,182.9z M173.6,74.1c-0.1-0.8-0.2-1.5-0.2-1.6c0-0.6,0.1-1.2,0-1.7
		c4.4-0.2,8.8-0.3,13.2-0.4c0.5,0,0.9,0,1.4,0c0.1,1.2,0.1,2.4,0.2,3.6c-2.5,0-4.9,0.1-7.4,0.1C178.4,74.1,176,74.1,173.6,74.1z
		 M152.8,188.9c-0.1,0.1-0.1,0.1-0.2,0.2c-0.3-0.1-0.5-0.3-0.8-0.4c-0.7-0.4-1.4-0.9-2-1.4c0.3-0.4,0.7-0.7,1.1-0.9c0,0,0,0,0.1,0
		c0,0,0,0,0.1,0c0.6,0.4,1.2,0.8,1.8,1.1c0,0.1,0,0.2,0.1,0.3C153,188.3,153,188.6,152.8,188.9z M160.9,190c-0.3,0.5-0.7,1-1.1,1.5
		l-0.6-0.1c-0.7-0.2-1.5-0.3-2.2-0.5c-0.9-0.3-1.8-0.6-2.7-1c0.5-0.4,1.1-0.7,1.8-0.7c1.6,0.6,3.2,0.8,4.8,0.8
		C160.9,189.9,160.9,190,160.9,190C160.9,190,160.9,190,160.9,190z M162.5,189.6c-0.1,0.1-0.3,0.1-0.4,0.1c-0.2-0.1-0.4-0.3-0.5-0.6
		c0.2,0,0.4,0,0.7,0c0.2,0,0.3,0.1,0.4,0.2C162.6,189.4,162.6,189.5,162.5,189.6z M204.3,191.1c-3.1,0.1-6.2,0.3-9.3,0.4
		c-3.6,0.1-7.3,0.3-10.9,0.4c-2.8,0.1-5.5,0.1-8.2,0.1c-1.7,0-8.4-0.3-10.1-0.3c-0.2,0-0.3,0-0.5,0c-0.3-0.1-0.6-0.2-1-0.4
		c-0.2-0.1-0.8-0.3-1-0.6c-0.1-0.3,3.2-0.9,4.5-0.9c0.9,0,7.3-0.1,9.6-0.2c3.3,0,6.5-0.1,9.8-0.1c2.4-0.1,4.9,0,7.2-0.2
		c1-0.1,2,0,2.9,0.1c1,0,2.1,0,3.1,0.3c0.4,0.1,0.8,0.2,1.2,0.3c0.9,0.1,1.8,0,2.7,0.1C206,190.1,205.5,191,204.3,191.1z M176,113
		c0-0.5,0.1-1.1,0.1-1.6c3-0.1,6.1-0.2,9.1-0.2c4.6-0.1,9.1-0.1,13.6-0.1c2.8,0,13.9,0.3,16.6,0.3c4.6,0,9.2-0.1,13.9-0.1
		c5.9,0.1,11.8,0.3,17.7,0.4c5.7,0.1,11.3,0.1,17,0.2c2.4,0,4.8,0.1,7.2,0.1c0.2,0,0.4,0,0.7,0c0.2,0.4-0.1,0.6-1.1,0.6
		c-4.9,0.1-9.7,0.1-14.5,0.2c-7.1,0.2-14.2,0.2-21.5-0.1c-4.3-0.1-8.3-0.1-12.2,0.3c-3.3,0.3-7,0.2-10.6,0.2
		c-1.4,0-11.9,0.2-15.8,0.2c-5.4,0-10.7,0.1-16.1,0.2c-1.3,0-2.6,0-3.9,0C176,113.3,176,113.1,176,113z M210.3,169.5
		c-0.1,0-0.2,0-0.3,0c-2.6,0.1-5.4,0-8,0.2c-1.1,0.1-2.2,0-3.2,0c-1.2,0-2.3,0-3.4-0.2c-0.5-0.1-0.9-0.2-1.4-0.3c-1-0.1-2,0-3,0
		c-1.6-0.1-1.2-1.1,0.2-1.2c3.4-0.2,6.9-0.3,10.3-0.5c1.6-0.1,3.2-0.1,4.9-0.2c1.3,0.3,2.6,0.6,3.9,0.9c0.6,0.1,1.2,0.1,1.8,0.2
		c0,0.1,0,0.1,0,0.2c0,0.1,0,0.1,0,0.2C211.5,168.9,210.9,169.2,210.3,169.5z M263.3,143.1c0.2,0.3,0.4,0.6,0.5,1.1
		c0.1,0.4,0,1,0.2,1.4c0.1,0.3,0.5,0.4,0.7,0.7c0.1,0.2,0.1,1.2,0.2,1.3c0.2,0.3,0.4,0.6,0.8,0.8c0.3,0.2,0.6,0.3,0.9,0.4
		c0.9,2.2,1.4,4.5,1.7,6.9c-0.6,0-1.2,0-1.9,0c-2.1,0-4.1-0.1-6.2-0.1c0.1-0.5,0.2-0.9,0.3-1.4c-0.7-2.8-1.9-5.5-3.7-7.7l0.1,0
		c0.2-0.1,0.3-0.1,0.4,0c0.1,0.1,0.2,0.2,0.2,0.5l0,0.2l0.2,0c0,0,0.1,0,0.1,0c0,0,0.1,0,0.1,0c0.1,0,0.1,0,0.2,0l0.5-0.2l-0.6-1.9
		l-0.3,0.4c-0.2,0.2-0.3,0.3-0.3,0.4c-0.2,0.1-0.4,0-0.7-0.1c0,0,0,0-0.1,0l-0.8-0.6l0.4,1c-1-1.2-2.1-2.3-3.2-3.3
		c-1.5-1.2-3.1-2.2-4.7-3c-0.7-0.4-1.3-0.7-2.1-1c-0.3-0.1-0.5-0.2-0.8-0.2c1,0,2,0,3,0c3.7,0.2,7.4,0.2,11,0.1c0,0,0,0,0,0
		c1.3,1.2,2.5,2.6,3.5,4c0,0.1-0.1,0.1-0.1,0.2c0,0,0,0.1,0,0.1C263.2,142.8,263.2,142.9,263.3,143.1z M220.8,167.4
		c0.1,0,0.1,0,0.2,0c1.4,0.1,2.7,0.6,4,0.8c-0.2,0.3-0.5,0.6-0.8,0.9c-0.1,0-0.2,0.1-0.3,0.1c-0.8,0-1.6,0-2.3,0
		c-0.6-0.2-1.2-0.4-1.8-0.7c-0.3-0.2-0.9-0.4-1.2-0.7c0.3-0.1,0.6-0.2,0.9-0.3C220.1,167.5,220.4,167.4,220.8,167.4z M217.5,155.5
		c0.5-0.2,1-0.5,1.5-0.7c1.2,0,2.4,0,3.6,0c0,0,0,0,0,0c0.1,0.1,0.2,0.2,0.4,0.2c0.1,0,0.2,0,0.2,0.1c0,0.5,0,1,0,1.5
		c0,0,0,0.1,0,0.1c-0.3,0.2-0.5,0.3-0.8,0.5c-0.6,0-1.2,0-1.6,0c-0.1,0-0.2,0-0.3,0C219.6,156.8,218.3,156.3,217.5,155.5z
		 M223.9,158.9c0-0.5,0-0.9,0.1-1.4c0.4-0.1,0.9-0.2,1.3-0.4c0,0,0.1,0,0.1-0.1c1.9,0,3.8-0.1,5-0.1c-0.1,0.6-0.2,1.3-0.2,1.9
		c0,3.2,1.6,6.1,4.1,7.8c-0.1,0.1-0.3,0.3-0.4,0.4c-1,0-3.6-0.1-6.1-0.2c-0.1-0.1-0.3-0.2-0.5-0.2c-0.5,0-0.9-0.1-1.3-0.3
		C224.6,164.2,223.9,161.7,223.9,158.9z M224.6,154.5c0.9-3,2.6-5.7,5-7.7l0.1-0.1l0.1,0.1c0.2,0.3,0.2,0.4,0.3,0.4c0,0,0,0,0,0
		c0,0,0.1-0.1,0.2-0.1c0.1,0,0.2,0,0.2,0.1c0.1,0.1,0.2,0.2,0.3,0.3c0,0.1,0.1,0.1,0.1,0.1c0.2,0.2,0.3,0.2,0.4,0.2
		c0.1,0,0.2,0,0.2,0c0,0,0.1,0,0.1,0c0.1-0.4,0.3-0.6,0.5-0.7c0.1-0.1,0.2-0.1,0.2-0.2c0.3-0.4,0.7-0.7,1-1c0.1-0.1,0.3-0.3,0.5-0.5
		c0.3-0.4,0.4-0.5,0.5-0.5c0,0,0.1,0,0.2,0c0.2,0,0.4,0,0.4-0.5c0-0.2,0-0.4,0.1-0.5l0-0.1l0.1,0c0.5-0.2,1-0.3,1.6-0.4l0,0
		c0,0,0,0,0.1,0c1-0.2,2-0.3,3-0.3c6.4,0,12.2,3.8,14.7,9.8c0,0.1-0.1,0.1-0.1,0.2c0,0.1-0.1,0.1-0.1,0.2h-6.4
		c-0.2-0.1-0.3-0.3-0.5-0.4c-0.1-0.1-0.2-0.1-0.4-0.1c-1.8-2.1-4.4-3.3-7.2-3.3c-3.6,0-6.8,2-8.4,5c-0.3,0.1-0.6,0.2-0.8,0.3
		c-0.1-0.1-0.3-0.2-0.5-0.2c-0.6,0.1-1.1,0.1-1.7,0.2c-0.3,0-0.5,0.1-0.6,0.3c-0.8,0-1.6,0-2.3-0.1
		C225.2,154.8,224.9,154.7,224.6,154.5z M231.5,169c0.5,0,0.9,0,1.4,0c0.2,0.3,0.6,0.4,1,0.2c0.1-0.1,0.2-0.1,0.3-0.2
		c1.5,0,3.1,0,4.5-0.2c2.6-0.4,5.3-0.5,8.2-0.3c1.9,0.1,3.7,0.1,5.6,0.2c-3,3.9-7.6,6.2-12.6,6.2c-4.9,0-9.3-2.2-12.2-5.7
		C229.5,169.1,231.1,169,231.5,169z M244.9,167.1c0.8-0.5,1.6-1.2,2.3-2c0,0,0,0,0,0c0.2-0.1,0.4-0.2,0.6-0.3h6.3
		c0.1,0.1,0.3,0.2,0.4,0.3c-0.3,0.8-0.7,1.6-1.2,2.3C250.5,167.3,247.7,167.2,244.9,167.1z M253.3,167.7c0,0,0.1,0,0.1-0.1
		c0.1,0,0.1,0,0.2,0c0.4-0.1,0.9-0.1,1.3-0.2c0.1,0,0.1,0,0.2,0c0.5,0,1,0,1.5,0c0.3,0,0.6,0.1,0.9,0.2c-0.5,0.3-0.9,0.5-1.4,0.7
		c-0.6,0-1.2-0.1-1.8-0.2c-0.4-0.1-0.8-0.1-1.1-0.3c0,0-0.1,0-0.2-0.1C253.1,167.8,253.2,167.7,253.3,167.7z M246.8,156.4
		c-2.9-0.1-5.6-0.1-8.2,0.3c-0.6,0.1-1.1,0.1-1.7,0.2c-0.1-0.1-0.2-0.2-0.4-0.2c-1.3-0.2-2.6-0.5-3.8-0.9c-0.3-0.1-0.7-0.2-1.1-0.3
		c0.6-0.1,1.3-0.2,1.9-0.4c0.1,0,0.3,0,0.4,0c3.1,0,6.2-0.1,9.3-0.1c4,0.1,8,0.3,11.9,0.4c1.3,0,2.7,0.1,4,0.1
		c0.3,0.1,0.6,0.2,0.8,0.4c0.1,0,0.1,0.1,0.2,0.2c-0.1,0.1-0.1,0.1-0.1,0.1c-0.2,0.2-0.4,0.3-0.6,0.4
		C255.4,156.7,251.1,156.6,246.8,156.4z M256.4,137.1c-3.7-0.1-7.4-0.3-11.1-0.4c-2.1,0-4.2,0-6.2,0.1c1.2,0,2.3,0,3.5-0.1
		c0.4,0.6,0.8,1.1,1.3,1.5c-1,0.1-1.9,0.2-2.8,0.3c-2.1,0.3-4.4,0.2-6.6,0.2c-0.2,0-0.7,0-1.4,0c0.9-0.6,1.7-1.3,2.6-1.9
		c-2.5-0.1-7.9-0.3-9.4-0.3c-1.5,0-3.1,0-4.6,0c0.3-0.2,0.7-0.4,1-0.6c1.2-0.8,2.4-1.5,3.7-2.1c3.5-2,7.8-3.3,12.2-3.4
		c0.3,0,0.7,0,1.4-0.1c0.6,0,1.4,0.1,2.4,0.1c0.4,0,0.9,0.1,1.4,0.1c0,0.1,0,0.2,0.1,0.2c0.1,0.2,0.4-0.1,0.5,0.2
		c0.1,0.1,0.1,0.4,0.1,0.6c0.1,0.5,0.3,0.5,0.5,0.5c0.2,0,0.3,0.3,0.5,0.2c0.5-0.3,0.9-0.2,1.3-0.2c0.6-0.1,1.2-0.1,1.8,0
		c0.3,0,0.8,0,1.3,0c0.8,0.3,1.6,0.6,2.4,1c0.5,0.3,1.1,0.5,1.6,0.8c0.5,0.3,1,0.6,1.5,0.9c0.5,0.3,1,0.6,1.4,0.9
		c0.4,0.3,0.8,0.6,1.2,0.9c0.2,0.2,0.4,0.3,0.6,0.5C257.7,137.1,257,137.1,256.4,137.1z M224.6,138.9c1.4,0,4.1-0.1,6.3-0.2
		c-2.6,1.2-5,2.9-7,5c-0.9,0.9-1.7,2-2.4,3.1c0-0.2-0.2-0.4-0.5-0.5c-0.2-0.1-0.4,0-0.4,0.3c0,0.1,0,0.2,0,0.3
		c0,0.1,0.1,0.2,0.1,0.3c-0.1,0-0.1,0.1-0.2,0.1c-0.1,0.1-0.2,0.2-0.3,0.4c-0.1,0.2,0.1,0.5,0.3,0.4c0,0,0,0,0,0
		c-0.1,0.2-0.2,0.3-0.3,0.5c-0.9,1.8-1.6,3.7-2.1,5.7c0,0.2-0.1,0.4-0.1,0.5c-1.6,0-3.2,0-4.8,0.1c-0.8,0-1.6,0.1-2.3,0.1
		c0-1.1,0.1-2.3,0.3-3.4c0.2-1.4,0.7-2.8,1.2-4.1c0.2-0.4,0.8-1.4,1.4-2.3c0.6-0.9,1.3-1.8,1.6-2.1c0.8-1.3,1.4-2.6,2.4-3.7
		c0.1-0.1,0.2-0.2,0.3-0.3C220.5,139,222.6,139,224.6,138.9z M216.7,139.1c-0.7,0-1.4,0-2.2,0.1c-2.4,0.1-5,0-7.4,0.2
		c-1,0.1-2,0-3,0c-1.1,0-2.2,0-3.2-0.2c-0.4-0.1-0.8-0.2-1.3-0.3c-0.9-0.1-1.9,0-2.8,0c-1.5-0.1-1.1-1.1,0.2-1.2
		c3.2-0.2,6.4-0.3,9.5-0.5c3.7-0.2,7.5-0.4,11.2-0.5c0.6,0,1.1,0,1.7,0C218.5,137.4,217.6,138.2,216.7,139.1z M201.4,155.4
		c1.6-0.1,3.2-0.1,4.8-0.2c0.9,0,1.8,0.1,2.7,0.3c0.6,0.1,1.2,0.3,1.8,0.5c-0.2,0.1-0.4,0.2-0.6,0.3c-1,0.4-2,0.8-3,1.2
		c-1.7,0-3.4,0.1-5.1,0.2c-1.1,0.1-2.2,0-3.2,0c-1.2,0-2.3,0-3.4-0.2c-0.5-0.1-0.9-0.2-1.4-0.3c-1-0.1-2,0-3,0
		c-1.6-0.1-1.2-1.1,0.2-1.2C194.6,155.7,198,155.6,201.4,155.4z M212.7,167c-0.2-0.7-0.4-1.4-0.6-2.2c-0.1-0.6-0.2-1.3-0.3-1.9
		c-0.1-0.6-0.2-1.3-0.2-2l0-0.5c-0.2-1-0.3-2-0.3-3c2.3-0.1,4.5-0.1,6.8-0.1c-0.1,1-0.1,2.1,0,3.1l0,0.8l0.1,0.8
		c0.1,0.5,0.1,1,0.2,1.5c0.3,1,0.4,2,0.8,3c0.1,0.2,0.1,0.3,0.2,0.5c-1.9,0-3.9,0-5.8,0.1C213.3,167,213,167,212.7,167z M267,168.4
		c-0.3,0.7-0.5,1.4-0.8,2.1c0,0.1-0.1,0.2-0.1,0.3c-0.1,0-0.1-0.1-0.2-0.1c-0.2-0.1-0.4,0-0.4,0.3c0,0.1,0,0.2,0,0.3
		c0,0.1,0.1,0.2,0.1,0.3c-0.1,0-0.1,0.1-0.2,0.1c-0.1,0.1-0.2,0.2-0.3,0.4c-0.1,0.2,0,0.3,0.1,0.4c0,0,0,0,0,0
		c-0.3,0.5-0.6,1-0.9,1.5c-0.2-0.1-0.5-0.1-0.7,0.1c-0.2,0.2-0.2,0.5,0,0.8c0,0,0.1,0.1,0.1,0.1c-0.3,0.4-0.6,0.8-0.9,1.2
		c-1.2,1.8-2.9,3.4-4.7,4.9c-0.1-0.2-0.2-0.4-0.5-0.5c-0.3-0.1-0.6-0.2-0.8-0.4c-0.1-0.1-0.2-0.1-0.3,0c-0.1,0.1-0.1,0.2-0.1,0.3
		c0,0.1,0.1,0.1,0.1,0.2c0.1,0.2,0.3,0.3,0.4,0.5c0,0.1,0.1,0.1,0.1,0.2c0.1,0.1,0.2,0.2,0.2,0.3c-0.9,0.7-1.7,1.3-2.7,1.8
		c-1.1,0.7-2.2,1.2-3.4,1.7c-0.9,0.4-1.9,0.6-2.9,0.9c-1,0.3-2.1,0.5-3.2,0.8l-1.7,0.3c-0.1,0-0.1,0-0.2,0c-0.7-0.3-1.4-0.7-2.2-0.9
		c-0.7-0.2-1.6,0-2.3-0.1c-0.5-0.1-2.3-0.7-2.8-0.7c-0.8,0-1.6,0-2.3,0.2c-0.4,0.1-0.8,0.2-1.2,0.4c0,0-0.1,0-0.1,0
		c-5-1.3-9.6-4-13.1-7.7l-1.3-1.4c-0.4-0.5-0.8-1-1.2-1.5c-0.2-0.3-0.4-0.5-0.6-0.8l-0.5-0.8c-0.3-0.6-0.7-1.1-1-1.7
		c-0.5-0.9-0.9-1.8-1.3-2.8c2.3,0,4.6-0.1,6.9-0.1c0.5,1,1.1,1.9,1.7,2.7c0.1,0,0.3,0.1,0.4,0.1c0.9,0,1.1,0.6,1.4,1.1
		c0.1,0.2,1.5,1.2,1.9,1.5c0.6,0.5,1.3,0.9,2,1.2c0.5,0.2,0.9,0.5,1.5,0.4c0.2-0.1,0.3,0.2,0.5,0.3c0.2,0.1,0.4,0.2,0.4,0.6
		c0,0.2,0.1,0.5,0.1,0.6c0.1,0.3,0.4,0,0.6,0.2c0.1,0.1,0.1,0.4,0.1,0.8c2.4,1,5,1.7,7.7,1.8c0.8,0.1,4.2,0.1,7.7-1.1
		c0.9-0.3,1.7-0.6,2.6-1.1c0.4-0.2,0.8-0.4,1.2-0.6c0.4-0.2,0.8-0.5,1.1-0.7c0.7-0.4,1.3-1,1.9-1.4c0.6-0.5,1-0.9,1.4-1.3
		c1.3-1.3,2.5-2.7,3.4-4.3c0,0.2,0.2,0.4,0.5,0.4c0.3,0,0.5,0,0.8-0.1c0.1-0.1,0.3-0.1,0.4-0.2c0.3-0.3,0.4-0.7,0.1-1.1
		c-0.3-0.3-0.8-0.4-1.1-0.1c0,0-0.1,0.1-0.1,0.1c0.1-0.2,0.2-0.4,0.3-0.5c0.8,0,1.6,0,2.3-0.1c0,0,0.1,0,0.1,0
		c0,0.1-0.1,0.1-0.1,0.2c-0.1,0.3,0,0.5,0.1,0.7c0.2,0.2,0.5,0.2,0.7,0.1c0.3-0.1,0.4-0.4,0.5-0.6c0,0,0-0.2,0-0.3
		c0-0.1-0.1-0.1-0.2-0.2C264.1,168.5,265.6,168.4,267,168.4C267.1,168.4,267,168.4,267,168.4z M266.5,167.6c-2.3,0-4.7-0.1-7-0.1
		c0.4-1,0.7-1.9,1-2.9c0-0.7-0.1-1.3-0.1-1.9c-0.1-0.8-0.3-1.5-0.4-2.2c-0.1-0.5,0-1,0-1.4c0-0.3,0.7-1.4,0.6-1.7
		c0-0.3-0.1-0.5-0.2-0.8c0.3,0,0.6,0,0.9,0c2.4-0.1,4.8-0.1,7.1-0.2c0.1,1.1,0.2,2.3,0.1,3.4c0,2.6-0.5,5.3-1.3,7.9
		C267,167.6,266.8,167.6,266.5,167.6z M271.1,168.3c-1,0-2,0-3.1,0.1c-0.2-0.1-0.3-0.2-0.5-0.3c0.1,0,0.1,0,0.1,0
		c0.6-0.1,1.1-0.2,1.6-0.4c0.7,0,1.4,0,2,0c0.1,0,0.3,0,0.5,0C272,168.1,271.8,168.3,271.1,168.3z M271.1,156.3
		c-0.8,0-1.5,0-2.3,0.1c0,0,0,0,0,0c0-0.1,0-0.2-0.1-0.4c0.1-0.1,0.2-0.1,0.3-0.2c0.1,0,0.1-0.1,0.2-0.1c0.7,0,1.5,0,2.2,0.1
		c0.1,0,0.3,0,0.5,0C272,156.1,271.8,156.2,271.1,156.3z M271.2,138c-2.8,0.1-5.5,0.1-8.3,0.2c-0.5-0.4-1.1-0.7-1.6-1
		c1.9,0,3.8,0.1,5.7,0.1c1.5,0,3,0.1,4.5,0.1c0.1,0,0.3,0,0.4,0C272,137.8,271.8,138,271.2,138z M270,126.2
		c-5.1,0.2-10.2,0.3-15.3,0.5c-6,0.2-12,0.4-17.9,0.5c-4.6,0.1-9.1,0.1-13.6,0.1c-2.8,0-13.9-0.3-16.6-0.3c-4.6,0-9.2,0.1-13.9,0.1
		c-5.2,0-10.5-0.2-15.8-0.3c0-0.4-0.1-0.9-0.1-1.3c3.4,0,6.9,0.1,10.4,0.2c4.3,0.1,8.3,0.1,12.2-0.3c3.3-0.3,7-0.2,10.6-0.2
		c1.4,0,11.9-0.2,15.8-0.2c5.4,0,10.7-0.1,16.1-0.2c3.9-0.1,8,0,11.9-0.2c1.6-0.1,3.2,0,4.8,0c1.7,0,3.5,0,5.1,0.2
		c0.7,0.1,1.3,0.2,2,0.3c0.3,0,0.6,0,0.9,0c0.1-0.1,0.2-0.1,0.3-0.1c0.1,0,0.2,0.1,0.3,0.2c1,0,2.1-0.1,3.1,0
		C272.8,125.1,272.1,126.1,270,126.2z M270,100.6c-5.1,0.2-10.2,0.3-15.3,0.5c-6,0.2-12,0.4-17.9,0.5c-4.6,0.1-9.1,0.1-13.6,0.1
		c-2.8,0-13.9-0.3-16.6-0.3c-4.6,0-9.2,0.1-13.9,0.1c-5.9-0.1-11.8-0.3-17.7-0.4c-0.1,0-0.3,0-0.4,0c0.1-0.4,0.1-0.8,0.2-1.2
		c4.2,0,8.3,0,12.6,0.2c4.3,0.1,8.3,0.1,12.2-0.3c3.3-0.3,7-0.2,10.6-0.2c1.4,0,11.9-0.2,15.8-0.2c5.4,0,10.7-0.1,16.1-0.2
		c3.9-0.1,8,0,11.9-0.2c1.6-0.1,3.2,0,4.8,0c1.7,0,3.5,0,5.1,0.2c0.7,0.1,1.3,0.2,2,0.3c1.5,0.1,3,0,4.5,0
		C272.8,99.6,272.1,100.6,270,100.6z"/>
	<path class="st3" d="M202.9,44.4c1.6,1.2,2.8,2.9,3.4,4.9c0.3,0.8,0.4,1.7,0.4,2.6c0,0.9,0,1.7,0.1,2.5l0,1.3c0.1,0,0.1,0,0.2,0
		c0-2.2,0.1-4.5-0.1-6.8c-0.2-0.1-0.5-0.4-0.6-0.7c-1-2-2.3-4.4-4.2-5.9c0.2,0.3,0.4,0.6,0.6,0.9C203,43.6,203,44,202.9,44.4z"/>
	<path class="st3" d="M186.1,60.3c0,0.2,0.2,0.2,0.6,0.1c0,0,0-0.1,0-0.1c0-0.4,0-0.8,0-1.1c0-0.9-0.3-6.4-0.1-7.3
		c0.2-0.9,0.5-1.8,0.8-2.6c0.2-0.7,0.3-1.4,0.5-2c0.1-0.2,0.3-0.7,0.6-1.1c0.3-0.4,0.6-0.8,0.7-1c0.3-0.5,0.6-1,1-1.4
		c0.4-0.5,1-1,1.6-1.5c0.9-0.5,1.9-0.9,2.9-1.1c0.2-0.2,0.4-0.3,0.7-0.4c0.4-0.1,0.8-0.2,1.2-0.3c-0.7-0.3-1.4-0.4-2.2-0.4
		c-0.1-0.3-0.2-0.6-0.4-0.6c-0.3,0-0.4,0.2-0.7,0.2c-0.1,0-0.3-0.1-0.4-0.2c-0.3-0.1-0.6,0-0.9,0.1c-0.3,0.1-0.6,0.1-0.8,0.3
		c-0.5,0.5-1.2,0.8-1.8,1.2c-0.8,0.6-1.5,1.4-2,2.2c-0.4,0.6-1,2.3-1,2.5c-0.3,0.5-0.6,1.1-0.4,1.7c0.2,0.7,0.1,1.4-0.1,2
		c-0.4,1.1-0.5,2.3-0.4,3.5C185.5,54.1,185.9,59.5,186.1,60.3z"/>
	<path class="st3" d="M185,267.8c-1.8,1.9-3.4,4-4.8,6.2c-0.4,0.7-1.2,1.9-1.9,3.4c-0.4,0.8-0.8,1.6-1.1,2.5
		c-0.2,0.4-0.4,0.9-0.5,1.4c-0.2,0.5-0.3,0.9-0.5,1.3c-0.1,0.4-0.2,0.8-0.2,1.2c0,0.4,0,0.6,0.2,0.9c0.1,0.3,0.3,0.4,0.4,0.5
		c0.1,0.1,0.3,0.1,0.4,0.1c0.4,0,0.9-0.4,1.4-0.7c0.2-0.2,0.5-0.4,0.7-0.6c0.2-0.2,0.4-0.3,0.5-0.5c3.9-3.8,6.9-8.2,9.3-13.1
		c0.7-1.5,1.4-3.1,2-4.7c0.4-1.1,0.7-2.1,1-3.2c-0.3,0.1-0.7,0.3-1,0.5C188.7,264.1,186.8,265.9,185,267.8z"/>
	<path class="st3" d="M262.4,212.5c0.1,0.4,0.4,0.9,0.6,1.3c0.4-0.5,1.2-0.9,1.2-1.3l-1.5-1.6C262.6,211.5,262.4,212,262.4,212.5z"
		/>
	<path class="st3" d="M240.4,212.4c0,0.5,0.4,1,0.6,1.4c0.5-0.5,0.9-0.9,1.5-1.5c-0.5-0.4-0.9-0.8-1.4-1.2
		C240.8,211.6,240.4,212,240.4,212.4z"/>
	<path class="st3" d="M251,213.2c-0.2,0.1-0.4,0.2-0.7,0.3c0.1,0.1,0.2,0.2,0.4,0.4c0.2-0.1,0.4-0.2,0.6-0.4
		C251.3,213.4,251.1,213.1,251,213.2z"/>
	<path class="st3" d="M260.6,215.3c0.1,0.2,0.2,0.4,0.3,0.7c0.1-0.1,0.2-0.2,0.4-0.4c-0.1-0.2-0.2-0.4-0.4-0.6
		C260.8,215.1,260.5,215.2,260.6,215.3z"/>
	<path class="st3" d="M277.6,215.3c0.1,0.2,0.2,0.4,0.3,0.7c0.1-0.1,0.3-0.2,0.3-0.3c-0.1-0.2-0.2-0.4-0.3-0.7
		C277.8,215.1,277.5,215.2,277.6,215.3z"/>
	<path class="st3" d="M239.5,231.6c-0.2-2.3-0.4-4.6-0.7-7c-0.4-3.9-1-7.9-1.6-11.8c-0.2-1.2-1.3-1.7-1.9-1.1c0-0.2-0.1-0.3-0.1-0.5
		c-4,0-8,0.1-12,0.1c0.5,0.1,1,0.3,1.5,0.5c0.4,0.2,0.7,0.5,1.1,0.7c0.8,0.3,1.7,0.1,2.6,0.3c1.4,0.3,0.8,2.3-0.4,2.3
		c-3,0.1-5.9,0.1-8.9,0.2c-3.5,0.1-7,0.2-10.4,0.2c-2.6,0-5.2-0.1-7.8-0.3c-1.6-0.1-8-1-9.6-1c-2.7-0.1-5.3,0.1-8-0.1
		c-3.4-0.2-6.8-0.7-10.2-1c-3.3-0.3-6.5-0.4-9.8-0.5c-1.4-0.1-2.8-0.2-4.2-0.2c-0.1,0-0.3,0-0.4-0.1c-0.1-0.3,0-0.6,0-0.7
		c-0.7,0-1.4,0-2.1,0c-2.2,0.1-4.3,0-6.4-0.5c-2.5-0.6-4.9-1.6-7-3c-2.1-1.4-4-3.2-5.5-5.3c-0.2-0.3-0.6-0.7-0.9-1.3
		c-0.3-0.6-0.7-1.2-1.1-2c-0.8-1.5-1.3-3.4-1.8-5.3c-0.1-0.6-0.2-1.2-0.2-1.9c-0.3-1.4-0.5-2.8-0.6-4.2c-0.3-2.9-0.1-5.5,0.5-8V70.7
		c0,0,0,0,0,0c0.1-0.3,0.2-0.6,0.2-0.9c0-0.3,0.1-0.6,0.1-0.9c-0.1-0.7,0-1.4,0-2.1c0-1,0-1.9,0-2.9c0-0.7-0.1-2.6-0.1-2.8
		c0-0.6,0.1-1.3-0.1-1.9c0-0.2-0.1-0.3-0.1-0.5v-6.2c0-11,8.9-20,20-20h16.4c0.1,0,0.2,0,0.2,0c0.2-0.1,0.4,0,0.5,0
		c0-0.1,0-0.1,0-0.2c-2.9-0.6-5.9-0.9-8.9-1c-1.8,0.1-3.8,0.1-5.7-0.1c-0.9,0-1.9,0-2.8,0c-5.1,0.1-9.5,1.7-13.9,4
		c-4.7,4.1-7.8,10.1-7.8,16.8c0,0-0.2,2.7,0.3,4.8c-0.1,0.7-0.1,1.5-0.2,2.2c0,0.8,0,1.6,0,2.4c0,0.2,0,0.5-0.1,0.9c-1,0-2,0-2.9,0
		c0.3-0.6,0.2-1.5-0.7-1.6c-0.9-0.1-1.7,0.2-2.6,0c-0.4-0.1-0.8-0.4-1.2-0.6c-0.9-0.4-1.9-0.4-2.9-0.4c-0.9,0-1.9-0.2-2.7-0.1
		c-2.2,0.4-4.6,0.3-6.8,0.4c-3.1,0.2-6.2,0.3-9.2,0.3c-2.2,0-8.2,0.3-9.1,0.2c-2.1-0.1-4.2-0.4-6.1,0.2c-0.9,0.3-1.9,0.5-2.9,0.6
		c-0.8,0-1.6,0-2.4,0c-0.6,0-1.1-0.1-1.7-0.2c-4.2-0.7-8.3-0.9-12.3-0.8c-2.8,0-5.6,0-8.4-0.1c-0.4,0-0.7,0.2-0.7,0.6
		c-0.1,0-0.2,0-0.3,0c-0.5-0.6-1.3-0.4-1.8,1.1c-0.3,0.8-0.4,1.6-0.6,2.4c-0.1,0.8-0.3,1.6-0.6,2.4c-0.3,0.7-0.7,1.4-1,2.1
		c-0.7,1.7-1.1,3.6-1.3,5.5c-0.3,1.7-0.7,3.5-0.7,5.2c0,4.3-0.3,8.7-0.2,12.9c0.1,5.8,0.5,11.6,0.8,17.4c0.2,4.1,1.5,15.3,1.6,16.9
		c0.2,3.9,0.3,7.9,1.3,11.3c0.3,1.2,0.6,2.3,0.8,3.5c0.2,2.3,0.3,4.7,0.5,7c2,5.9,2.9,12.3,3,18.7c0.1,3.9,0.4,7.7,1.3,11.2
		c0.8,3,0.5,6.5,0.4,9.8c0,1.3,0.2,11,0.1,14.5c0,4.9-0.1,9.9-0.1,14.9c0,3.6-0.3,7.4-0.1,11c0.1,1.5-0.3,3-0.4,4.4
		c-0.1,1.1-0.2,2.2-0.4,3.2c0.1,2.6,0.1,5.2,0.1,7.8l0,4.5l0,0.8c1.6-0.3,3.3-0.4,5-0.4c3.1,0,6,0.9,8.9,1.7c2,0.1,4,0.1,6,0.2
		c0.2-0.1,0.4-0.2,0.7-0.3c1.5-0.7,3.2-0.6,4.9-0.6c0.7,0,5.6-0.7,7.4-0.8c2.5-0.2,5-0.4,7.6-0.7c1.8-0.2,3.8-0.2,5.6-0.7
		c0.7-0.2,1.5,0,2.3,0c0.8,0,1.6,0,2.4,0.4c0.3,0.2,0.6,0.4,1,0.5c0.7,0.2,1.4-0.1,2.1,0c0.6,0.1,0.8,0.6,0.7,1.1
		c0.5,0,1-0.1,1.6-0.1c-0.2,2.6-0.4,5.1-0.6,7.7c0.1,0.2,0.1,0.5,0.2,0.7c0.5,1.4,0.9,2.9,1.3,4.4c0.4,1.5,0.7,3,0.9,4.5
		c0.4,2.3,0.5,4.6,0.5,6.9c0,1.4-0.7,6.9-0.8,8.3c-0.1,2.3,0.1,4.5-0.1,6.8c-0.2,2.9-0.8,5.8-1.1,8.7c-0.3,2.5-0.4,5.1-0.7,7.6
		c0.1,0.8,0.1,1.7,0.2,2.5c1.4,0,2.9,0,4.3,0c0.2-0.2,0.4-0.4,0.7-0.5c2.6-0.3,5.2-0.7,7.8-1c3.1-0.3,6.1-0.7,9.1-1
		c2.3-0.2,4.6-0.2,6.9-0.2c1.4,0,7.1,0.6,8.5,0.5c2.4,0,4.7-0.3,7.1-0.2c3,0.1,6,0.5,9,0.7c2.9,0.2,5.8,0.2,8.6,0.4
		c1.1,0,2.1,0.1,3.2,0.2c3-0.1,6.1-0.1,9.2-0.2c2.6-0.1,5.2-0.1,7.7-0.4c1.1-0.2,2.3,0.1,3.5,0.1c1,0,1.9,0,2.9,0.2
		c1.1,0,2.3,0,3.4,0c6,0,12,0,18,0l4.1,0l0.5,0l0.3,0c0.1,0,0,0,0.1-0.1l0-0.1l0.1-1.1c0,0,0,0,0,0c0.1,0,0.3,0,0.4,0
		c0-0.2,0.1-0.3,0.1-0.5c0.4-1.8,0.7-3.7,1.1-5.5c0.8-4.3,1.4-8.6,2.1-13c0.7-4.5,1.7-9.1,2.2-13.6c0.2-1.8,0.3-3.6,0.4-5.4
		c0.1-1.8,0.2-3.6,0.2-5.4c0.2-2.1,1.1-10.7,1.2-12.9c0.1-1.7,0.1-3.5,0.1-5.3c0-1.8,0-3.5-0.1-5.3
		C239.9,236.3,239.7,233.9,239.5,231.6z M75.1,98.1c-0.3-0.4,0.1-0.6,1.3-0.6c5.6-0.1,11.3-0.1,16.9-0.2c8.2-0.2,16.6-0.2,25.1,0.1
		c4.1,0.1,8.1,0.1,11.9-0.2v1.6c-1.8,0-3.7,0-5.5,0c-6.8-0.1-13.8-0.3-20.7-0.4c-6.6-0.1-13.2-0.1-19.7-0.2c-2.8,0-5.6-0.1-8.4-0.1
		C75.6,98.1,75.4,98.1,75.1,98.1z M76.8,110.5C76.8,110.5,76.8,110.5,76.8,110.5c-0.1-0.4-0.1-0.7-0.2-1.1c0.2,0,0.3,0,0.5,0
		c6-0.2,11.9-0.3,17.8-0.5c7-0.2,14-0.4,20.9-0.5c4.8-0.1,9.6-0.1,14.3-0.1v2.4c-0.6,0-1.1,0-1.6,0c-6.2,0-12.5,0.1-18.8,0.2
		c-4.6,0.1-9.3,0-13.8,0.2c-1.8,0.1-3.7,0-5.6,0c-2,0-4,0-5.9-0.2c-0.8-0.1-1.6-0.2-2.4-0.3C80.4,110.4,78.6,110.6,76.8,110.5z
		 M78.2,123.1c5-0.1,10.1-0.1,15.1-0.2c8.2-0.2,16.6-0.2,25.1,0.1c4.1,0.1,8.1,0.1,11.9-0.2v1.6c-1.8,0-3.7,0-5.5,0
		c-6.8-0.1-13.8-0.3-20.7-0.4c-6.6-0.1-13.2-0.1-19.7-0.2c-2,0-4-0.1-6-0.1C78.3,123.5,78.2,123.3,78.2,123.1z M79.2,132.7
		c4.7-0.1,9.4-0.1,14.1-0.2c8.2-0.2,16.6-0.2,25.1,0.1c4.1,0.1,8.1,0.1,11.9-0.2v1.6c-1.8,0-3.7,0-5.5,0c-6.8-0.1-13.8-0.3-20.7-0.4
		c-6.6-0.1-13.2-0.1-19.7-0.2c-1.7,0-3.3,0-5-0.1C79.2,133.1,79.2,132.9,79.2,132.7z M80.2,144.4c4.9-0.1,9.9-0.3,14.8-0.4
		c7-0.2,14-0.4,20.9-0.5c4.8-0.1,9.6-0.1,14.3-0.1v2.4c-0.6,0-1.1,0-1.6,0c-6.2,0-12.5,0.1-18.8,0.2c-4.6,0.1-9.3,0-13.8,0.2
		c-1.8,0.1-3.7,0-5.6,0c-2,0-4,0-5.9-0.2c-0.8-0.1-1.6-0.2-2.4-0.3c-0.6,0-1.2-0.1-1.7,0C80.3,145.2,80.3,144.8,80.2,144.4z
		 M81.1,158.9c0-0.2,0-0.5,0-0.7c4.1-0.1,8.1-0.1,12.2-0.2c8.2-0.2,16.6-0.2,25.1,0.1c4.1,0.1,8.1,0.1,11.9-0.2v1.6
		c-1.8,0-3.7,0-5.5,0c-6.8-0.1-13.8-0.3-20.7-0.4c-6.6-0.1-13.2-0.1-19.7-0.2C83.2,158.9,82.2,158.9,81.1,158.9z M81.3,176.4
		c0-0.2,0-0.5,0-0.7c4,0,8-0.1,12-0.2c8.2-0.2,16.6-0.2,25.1,0.1c4.1,0.1,8.1,0.1,11.9-0.2v1.6c-1.8,0-3.7,0-5.5,0
		c-6.8-0.1-13.8-0.3-20.7-0.4c-6.6-0.1-13.2-0.1-19.7-0.2C83.3,176.4,82.3,176.4,81.3,176.4z M82.1,187.4c4.3-0.1,8.6-0.2,12.9-0.3
		c7-0.2,14-0.4,20.9-0.5c4.8-0.1,9.6-0.1,14.3-0.1v2.4c-0.6,0-1.1,0-1.6,0c-6.2,0-12.5,0.1-18.8,0.2c-4.6,0.1-9.3,0-13.8,0.2
		c-1.8,0.1-3.7,0-5.6,0c-2,0-4,0-5.9-0.2c-0.7-0.1-1.4-0.2-2.1-0.3C82.3,188.3,82.2,187.8,82.1,187.4z M104,202.1
		c-6.6-0.1-13.2-0.1-19.7-0.2c-0.2,0-0.4,0-0.6,0c0-0.3,0-0.5,0-0.8c3.2,0,6.5-0.1,9.7-0.2c8.2-0.2,16.6-0.2,25.1,0.1
		c4.1,0.1,8.1,0.1,11.9-0.2v1.6c-1.8,0-3.7,0-5.5,0C117.9,202.4,110.9,202.2,104,202.1z M206.8,271c-3.9,1.2-13.2,5.8-14.9,7
		s0.7-2.3,0.7-2.3c0.1-0.1,0.1-0.2,0.2-0.3c0,0,0.9-1.2,1-1.3c0.3-0.4,0.6-0.8,0.9-1.2c0.9-1.4,1.7-3,2.3-4.6c0.5-1.6,1-3.4,0.8-4.7
		c-0.1-0.7-0.4-1.2-0.8-1.5c-0.4-0.3-1.1-0.5-1.8-0.5c-0.6,0-1.1,0.1-1.7,0.2c-0.2,1.1-0.5,2.1-0.9,3.1c-1.7,4.9-3.8,9.3-6.2,13.3
		c-1,1.7-2.3,3.5-3.8,5.1c-0.7,0.8-1.5,1.6-2.4,2.3c-0.4,0.4-0.9,0.8-1.4,1.1c-0.5,0.3-1.2,0.6-1.9,0.7c-0.3,0-0.9,0-1.5-0.4
		c-0.6-0.3-1.2-1-1.6-1.9c-0.3-0.9-0.3-2-0.1-3c0.2-1,0.6-1.9,0.9-2.8c0.7-1.9,1.6-3.8,2.5-5.5c0.9-1.7,1.9-3.1,2.6-4
		c2-2.7,4.2-5.1,6.8-7.2c1.3-1.1,2.7-2,4.4-2.7c0.4-0.2,0.9-0.3,1.4-0.5c0.1-1.2,0-2.3-0.3-3.4c-0.4-1.5-1.3-2.8-2.6-3.7
		c-1.2-0.8-2.6-1.1-4-0.7c-1.4,0.4-2.7,1.4-3.9,2.5c-2.4,2.3-4.3,5-5.6,8c-1.2,2.5-1.9,5.3-2.2,8.1c0,0.3-0.1,0.5-0.1,0.8
		c-0.5,0.2-0.6-0.2-0.5-1.3c0.5-5.8,3-11.4,7-15.7c0.7-0.8,1.5-1.5,2.4-2.2c0.9-0.6,1.9-1.2,3-1.5c1.1-0.3,2.3-0.2,3.4,0.2
		c1.1,0.4,2,1.1,2.8,1.9c0.8,0.8,1.3,1.8,1.7,2.9c0.4,1.1,0.5,2.2,0.5,3.3c0,0.2,0,0.4,0,0.6c0.8-0.1,1.7-0.1,2.6,0.1
		c0.7,0.1,1.5,0.4,2.2,0.9c0.7,0.5,1.2,1.3,1.5,2c0.3,0.8,0.4,1.6,0.3,2.3c0,0.7-0.1,1.4-0.3,2.1c-0.5,2.1-1.2,4-2.2,5.9
		c0.4-0.1,0.8-0.3,1.2-0.4c0.8-0.2,1.6-0.4,2.4-0.6c1.7-0.5,3.5-1.3,5.2-1.7c1.4-0.3,2-0.2,1.9,0.2C208.7,270.1,208,270.6,206.8,271
		z M135.5,245.1c-1.2,0.1-2.5,0-3.8,0c-1.3,0-2.7,0-4-0.2c-0.5-0.1-1-0.2-1.6-0.3c-1.1-0.1-2.4,0-3.5,0c-1.9-0.1-1.4-1.1,0.3-1.2
		c4-0.2,8-0.3,12-0.5c1.5-0.1,70.3-0.1,71.8-0.2c0.7,0.8,1.5,1.5,2.2,2.2C206.8,244.9,137.4,245,135.5,245.1z M219.1,230.7
		c-3.8,0.1-7.6,0.1-11.4,0.2c-5.5,0.2-11.1,0.2-16.9-0.1c-3.3-0.1-6.5-0.1-9.5,0.3c-2.6,0.3-5.5,0.2-8.3,0.2
		c-1.1,0-9.4,0.2-12.4,0.2c-4.2,0-8.4,0.1-12.6,0.2c-3.1,0.1-6.3,0-9.3,0.2c-1.2,0.1-2.5,0-3.8,0c-1.3,0-2.7,0-4-0.2
		c-0.5-0.1-1-0.2-1.6-0.3c-1.1-0.1-2.4,0-3.5,0c-1.9-0.1-1.4-1.1,0.3-1.2c4-0.2,8-0.3,12-0.5c4.7-0.2,9.4-0.4,14.1-0.5
		c3.6-0.1,7.1-0.1,10.6-0.1c2.2,0,10.9,0.3,13,0.3c3.6,0,7.2-0.1,10.9-0.1c4.6,0.1,9.3,0.3,13.9,0.4c4.4,0.1,8.9,0.1,13.3,0.2
		c1.9,0,3.8,0.1,5.7,0.1c0.2,0,0.4,0,0.5,0C220.1,230.5,219.9,230.6,219.1,230.7z"/>
</g>
</svg>
