<?xml version="1.0" encoding="UTF-8" standalone="no"?><!DOCTYPE svg PUBLIC "-//W3C//DTD SVG 1.1//EN" "http://www.w3.org/Graphics/SVG/1.1/DTD/svg11.dtd"><svg width="100%" height="100%" viewBox="0 0 152 152" version="1.1" xmlns="http://www.w3.org/2000/svg" xmlns:xlink="http://www.w3.org/1999/xlink" xml:space="preserve" xmlns:serif="http://www.serif.com/" style="fill-rule:evenodd;clip-rule:evenodd;stroke-linecap:round;stroke-linejoin:round;stroke-miterlimit:10;"><circle cx="76" cy="76" r="74.766" style="fill:#675144;fill-rule:nonzero;"/><path d="M109.2,114.2l-66.4,0c-2.6,0 -4.8,-2.1 -4.8,-4.8l0,-66.4c0,-2.6 2.1,-4.8 4.8,-4.8l66.5,0c2.6,0 4.8,2.1 4.8,4.8l0,66.5c-0.1,2.6 -2.2,4.7 -4.9,4.7Zm-13.7,-45.3l18.5,0m-75.8,0l18.7,0" style="fill:none;stroke:#fff;stroke-width:4px;"/><circle cx="76" cy="79.1" r="21.5" style="fill:none;stroke:#fff;stroke-width:4px;"/><circle cx="76" cy="79.1" r="21.5" style="fill:none;stroke:#fff;stroke-width:4px;"/><path d="M100,47.9c2.5,0 4.5,2 4.5,4.5l0,0.5c0,2.5 -2,4.5 -4.5,4.5l-0.5,0c-2.5,0 -4.5,-2 -4.5,-4.5l0,-0.5c0,-2.5 2,-4.5 4.5,-4.5l0.5,0m0,-2.4l-0.5,0c-3.8,0 -6.9,3.1 -6.9,6.9l0,0.5c0,3.8 3.1,6.9 6.9,6.9l0.5,0c3.8,0 6.9,-3.1 6.9,-6.9l0,-0.5c0,-3.8 -3.1,-6.9 -6.9,-6.9Z" style="fill:#fff;fill-rule:nonzero;"/></svg>